<svg width="92" height="92" viewBox="0 0 92 92" fill="none" xmlns="http://www.w3.org/2000/svg">
<path fill-rule="evenodd" clip-rule="evenodd" d="M0 9.2C0 4.11896 4.11896 0 9.2 0H27.6C32.681 0 36.8 4.11896 36.8 9.2V15.3333H55.2V9.2C55.2 4.11896 59.3191 0 64.4 0H82.8C87.8809 0 92 4.11896 92 9.2V27.6C92 32.681 87.8809 36.8 82.8 36.8H76.6667V55.2H82.8C87.8809 55.2 92 59.3191 92 64.4V82.8C92 87.8809 87.8809 92 82.8 92H64.4C59.3191 92 55.2 87.8809 55.2 82.8V76.6667H36.8V82.8C36.8 87.8809 32.681 92 27.6 92H9.2C4.11896 92 0 87.8809 0 82.8V64.4C0 59.3191 4.11896 55.2 9.2 55.2H15.3333V36.8H9.2C4.11896 36.8 0 32.681 0 27.6V9.2ZM70.5333 36.8H64.4C59.3191 36.8 55.2 32.681 55.2 27.6V21.4667H36.8V27.6C36.8 32.681 32.681 36.8 27.6 36.8H21.4667V55.2H27.6C32.681 55.2 36.8 59.3191 36.8 64.4V70.5333H55.2V64.4C55.2 59.3191 59.3191 55.2 64.4 55.2H70.5333V36.8ZM9.2 6.13333C7.50634 6.13333 6.13333 7.50634 6.13333 9.2V27.6C6.13333 29.2937 7.50634 30.6667 9.2 30.6667H27.6C29.2937 30.6667 30.6667 29.2937 30.6667 27.6V9.2C30.6667 7.50634 29.2937 6.13333 27.6 6.13333H9.2ZM6.13333 64.4C6.13333 62.7066 7.50634 61.3333 9.2 61.3333H27.6C29.2937 61.3333 30.6667 62.7066 30.6667 64.4V82.8C30.6667 84.4934 29.2937 85.8667 27.6 85.8667H9.2C7.50634 85.8667 6.13333 84.4934 6.13333 82.8V64.4ZM61.3333 64.4C61.3333 62.7066 62.7066 61.3333 64.4 61.3333H82.8C84.4934 61.3333 85.8667 62.7066 85.8667 64.4V82.8C85.8667 84.4934 84.4934 85.8667 82.8 85.8667H64.4C62.7066 85.8667 61.3333 84.4934 61.3333 82.8V64.4ZM61.3333 9.2C61.3333 7.50634 62.7066 6.13333 64.4 6.13333H82.8C84.4934 6.13333 85.8667 7.50634 85.8667 9.2V27.6C85.8667 29.2937 84.4934 30.6667 82.8 30.6667H64.4C62.7066 30.6667 61.3333 29.2937 61.3333 27.6V9.2Z" fill="#01FF94"/>
</svg>
