<svg width="72" height="72" viewBox="0 0 72 72" fill="none" xmlns="http://www.w3.org/2000/svg">
<path d="M11.052 0.446289L0.446289 11.052L4.428 15.0264L9.72719 9.72719L12.3768 12.3768L7.0776 17.676L12.3768 22.9752L17.676 17.676L20.3256 20.3256L15.0264 25.6248L20.3256 30.924L30.924 20.3256L11.052 0.446289ZM59.7694 2.0785L49.7785 12.0694L60.3769 22.6678L70.3678 12.6769C68.9321 10.6583 67.3548 8.71242 65.5444 6.90193C63.7339 5.09148 61.7879 3.51428 59.7694 2.0785ZM44.4793 17.3686L4.72809 57.1198L2.0785 70.3678L15.3265 67.7182L55.0777 27.9669L44.4793 17.3686ZM52.1207 41.5223L41.5223 52.1207L46.8215 57.4199L52.1207 52.1207L54.7703 54.7703L49.4711 60.0695L54.7703 65.3687L60.0695 60.0695L62.7191 62.7191L57.4199 68.0183L61.3943 72L72 61.3943L52.1207 41.5223Z" fill="#01FF94"/>
</svg>
