<svg width="87" height="78" viewBox="0 0 87 78" fill="none" xmlns="http://www.w3.org/2000/svg">
<path d="M82.5992 0.55195C78.9711 1.40859 73.0082 5.32226 64.2571 12.6121C52.7344 22.2031 37.4324 37.673 27.6734 49.5988L26.2961 51.2785L24.9356 51.1777C22.6008 50.993 20.0981 51.7152 17.8641 53.2437C15.7981 54.6547 13.9168 56.9055 11.75 60.584C10.3055 63.0699 9.58321 64.0441 8.23946 65.3711C6.89571 66.7148 5.75352 67.3867 3.2172 68.3945C0.546493 69.4527 0.29454 70.6621 2.37735 72.4426C5.19923 74.8613 7.95392 76.3395 11.4141 77.2969C12.1027 77.4816 12.9426 77.6328 13.2953 77.6328C14.152 77.6328 14.7734 77.0785 14.891 76.1883C14.9582 75.634 14.9078 75.4324 14.5383 74.9957C14.2863 74.6934 13.8496 74.4078 13.5473 74.3574C11.1453 73.8367 8.60899 72.7953 6.71095 71.5523L5.8879 71.0148L7.01329 70.4102C10.2551 68.7137 11.8844 66.866 15.6133 60.7352C19.0231 55.1418 23.2223 53.227 27.3879 55.3937C31.9399 57.7789 33.6867 62.8684 31.4695 67.2523C30.932 68.3105 29.3531 69.9734 27.8246 71.082C27.1192 71.5859 26.4809 72.1738 26.3801 72.3922C25.8594 73.5008 26.5984 74.7773 27.791 74.7773C28.4965 74.7773 29.7731 73.9711 31.4359 72.493C34.4426 69.8223 35.7527 66.9668 35.7863 63.0867V61.2559L38.0035 59.4586C43.8656 54.7219 50.5844 48.5574 58.4621 40.6965C68.0028 31.1559 74.1168 24.3195 79.7774 16.7945C84.5981 10.4117 86.7313 6.53164 86.9496 3.72656C87.0168 2.80273 86.9664 2.51718 86.6305 1.8789C85.9754 0.585543 84.4805 0.0984341 82.5992 0.55195ZM83.5567 4.09609C82.1961 8.59765 75.1414 18.0879 64.7442 29.3922C61.368 33.0875 53.591 41.0324 52.3985 42.0234L51.6258 42.6785L48.1153 39.168L44.6215 35.6742L47.7961 32.4492C61.0153 19.0117 75.8805 6.76679 82.0281 4.28086C83.6574 3.62578 83.691 3.62578 83.5567 4.09609ZM45.8309 41.5867L49.2574 45.0133L48.0145 46.1723C43.4961 50.4387 35.0305 57.8125 34.6442 57.8125C34.5434 57.8125 34.2074 57.3758 33.8715 56.8383C33.2332 55.7969 31.4024 53.9324 30.277 53.1934C29.8738 52.9414 29.5547 52.6895 29.5547 52.6391C29.5547 52.3031 41.9844 38.2105 42.3203 38.177C42.3707 38.1602 43.9496 39.7055 45.8309 41.5867Z" fill="black"/>
<path d="M19.7117 74.8445C19.0734 75.4828 18.9895 76.0539 19.4262 76.793C20.0645 77.9016 21.677 77.8848 22.2649 76.7762C22.7016 75.9027 22.4328 74.9285 21.6434 74.5086C20.8875 74.1223 20.3332 74.223 19.7117 74.8445Z" fill="black"/>
</svg>
