<svg width="106" height="84" viewBox="0 0 106 84" fill="none" xmlns="http://www.w3.org/2000/svg">
<path d="M48.1001 36.6333C43.9001 56.9333 39.9334 75.8333 39.2334 78.6333C38.3001 83.0667 39.0001 84 43.6668 84C48.8001 84 49.5001 82.1333 56.9668 47.1333C61.1668 27.0667 65.1334 8.16667 65.8334 5.13333C66.7668 0.933333 66.0668 -3.57628e-07 61.4001 -3.57628e-07C56.2668 -3.57628e-07 55.5668 1.86667 48.1001 36.6333Z" fill="black"/>
<path d="M10.7668 30.3333C3.06675 37.3333 -1.13325 42.9333 0.266753 44.1C1.43342 45.0333 7.26675 50.4 13.3334 56C22.9001 64.4 25.0001 65.5667 28.0334 63C31.3001 60.2 30.6001 58.8 22.9001 50.8667L14.2668 42L22.9001 33.1333C29.6668 26.1333 30.8334 23.5667 28.7334 21.4667C24.7668 17.5 24.7668 17.5 10.7668 30.3333Z" fill="black"/>
<path d="M76.3334 21.4667C74.2334 23.5667 75.4001 26.1333 82.1667 33.1333L90.8001 42L82.1667 50.8667C74.4667 58.8 73.7667 60.2 76.8001 62.7667C79.8334 65.3333 82.4001 64.1667 92.6667 54.8333C99.4334 48.7667 105.033 42.9333 105.033 42C105.033 40.3667 81.9334 18.6667 80.0667 18.6667C79.6001 18.6667 77.9667 19.8333 76.3334 21.4667Z" fill="black"/>
</svg>
