<svg width="68" height="68" viewBox="0 0 68 68" fill="none" xmlns="http://www.w3.org/2000/svg">
<path d="M24.9819 0.728027C12.4873 0.728027 7.7321 4.05459 8.75068 13.2897L9.77334 22.9968C10.3166 28.0897 6.17188 29.6522 0.399902 29.6522V38.3476C6.23978 38.3476 10.3166 39.9101 9.77334 45.003L8.75068 54.7812C7.80001 63.8805 12.4873 67.2718 24.9819 67.2718V59.8015C20.8397 59.8015 18.326 58.9202 18.6655 55.5249L19.6827 45.4733C20.4976 37.8 16.4267 35.0864 9.16084 33.9999C16.0193 32.9813 20.4976 30.1319 19.6827 22.5265L18.6655 12.4749C18.326 9.07962 20.7718 8.19834 24.9819 8.19834V0.728027ZM43.0179 0.728027V8.19834C47.1601 8.19834 49.6738 9.07962 49.3343 12.4749L48.3171 22.5265C47.5022 30.1998 51.6442 32.9134 58.9101 33.9999C51.9837 35.0185 47.5022 37.8679 48.3171 45.4733L49.3343 55.5249C49.6738 58.9202 47.228 59.8015 43.0179 59.8015V67.2718C55.5125 67.2718 60.2677 63.9452 59.2491 54.7101L58.2265 45.003C57.6832 39.9101 61.8958 38.3476 67.5999 38.3476V29.6522C61.8279 29.6522 57.6832 28.0897 58.2265 22.9968L59.2491 13.2187C60.1998 4.11932 55.5125 0.728027 43.0179 0.728027Z" fill="#01FF94"/>
</svg>
