<svg width="112" height="78" viewBox="0 0 112 78" fill="none" xmlns="http://www.w3.org/2000/svg">
<path d="M64.9271 18.3793C65.481 18.1491 66.0301 17.9055 66.5741 17.6484C67.0847 17.4082 67.5884 17.1547 68.0808 16.8775C63.4622 9.84955 71.3881 4.4298 77.6455 3.64383C83.9927 2.8513 92.6578 4.89377 95.7431 11.1343C98.9767 17.6751 92.0788 22.3857 86.4073 23.3283C83.6607 23.7837 80.8156 23.6754 78.1027 23.0697C77.0846 22.8429 76.9929 22.781 76.3439 23.5151C75.6262 24.3293 74.9789 25.1935 74.3765 26.0948C82.5542 28.8462 95.5294 28.2455 100.43 19.9293C103.577 14.5899 100.542 8.72123 96.0248 5.35905C91.4462 1.95683 85.5695 0.396484 79.9143 0.396484C73.6119 0.396484 65.7962 2.47417 62.676 8.52261C61.0927 11.593 61.4346 15.1569 63.1916 18.0669C63.7658 19.0335 63.9644 18.7765 64.9271 18.3793Z" fill="#01FF94"/>
<path d="M20.5306 26.7088C25.9367 28.2123 31.8369 27.9004 37.1381 26.1265C36.6358 25.3624 35.1024 22.6674 34.1648 22.931C33.0317 23.2515 31.8655 23.4733 30.6957 23.6019C27.9626 23.9038 25.1558 23.7185 22.5144 22.9295C19.7879 22.0902 17.0949 20.5867 15.6163 18.0573C13.9661 15.2157 14.6237 11.9367 16.6125 9.45385C20.6638 4.52979 28.0842 2.86947 34.1729 3.83897C40.2334 4.80344 47.4182 10.0928 43.2635 16.8091C44.0477 17.2346 46.9995 19.0834 47.717 18.6862C48.3079 18.3592 48.7316 16.8675 48.9451 16.2968C50.2333 12.9029 49.4406 9.25347 47.1163 6.52391C43.3352 2.08197 36.9162 0.483349 31.2913 0.496912C26.2922 0.496912 21.168 1.72497 16.8728 4.32307C12.5678 6.92772 8.56143 11.5814 9.59109 16.9644C10.5956 22.2205 15.7417 25.3775 20.5306 26.7088Z" fill="#01FF94"/>
<path d="M81.2844 57.0009C82.8944 60.2179 86.9759 61.7664 90.3718 60.5283C95.7497 58.5661 93.5605 52.4188 89.2054 50.8254C86.8344 50.1129 84.635 49.694 82.4009 48.3842C78.1209 45.8779 74.3566 42.2003 71.6249 38.0688C70.427 36.2567 69.0703 34.0108 69.137 31.7548C69.2022 29.5323 70.32 27.3513 71.4864 25.5108C74.0211 21.5094 77.9905 17.7016 82.7245 16.5919C84.445 16.2349 86.7742 15.7543 86.8459 13.4835C86.9779 9.292 79.9046 8.71472 77.4502 10.6736C76.9379 11.0807 76.7128 11.4412 76.4774 12.0034C75.9918 13.1632 75.5814 14.096 74.6369 15.0388C71.1662 18.4961 66.0203 20.5535 61.3716 21.815C56.4073 23.1599 51.9439 22.5959 47.1349 20.8707C43.1051 19.4238 37.1901 17.0511 35.2479 12.878C35.051 12.4558 35.021 11.9953 34.8073 11.5799C33.9529 10.0495 31.9657 9.51907 30.3336 9.51907C28.0928 9.5125 23.9663 10.9407 24.6639 13.9225C25.0561 15.5977 26.6645 16.1986 28.1461 16.4871C31.8323 17.2081 34.9442 19.4173 37.4487 22.1589C40.3771 25.364 43.5407 30.0881 41.7869 34.5498C40.0267 39.0267 36.3773 42.9629 32.6782 45.9348C29.8749 48.1875 26.8229 49.8509 23.319 50.6653C20.1401 51.4044 16.5745 54.5564 18.3531 58.1124C19.4228 60.2513 22.0041 61.0924 24.255 60.9122C26.0037 60.7722 29.4761 59.6458 30.0385 57.6734C30.651 55.5193 32.1407 53.7203 33.7562 52.2221C37.4102 48.8348 42.049 46.4235 46.6861 44.6884C51.3883 42.9279 55.8602 42.1288 60.7775 43.3918C65.6933 44.6549 70.5055 46.8542 74.6786 49.7426C77.5101 51.705 79.7477 53.9308 81.2844 57.0009Z" fill="#01FF94"/>
<path d="M30.3336 9.51909C30.494 9.51909 29.8248 9.51734 30.3336 9.51909Z" fill="#01FF94"/>
<path d="M109.334 49.714C104.353 41.5211 94.4466 36.9875 85.0507 36.9875C81.8068 36.9875 78.538 37.5165 75.5011 38.671C76.3722 39.8057 77.3334 40.8704 78.3512 41.8766C79.1621 42.6777 79.5025 42.3121 80.542 42.0468C82.1971 41.6145 83.911 41.4177 85.6196 41.4177C90.1049 41.4177 94.6282 42.791 98.3292 45.3307C102.259 48.0121 105.424 52.2703 105.721 57.141C105.993 61.6227 103.654 65.7409 99.9679 68.1973C92.1187 73.4282 80.5637 71.4243 74.0644 64.92C70.7656 61.6195 68.6932 56.9106 69.6992 52.2154C69.8093 51.6996 69.9545 51.1908 70.1315 50.6951C70.3968 49.9491 70.0864 50.0476 69.4606 49.6956C68.5963 49.2117 67.7136 48.7611 66.8176 48.3389C66.3303 48.1103 65.3426 47.4797 64.9589 47.6932C64.8552 47.7516 64.8119 48.0419 64.7319 48.137C60.1497 57.9585 66.8526 68.3456 75.4309 73.166C83.6673 77.7748 94.5164 78.669 102.925 73.972C111.795 69.0147 114.633 58.434 109.334 49.714Z" fill="#01FF94"/>
<path d="M41.9471 49.7775C41.278 50.1496 41.6418 50.3716 41.8922 51.0406C42.1639 51.7646 42.3545 52.5156 42.4763 53.2797C43.2404 58.097 40.9044 62.8109 37.4037 66.0112C30.6325 72.2016 19.0274 73.8719 11.4287 68.2004C7.68892 65.4105 5.6633 60.8522 6.4508 56.2101C7.25842 51.4494 10.6458 47.5183 14.6769 45.0669C18.6015 42.6808 23.3002 41.5378 27.8806 41.8566C29.0586 41.9434 30.23 42.1202 31.3763 42.4072C32.3657 42.6543 32.2255 42.6108 32.9397 42.1353C34.0927 41.3661 35.0804 39.9143 35.9315 38.8413C33.055 37.8386 30.0213 37.3564 26.9761 37.3564C17.4598 37.3564 7.41833 41.9834 2.49427 50.3734C-2.93861 59.6289 0.860641 70.5734 10.4135 75.1254C19.2704 79.3468 30.335 77.9521 38.4143 72.6257C46.5304 67.2777 52.002 56.674 46.7408 47.443C45.0958 48.1187 43.5007 48.9132 41.9471 49.7775Z" fill="#01FF94"/>
</svg>
