<svg width="11" height="11" viewBox="0 0 11 11" fill="none" xmlns="http://www.w3.org/2000/svg">
<path d="M5.5 10.375C5.33691 10.3748 5.17767 10.3255 5.04297 10.2336C3.04752 8.87898 2.18348 7.9502 1.70689 7.36951C0.691269 6.13172 0.205039 4.86092 0.21875 3.48475C0.234746 1.90773 1.49996 0.625 3.03914 0.625C4.15836 0.625 4.93353 1.25545 5.38498 1.78053C5.39928 1.79699 5.41695 1.8102 5.43679 1.81924C5.45664 1.82829 5.47819 1.83298 5.5 1.83298C5.52181 1.83298 5.54336 1.82829 5.56321 1.81924C5.58305 1.8102 5.60072 1.79699 5.61502 1.78053C6.06646 1.25494 6.84164 0.625 7.96086 0.625C9.50004 0.625 10.7653 1.90773 10.7812 3.485C10.795 4.86143 10.3082 6.13223 9.2931 7.36977C8.81652 7.95045 7.95248 8.87924 5.95703 10.2338C5.8223 10.3257 5.66306 10.3749 5.5 10.375V10.375Z" fill="#FF4D4D"/>
</svg>
