<svg width="43" height="26" viewBox="0 0 43 26" fill="none" xmlns="http://www.w3.org/2000/svg">
<path d="M10.1462 6.77862H18.2564V7.42444H10.8896V12.2851H17.8171V12.9309H10.8896V18.2675H18.3409V18.9133H10.1462V6.77862ZM18.9829 6.77862H19.8446L23.6632 12.1152L27.5662 6.77862L32.875 0L24.1532 12.676L28.6476 18.9133H27.7521L23.6632 13.2368L19.5574 18.9133H18.6788L23.207 12.676L18.9829 6.77862ZM28.9686 7.42444V6.77862H38.2108V7.42444H33.953V18.9133H33.2096V7.42444H28.9686ZM0 6.77862H0.929293L13.7437 25.9902L8.44812 18.9133L0.777227 7.69637L0.743435 18.9133H0V6.77862ZM38.1359 18.0726C37.984 18.0726 37.8701 17.9547 37.8701 17.8023C37.8701 17.6499 37.984 17.532 38.1359 17.532C38.2896 17.532 38.4017 17.6499 38.4017 17.8023C38.4017 17.9547 38.2896 18.0726 38.1359 18.0726ZM38.8665 17.3615H39.2643C39.2697 17.5773 39.427 17.7225 39.6584 17.7225C39.917 17.7225 40.0635 17.5665 40.0635 17.2744V15.4242H40.4685V17.2762C40.4685 17.8023 40.1647 18.1052 39.6621 18.1052C39.1901 18.1052 38.8665 17.8114 38.8665 17.3615ZM40.9983 17.3379H41.3997C41.4341 17.5864 41.6764 17.7442 42.0254 17.7442C42.3509 17.7442 42.5895 17.5755 42.5895 17.3433C42.5895 17.1438 42.4376 17.0241 42.0923 16.9425L41.756 16.8608C41.284 16.7502 41.0688 16.5216 41.0688 16.1371C41.0688 15.6709 41.4486 15.3607 42.0181 15.3607C42.5479 15.3607 42.9349 15.6709 42.9584 16.1117H42.5642C42.5263 15.8704 42.3165 15.7198 42.0127 15.7198C41.6927 15.7198 41.4793 15.874 41.4793 16.1099C41.4793 16.2967 41.6167 16.4037 41.9567 16.4835L42.2442 16.5543C42.7794 16.6794 43 16.8971 43 17.2907C43 17.7914 42.613 18.1052 41.9946 18.1052C41.416 18.1052 41.0273 17.8059 40.9983 17.3379Z" fill="white"/>
</svg>
