<svg width="144" height="144" viewBox="0 0 144 144" fill="none" xmlns="http://www.w3.org/2000/svg">
<path d="M111.487 25.7607C93.102 25.7607 78.5851 40.6673 78.5851 59.0526C78.5851 77.438 93.685 92.3445 112.07 92.3445C112.254 92.3445 112.532 92.3196 112.716 92.3165C105.446 98.1052 96.3159 101.593 86.3221 101.593C81.7242 101.593 78.024 105.322 78.024 109.916C78.024 114.511 80.9823 118.239 85.5802 118.239C118.214 118.236 144 91.6868 144 59.0526C144 59.0464 144 59.0402 144 59.0308C144 40.6548 129.867 25.7607 111.487 25.7607Z" fill="#010002"/>
<path d="M33.5101 25.7607C15.1248 25.7607 0.58292 40.6673 0.58292 59.0526C0.58292 77.438 15.6703 92.3445 34.0588 92.3445C34.2427 92.3445 34.5139 92.3196 34.6978 92.3165C27.4284 98.1052 18.295 101.593 8.30116 101.593C3.70326 101.593 0 105.322 0 109.916C0 114.511 3.005 118.239 7.6029 118.239C40.2371 118.236 66.0695 91.6868 66.0695 59.0526C66.0695 59.0464 66.0695 59.0402 66.0695 59.0308C66.0695 40.6548 51.8893 25.7607 33.5101 25.7607Z" fill="#010002"/>
</svg>
