<svg width="144" height="93" viewBox="0 0 144 93" fill="none" xmlns="http://www.w3.org/2000/svg">
<path d="M32.5126 0C50.898 0 65.4149 14.9065 65.4149 33.2919C65.4149 51.6773 50.315 66.5838 31.9297 66.5838C31.7458 66.5838 31.4683 66.5589 31.2844 66.5558C38.5538 72.3445 47.6841 75.8326 57.6779 75.8326C62.2758 75.8326 65.976 79.5608 65.976 84.1556C65.976 88.7504 63.0177 92.4786 58.4198 92.4786C25.7856 92.4755 -1.45632e-05 65.9261 -1.45632e-05 33.2919C-1.45632e-05 33.2857 -1.45632e-05 33.2794 -1.45632e-05 33.2701C-1.45632e-05 14.8941 14.1335 0 32.5126 0Z" fill="#010002"/>
<path d="M110.49 0C128.875 0 143.417 14.9065 143.417 33.2919C143.417 51.6773 128.33 66.5838 109.941 66.5838C109.757 66.5838 109.486 66.5589 109.302 66.5558C116.572 72.3445 125.705 75.8326 135.699 75.8326C140.297 75.8326 144 79.5608 144 84.1556C144 88.7504 140.995 92.4786 136.397 92.4786C103.763 92.4755 77.9305 65.9261 77.9305 33.2919C77.9305 33.2857 77.9305 33.2794 77.9305 33.2701C77.9305 14.8941 92.1107 0 110.49 0Z" fill="#010002"/>
</svg>
