<svg width="25" height="22" viewBox="0 0 25 22" fill="none" xmlns="http://www.w3.org/2000/svg">
<path d="M12.9268 16.449C6.17129 16.449 0.882109 14.1448 0.882109 11.2122C0.882109 8.27957 6.17129 5.97537 12.9268 5.97537C19.6823 5.97537 24.9714 8.27957 24.9714 11.2122C24.9714 14.1448 19.6823 16.449 12.9268 16.449ZM12.9268 7.02273C6.32839 7.02273 1.92947 9.16983 1.92947 11.2122C1.92947 13.2545 6.32839 15.4016 12.9268 15.4016C19.5252 15.4016 23.9241 13.2545 23.9241 11.2122C23.9241 9.16983 19.5252 7.02273 12.9268 7.02273Z" fill="white"/>
<path d="M8.26601 22C7.74233 22 7.32339 21.8953 6.90444 21.6334C4.3384 20.1671 5.01919 14.459 8.37075 8.59378C9.94179 5.87064 11.8794 3.56644 13.7647 2.10013C15.807 0.529089 17.6399 0.0577764 18.8967 0.79093C20.2059 1.52408 20.6773 3.35697 20.363 5.923C20.0488 8.33194 19.0015 11.1598 17.4304 13.883C15.8594 16.6061 13.9218 18.9103 12.0365 20.3766C10.6749 21.424 9.36574 22 8.26601 22ZM17.5875 1.47172C16.7496 1.47172 15.6499 1.94303 14.4454 2.88565C12.6649 4.29959 10.832 6.49905 9.31337 9.11746C6.01418 14.8256 5.69997 19.7482 7.42812 20.7432C8.31838 21.2669 9.78469 20.7955 11.4081 19.5387C13.1886 18.1248 15.0215 15.9253 16.5402 13.3069C18.0588 10.6885 19.0538 8.01773 19.368 5.7659C19.6299 3.67118 19.3157 2.20487 18.4254 1.68119C18.1636 1.57645 17.9017 1.47172 17.5875 1.47172Z" fill="white"/>
<path d="M17.6399 22C15.0215 22 11.251 18.8055 8.42312 13.8306C5.01919 7.96534 4.3384 2.25722 6.90444 0.790911C9.47048 -0.675396 14.0789 2.72853 17.4828 8.59376C19.0538 11.3169 20.1012 14.1448 20.4154 16.5537C20.782 19.1198 20.2583 20.9003 18.9491 21.6858C18.5302 21.8953 18.1112 22 17.6399 22ZM7.42812 1.68117C5.69997 2.67616 6.01418 7.59877 9.31337 13.3069C12.6126 19.015 16.6973 21.7382 18.4254 20.7432C19.3157 20.2195 19.6299 18.7532 19.368 16.6584C19.0538 14.4066 18.0588 11.7358 16.5402 9.11744C13.241 3.40932 9.15627 0.686175 7.42812 1.68117Z" fill="white"/>
<path d="M12.9268 13.3069C14.0837 13.3069 15.0215 12.3691 15.0215 11.2122C15.0215 10.0553 14.0837 9.11745 12.9268 9.11745C11.7699 9.11745 10.832 10.0553 10.832 11.2122C10.832 12.3691 11.7699 13.3069 12.9268 13.3069Z" fill="white"/>
</svg>
