<svg width="122" height="83" viewBox="0 0 122 83" fill="none" xmlns="http://www.w3.org/2000/svg">
<path d="M117.223 26.8475C117.223 26.8475 116.538 21.9951 114.436 19.8579C111.771 17.054 108.782 17.0398 107.412 16.8753C97.603 16.1632 82.8894 16.1632 82.8894 16.1632H82.8588C82.8588 16.1632 68.1441 16.1632 58.335 16.8753C56.9646 17.0398 53.9778 17.054 51.3111 19.8579C49.2097 21.9951 48.5259 26.8475 48.5259 26.8475C48.5259 26.8475 47.8242 32.5449 47.8242 38.2429V43.5852C47.8242 49.2833 48.5259 54.9816 48.5259 54.9816C48.5259 54.9816 49.2097 59.8333 51.3111 61.9709C53.9778 64.7758 57.4811 64.6863 59.0407 64.9799C64.6486 65.5211 82.873 65.688 82.873 65.688C82.873 65.688 97.603 65.6657 107.412 64.9538C108.782 64.7891 111.77 64.7758 114.435 61.9709C116.537 59.8333 117.222 54.9816 117.222 54.9816C117.222 54.9816 117.923 49.2833 117.923 43.5852V38.2429C117.923 32.5449 117.222 26.8473 117.222 26.8473" fill="black"/>
<path d="M44.2076 56.2415H39.7476V53.636C38.0563 55.5919 36.6228 56.5793 35.0602 56.5793C33.6898 56.5793 32.7371 55.9272 32.261 54.7476C31.9717 54.0307 31.7663 52.9113 31.7663 51.2672V32.3172H36.2255V51.7412C36.3298 52.4048 36.6104 52.6486 37.1766 52.6486C38.0305 52.6486 38.8027 51.9002 39.7476 50.5558V32.3172H44.2076V56.2415ZM24.019 49.1349C24.2533 51.5038 23.525 52.6787 22.1403 52.6787C20.7555 52.6787 20.0279 51.5038 20.2631 49.1349V39.6595C20.0279 37.2906 20.7555 36.1805 22.1403 36.1805C23.5258 36.1805 24.2557 37.2906 24.0211 39.6595L24.0188 49.1349H24.019ZM28.479 40.1335C28.479 37.5771 27.9699 35.6569 27.0707 34.4487C25.8818 32.8117 24.019 32.1416 22.1403 32.1416C20.0154 32.1416 18.397 32.8117 17.2106 34.4487C16.2965 35.6569 15.8062 37.5976 15.8062 40.1539L15.8025 48.6609C15.8025 51.2031 16.2384 52.9595 17.1517 54.1565C18.3389 55.7879 20.2631 56.6519 22.1403 56.6519C24.0188 56.6519 25.9759 55.7879 27.1647 54.1565C28.064 52.9595 28.4787 51.2031 28.4787 48.6609V40.1335H28.479ZM10.873 43.2128V56.2413H6.17783V43.2126C6.17783 43.2126 1.31306 27.241 0.309097 24.2638H5.23856L8.53342 36.7407L11.8116 24.2636H16.7413L10.873 43.2128V43.2128Z" fill="black"/>
<path d="M103.598 38.9403C103.598 36.7257 104.2 36.1219 105.619 36.1219C107.028 36.1219 107.588 36.781 107.588 38.9695V41.5551L103.598 41.5598V38.9403ZM112.057 45.1084L112.056 40.2662C112.056 37.7369 111.562 35.8855 110.673 34.6882C109.483 33.0687 107.791 32.2111 105.659 32.2111C103.488 32.2111 101.796 33.0687 100.568 34.6882C99.6643 35.8855 99.1383 37.8404 99.1383 40.3713V48.6616C99.1383 51.1767 99.717 52.9372 100.619 54.1216C101.849 55.7388 103.541 56.5465 105.764 56.5465C107.984 56.5465 109.728 55.7001 110.904 53.9806C111.421 53.222 111.754 52.3618 111.898 51.4117C111.936 50.9821 112.048 50.0034 112.048 48.622V47.951H107.588C107.588 49.6711 107.597 50.6942 107.557 50.9275C107.314 52.0749 106.705 52.6483 105.659 52.6483C104.2 52.6483 103.583 51.5479 103.598 49.3626V45.1084H112.057V45.1084ZM91.8601 49.3723C91.8601 51.7412 91.3066 52.6493 90.0811 52.6493C89.3817 52.6493 88.5756 52.2861 87.8645 51.5686L87.8692 37.2028C88.5796 36.4955 89.3817 36.1228 90.0811 36.1228C91.3066 36.1228 91.8601 36.8183 91.8601 39.1872V49.3723V49.3723ZM92.355 32.1748C90.7915 32.1748 89.2375 33.1449 87.8645 34.8499L87.8692 24.5002H83.6438V56.2422H87.8692L87.8756 53.8567C89.2954 55.6298 90.8442 56.5468 92.355 56.5468C94.047 56.5468 95.2836 55.6329 95.8512 53.8724C96.1342 52.8693 96.3201 51.3248 96.3201 49.1356V39.6612C96.3201 37.4188 96.0354 35.8855 95.7517 34.9337C95.1848 33.1615 94.047 32.1748 92.355 32.1748V32.1748ZM80.1233 56.2415H75.6643V53.636C73.9723 55.5919 72.5398 56.5793 70.9772 56.5793C69.6065 56.5793 68.6538 55.9272 68.1779 54.7476C67.8877 54.0307 67.6823 52.9113 67.6823 51.2671V32.5546H72.1422V51.7412C72.2465 52.4048 72.5264 52.6486 73.0933 52.6486C73.9472 52.6486 74.7194 51.9002 75.6643 50.5558V32.5546H80.1236V56.2415H80.1233Z" fill="white"/>
<path d="M63.2209 56.2415H58.5267V29.0004H53.5972V24.5059L68.3859 24.5002V29.0006H63.2209V56.2415V56.2415Z" fill="white"/>
</svg>
