<svg width="490" height="153" viewBox="0 0 490 153" fill="none" xmlns="http://www.w3.org/2000/svg">
<g clip-path="url(#clip0_331_2)">
<path d="M70.9301 73.3066C90.1782 73.3066 105.782 60.0176 105.782 43.6249C105.782 27.2322 90.1782 13.9433 70.9301 13.9433C51.6818 13.9433 36.0782 27.2322 36.0782 43.6249C36.0782 60.0176 51.6818 73.3066 70.9301 73.3066Z" fill="#04262A"/>
<path d="M69.3664 0.000755743C67.1432 0.0704152 64.9558 0.0795934 62.8078 0.772898C61.397 1.28135 60.1322 2.18057 58.6305 2.43358C51.0269 4.8531 44.1317 9.24267 38.4946 14.8309C32.0571 21.1842 27.1575 29.0042 23.6287 37.2934C23.008 38.6961 22.4996 40.1396 21.9036 41.5603C21.3641 42.4765 20.7524 43.3584 20.356 44.3532C19.266 46.8899 18.699 49.6047 17.9581 52.2532C17.3658 54.6476 16.8722 57.1669 17.4283 59.6177C17.6563 60.6865 17.2281 61.8646 17.8393 62.8515C18.209 63.7735 17.521 64.7621 16.6571 65.0978C12.8337 67.4733 10.0726 71.1808 7.81457 74.9651C4.50751 80.6298 2.49495 86.9043 1.22547 93.3034C0.902854 95.0197 0.493556 96.9448 1.43422 98.5482C1.83821 99.2236 1.91392 100.193 1.2463 100.737C0.365081 101.607 0.0041985 102.903 0 104.061C0.0219921 105.86 0.0928371 107.65 0.228922 109.431C0.656834 114.696 1.77831 120.008 4.32007 124.69C5.85531 127.4 8.13452 129.846 11.0943 131.004C14.2497 132.155 17.8502 131.598 20.7276 129.963C21.7871 129.347 22.8636 128.514 23.7916 127.641C27.6991 124.027 30.4691 119.357 32.5776 114.55C33.161 113.604 34.9083 113.658 35.2107 114.809C35.3475 116.217 35.1234 117.635 35.2433 119.046C35.5373 126.478 38.3029 133.84 43.0091 139.646C47.9161 145.777 54.9099 150.251 62.6032 152.024C68.7898 153.488 75.2883 153.305 81.3606 151.472C87.5667 149.593 93.2596 145.968 97.588 141.133C101.101 137.246 103.785 132.507 105.213 127.442C106.385 123.442 106.822 119.318 106.58 115.173C106.64 113.895 108.582 113.489 109.248 114.532C110.151 116.531 111.093 118.526 112.253 120.397C113.915 123.084 115.808 125.635 118.178 127.763C119.77 129.186 121.677 130.427 123.7 131.091C126.261 131.996 129.155 131.766 131.589 130.592C134.212 129.385 136.302 127.187 137.538 124.608C140.043 119.991 141.151 114.746 141.624 109.582C141.782 107.338 142.002 105.061 141.649 102.83C141.533 102.131 141.267 101.452 140.731 100.965C140.193 100.451 140.084 99.618 140.471 98.9846C140.819 98.3683 141.229 97.7462 141.191 97.0063C141.222 95.6293 140.773 94.2468 140.58 92.9402C139.008 84.9735 136.079 77.1034 131.096 70.5722C129.337 68.2349 127.173 66.1734 124.621 64.7086C123.906 64.2915 123.829 63.372 124.105 62.6685C124.531 61.6621 124.304 60.5559 124.482 59.5032C124.783 58.1149 124.769 56.6776 124.535 55.2792C124.123 52.9995 123.543 50.7807 122.943 48.5558C122.253 46.0891 121.325 43.6396 119.962 41.433C118.666 38.4094 117.548 35.3011 115.989 32.3981C111.571 23.6707 105.429 15.7111 97.5387 9.81801C93.3055 6.69158 88.5288 4.16212 83.4812 2.54114C82.5043 2.18973 81.4312 2.03899 80.5773 1.41984C78.3436 0.170118 75.7269 0.13105 73.2445 0.0269678C71.952 -0.00505959 70.6589 -3.83229e-05 69.3664 0.000755743Z" fill="url(#paint0_linear_331_2)"/>
<path d="M138.306 103.048C138.101 103.044 137.792 103.23 137.327 103.559C136.246 104.323 132.87 105.712 130.624 106.315C128.009 107.017 119.472 107.029 116.229 106.336C114.387 105.942 110.763 104.912 109.413 104.397C109.172 104.305 109.232 104.812 109.626 106.198C112.808 117.395 118.716 126.034 124.626 128.13C127.231 129.054 130.465 128.26 132.558 126.182C136.243 122.523 138.693 114.034 138.697 104.907C138.697 103.597 138.648 103.055 138.306 103.048Z" fill="url(#paint1_linear_331_2)"/>
<path d="M3.42911 103.006C3.0879 103.006 3.09573 106.309 3.4452 109.972C4.32868 119.227 7.37648 125.817 11.7284 127.88C12.8938 128.434 13.3899 128.514 15.0882 128.43C16.7314 128.349 17.3803 128.175 18.7942 127.433C23.1935 125.123 27.9576 118.448 30.7902 110.628C31.6691 108.201 32.8479 104.32 32.7055 104.32C32.6667 104.32 31.9317 104.565 31.0716 104.865C30.2118 105.164 28.2569 105.704 26.7282 106.064C23.2456 106.886 16.4874 107.203 13.2981 106.694C10.7802 106.292 6.81458 104.915 5.02229 103.819C4.28975 103.372 3.57244 103.006 3.42911 103.006Z" fill="url(#paint2_linear_331_2)"/>
<path d="M23.7572 66.2202C23.471 66.2205 23.1401 66.2386 22.7337 66.267C20.0999 66.454 17.9012 67.6107 15.3439 70.1545C10.4733 74.9997 6.73064 82.761 4.60688 92.4187C3.65387 96.752 3.67819 96.9445 5.34699 98.2107C7.66525 99.9696 11.0031 101.424 13.9543 101.962C16.0007 102.334 22.8536 102.032 25.3994 101.457C29.2592 100.585 33.7099 98.6939 33.9672 97.8172C34.3509 96.5081 34.7056 89.9239 34.5441 87.1007C33.9524 76.7533 30.7439 69.1251 26.019 66.8298C25.0785 66.3729 24.616 66.2196 23.7572 66.2202Z" fill="url(#paint3_linear_331_2)"/>
<path d="M118.791 66.2095C116.737 66.1713 114.876 67.0278 113.229 68.7769C108.938 73.3311 106.571 83.5096 107.437 93.6795C107.609 95.7009 107.811 97.5641 107.887 97.8203C108.255 99.0672 114.992 101.441 119.897 102.052C120.407 102.116 122.491 102.131 124.53 102.088C127.462 102.025 128.623 101.887 130.089 101.426C132.535 100.657 135.068 99.368 136.734 98.0476L138.085 96.9772L137.846 95.4579C135.808 82.5564 129.326 70.4893 122.693 67.2466C121.325 66.578 120.023 66.2328 118.791 66.2095Z" fill="url(#paint4_linear_331_2)"/>
<path d="M70.8901 3.77124C68.1874 3.77522 65.4745 3.98779 63.5074 4.4061C58.0413 5.56856 53.1326 7.65196 48.2866 10.8675C33.7721 20.4989 23.3797 39.1074 20.7731 60.1293L20.5972 61.5433L21.9997 61.4062C25.647 61.0491 29.0011 62.3628 31.8747 65.2744C34.7515 68.1887 36.6841 71.876 37.9417 76.8506C39.5975 83.4012 39.8176 91.1604 38.7337 98.8159C45.4282 87.4679 57.6789 80.4936 70.924 80.4902C84.1133 80.4914 96.3229 87.4052 103.039 98.6767C102.446 94.0243 102.35 84.5637 102.906 81.4504C104.294 73.6713 106.369 68.9182 109.965 65.2744C112.841 62.3603 116.192 61.0491 119.848 61.4068L121.259 61.5448L121.084 60.2621C119.525 48.8666 116.316 39.0189 111.39 30.5096C103.135 16.2481 91.7394 7.27234 78.2176 4.38308C76.2868 3.97054 73.5928 3.76723 70.8901 3.77124ZM71.0238 18.1096C72.6621 18.1123 74.3173 18.2451 75.9768 18.5123C88.8851 20.591 98.988 30.2481 101.807 43.2069C102.442 46.1224 102.459 52.2718 101.84 54.7449C100.625 59.602 97.5097 62.6605 92.0809 64.3233C87.0077 65.8772 74.995 66.5121 61.8223 65.9234C47.8018 65.2964 41.9474 62.2878 40.0718 54.7449C39.1032 50.8495 39.5572 44.0554 41.0873 39.5269C45.3863 26.8021 57.2573 18.3852 70.323 18.1166C70.5563 18.1113 70.7899 18.1096 71.0238 18.1096Z" fill="url(#paint5_linear_331_2)"/>
<path d="M70.9242 140.524C83.7071 140.524 94.0695 130.235 94.0695 117.543C94.0695 104.85 83.7071 94.561 70.9242 94.561C58.1417 94.561 47.7793 104.85 47.7793 117.543C47.7793 130.235 58.1417 140.524 70.9242 140.524Z" fill="#7FF73F"/>
<path d="M70.9292 85.2078C62.2929 85.2078 54.01 88.6145 47.9032 94.6782C41.7964 100.742 38.3654 108.966 38.3654 117.542C38.3654 126.117 41.7964 134.341 47.9032 140.405C54.01 146.469 62.2929 149.875 70.9292 149.875C79.5658 149.875 87.8484 146.469 93.9555 140.405C100.062 134.341 103.493 126.117 103.493 117.542C103.493 108.966 100.062 100.742 93.9555 94.6782C87.8484 88.6145 79.5658 85.2078 70.9292 85.2078ZM70.9492 99.009C73.1345 99.0485 75.297 100.108 76.4628 101.988C80.3535 109.135 83.8242 116.527 87.5562 123.767C89.6395 127.604 86.914 132.835 82.5471 133.337C75.0168 133.49 67.4607 133.429 59.9304 133.365C55.6483 133.295 52.369 128.482 54.0279 124.536C56.595 118.818 59.6438 113.297 62.3952 107.655C64.1382 104.533 65.203 100.272 69.1294 99.2196C69.7236 99.066 70.3372 98.998 70.9492 99.009ZM71.0346 102.26C69.9026 102.243 68.7707 102.723 68.1467 103.704C64.4966 110.469 61.1945 117.449 57.6776 124.297C56.1497 126.248 56.9405 129.601 59.559 130.042C66.5263 130.337 73.5422 130.085 80.5273 130.169C82.9231 130.674 85.5287 128.554 84.9145 126.066C82.3573 120.326 79.2808 114.783 76.5217 109.12C75.0831 106.909 74.6532 103.754 72.1471 102.441C71.789 102.325 71.4118 102.265 71.0346 102.26Z" fill="url(#paint6_linear_331_2)"/>
<path d="M70.9283 88.3636C67.0693 88.3633 63.2482 89.1179 59.6832 90.5843C56.1182 92.0503 52.879 94.1994 50.1504 96.9087C47.4215 99.618 45.2572 102.834 43.7804 106.374C42.3036 109.914 41.5437 113.708 41.5437 117.54C41.5434 121.371 42.3036 125.165 43.7801 128.705C45.2569 132.245 47.4212 135.462 50.1498 138.171C52.8784 140.881 56.1179 143.03 59.6829 144.496C63.2482 145.962 67.0693 146.717 70.9283 146.717C74.7869 146.717 78.608 145.962 82.173 144.496C85.738 143.029 88.9772 140.88 91.7058 138.171C94.4341 135.461 96.5987 132.245 98.0752 128.705C99.552 125.165 100.312 121.371 100.312 117.54C100.312 109.802 97.216 102.381 91.7055 96.909C86.195 91.4374 78.7211 88.3636 70.9283 88.3636ZM70.9283 91.506C74.3712 91.506 77.7806 92.1792 80.9615 93.4876C84.1425 94.7958 87.0329 96.7135 89.4675 99.1309C91.9024 101.549 93.8335 104.419 95.1512 107.577C96.469 110.736 97.147 114.121 97.147 117.54C97.147 120.958 96.469 124.344 95.1512 127.502C93.8335 130.661 91.9024 133.531 89.4675 135.948C87.0329 138.366 84.1425 140.283 80.9615 141.592C77.7806 142.9 74.3712 143.573 70.9283 143.573C67.485 143.573 64.0757 142.9 60.8947 141.592C57.7137 140.283 54.8233 138.366 52.3887 135.948C49.9538 133.531 48.0228 130.661 46.705 127.502C45.3876 124.344 44.7093 120.958 44.7093 117.54C44.7093 114.121 45.3876 110.736 46.705 107.577C48.0228 104.418 49.9538 101.549 52.3887 99.1309C54.8233 96.7135 57.7137 94.7958 60.8947 93.4876C64.0757 92.1792 67.485 91.506 70.9283 91.506Z" fill="#4AC308"/>
<path d="M50.9239 53.5234C49.6065 50.3741 49.2958 44.9906 50.6759 40.2733C52.0562 35.5557 55.1271 31.5067 58.069 29.621C61.0105 27.7352 63.822 28.0127 65.5598 30.8433C67.2973 33.6738 67.9615 39.057 67.8884 43.8563C67.8154 48.6556 67.0049 52.871 65.0489 55.2134C63.0926 57.5562 59.9902 58.0259 57.2773 57.8053C54.5644 57.5843 52.2414 56.6728 50.9239 53.5234Z" fill="#55D108"/>
<path d="M90.944 53.5234C92.2615 50.3741 92.5721 44.9906 91.1921 40.273C89.8118 35.5557 86.7408 31.5067 83.7992 29.621C80.8574 27.7352 78.0459 28.0127 76.3081 30.8433C74.5706 33.6738 73.9065 39.057 73.9798 43.8563C74.0529 48.6556 74.8631 52.871 76.8191 55.2134C78.7754 57.5562 81.8778 58.0259 84.5906 57.8053C87.3035 57.5843 89.6265 56.6728 90.944 53.5234Z" fill="#55D108"/>
<path d="M70.7921 15.2703C70.4947 15.2717 70.1973 15.2756 69.9002 15.2828C57.5775 15.5753 45.7848 23.0841 40.2956 34.0315C37.3546 39.6478 36.3669 46.1118 36.8015 52.3829C37.1349 56.8723 39.1075 61.3983 42.8682 64.0755C47.5189 67.481 53.4775 68.1196 59.0589 68.6352C65.4064 69.0746 71.7788 68.9632 78.1362 68.8953C82.8818 68.6713 87.6656 68.3378 92.296 67.2334C97.093 65.9914 101.603 62.9231 103.644 58.3193C105.392 54.5329 105.219 50.2483 105.05 46.1858C104.184 33.728 95.424 22.4047 83.8538 17.7376C79.7218 16.0587 75.2517 15.2583 70.7921 15.2703ZM71.0284 18.1107C72.667 18.1134 74.3219 18.2457 75.9817 18.5129C88.89 20.5915 98.9926 30.2486 101.812 43.2072C102.447 46.1228 102.464 52.2725 101.845 54.7456C100.63 59.6024 97.5143 62.6609 92.0855 64.3237C87.0123 65.8778 74.9999 66.5128 61.8272 65.924C47.8067 65.2971 41.952 62.2885 40.0764 54.7456C39.1078 50.8502 39.5621 44.0561 41.0919 39.5276C45.3909 26.8027 57.2619 18.3858 70.3276 18.1172C70.5609 18.1119 70.7945 18.1107 71.0284 18.1107Z" fill="#166F7B"/>
<path d="M54.8926 46.329C55.0899 43.541 56.583 38.9324 58.1205 36.6637C59.6583 34.395 61.2392 34.4663 62.0515 37.0636C62.8636 39.6612 62.9061 44.784 62.7335 47.6472C62.5607 50.5105 62.173 51.1139 61.1637 51.3049C60.1544 51.4958 58.5232 51.2743 57.1586 50.6797C55.794 50.0854 54.6957 49.1173 54.8926 46.329Z" fill="#7FF73F"/>
<path d="M69.9168 3.13198C68.6724 3.13332 67.4745 3.18185 66.4517 3.26983C63.1782 3.55147 61.6947 4.24484 62.5678 5.91345C63.4405 7.58207 66.6705 10.2248 70.0746 10.6146C70.3591 10.6471 70.6444 10.6639 70.9301 10.6663C70.9369 10.6663 70.9471 10.6663 70.9471 10.6663C71.2327 10.6636 71.5181 10.6471 71.8026 10.6146C75.2067 10.2248 78.4367 7.58207 79.3094 5.91345C80.1825 4.24484 78.6989 3.55147 75.4255 3.26983C74.4026 3.18185 73.2048 3.13338 71.9603 3.13198C71.6251 3.13066 71.2864 3.13464 70.9471 3.14174C70.9403 3.14162 70.9301 3.14174 70.9301 3.14174C70.5908 3.13476 70.2521 3.1306 69.9168 3.13198Z" fill="#2A929F"/>
<path d="M21.323 51.7645C21.0023 52.9585 20.7394 54.1198 20.5602 55.1238C19.987 58.3361 20.2775 59.9387 22.1267 59.5332C23.9758 59.1278 27.3826 56.714 28.6429 53.55C28.7481 53.2856 28.8383 53.016 28.9147 52.7428L28.9189 52.7266C28.9901 52.4521 29.048 52.1739 29.09 51.8927C29.5918 48.527 27.8569 44.7452 26.4596 43.4759C25.0624 42.2069 24.0039 43.4505 22.8827 46.5169C22.5324 47.4753 22.1752 48.6115 21.8517 49.8049C21.7637 50.1259 21.68 50.4517 21.5989 50.7792L21.5947 50.7951C21.5001 51.1188 21.4084 51.4426 21.323 51.7645Z" fill="#2A929F"/>
<path d="M120.544 51.7645C120.865 52.9585 121.128 54.1198 121.307 55.1238C121.88 58.3361 121.59 59.9387 119.741 59.5332C117.892 59.1278 114.485 56.714 113.225 53.55C113.119 53.2856 113.029 53.016 112.953 52.7428L112.949 52.7266C112.877 52.4521 112.819 52.1739 112.777 51.8927C112.276 48.527 114.01 44.7452 115.408 43.4759C116.805 42.2069 117.863 43.4505 118.985 46.5169C119.335 47.4753 119.692 48.6115 120.016 49.8049C120.104 50.1259 120.187 50.4517 120.269 50.7792L120.273 50.7951C120.367 51.1188 120.459 51.4426 120.544 51.7645Z" fill="#2A929F"/>
<path d="M23.7551 66.2202C23.4689 66.2205 23.1373 66.2386 22.7309 66.267C20.0972 66.454 17.8984 67.6107 15.3412 70.1545C13.7434 71.7438 12.2683 73.6493 10.9306 75.8301C13.4013 74.4443 17.0091 72.6682 20.8512 72.9862C24.9249 73.3234 29.2454 76.0199 31.5905 81.4743C33.2497 85.3333 33.9188 90.5677 34.3333 94.9193C34.5324 92.3844 34.647 88.9441 34.5413 87.1004C33.9496 76.7533 30.7417 69.1254 26.0168 66.8301C25.0763 66.3732 24.6139 66.2196 23.7551 66.2202Z" fill="#126A76"/>
<path d="M118.086 66.2202C118.372 66.2205 118.704 66.2386 119.11 66.267C121.744 66.454 123.943 67.6107 126.5 70.1545C128.098 71.7438 129.573 73.6493 130.91 75.8301C128.44 74.4443 124.832 72.6682 120.99 72.9862C116.916 73.3234 112.596 76.0199 110.251 81.4743C108.591 85.3333 107.922 90.5677 107.508 94.9193C107.309 92.3844 107.194 88.9441 107.3 87.1004C107.892 76.7533 111.099 69.1254 115.824 66.8301C116.765 66.3732 117.227 66.2196 118.086 66.2202Z" fill="#126A76"/>
<path d="M86.9775 46.329C86.7802 43.5407 85.2874 38.9324 83.7496 36.6637C82.2121 34.395 80.6309 34.4663 79.8188 37.0636C79.0065 39.6612 78.9643 44.784 79.1369 47.6472C79.3094 50.5105 79.6974 51.1139 80.7067 51.3049C81.716 51.4958 83.3472 51.2743 84.7118 50.6797C86.0764 50.0854 87.1747 49.1173 86.9775 46.329Z" fill="#7FF73F"/>
<path fill-rule="evenodd" clip-rule="evenodd" d="M434.787 98.7557C434.787 102.466 434.177 106.015 432.957 109.404C431.736 112.793 429.881 115.848 427.388 118.569C424.922 121.29 421.822 123.454 418.084 125.062C414.349 126.645 410.062 127.437 405.23 127.437C400.398 127.437 396.074 126.645 392.265 125.062C388.453 123.479 385.276 121.327 382.733 118.606C380.194 115.86 378.274 112.755 376.979 109.292C375.682 105.805 375.035 102.218 375.035 98.532C375.035 94.8462 375.66 91.2725 376.906 87.8095C378.175 84.3462 380.07 81.1928 382.585 78.3486C385.125 75.4792 388.253 73.19 391.963 71.4834C393.932 70.593 395.951 69.9128 398.019 69.4427C400.111 68.9482 402.315 68.7007 404.632 68.7007C409.341 68.7007 413.575 69.5171 417.338 71.1496C421.123 72.7821 424.3 74.9957 426.867 77.791C429.431 80.5615 431.376 83.6907 432.695 87.1785C433.366 88.9842 433.878 90.8021 434.226 92.6326C434.602 94.4383 434.787 96.2566 434.787 98.0871V98.7557ZM415.508 97.4561C415.508 94.2404 415.008 91.5567 414.013 89.4049C413.015 87.2529 411.72 85.6693 410.127 84.6549C408.555 83.616 406.925 83.0974 405.23 83.0974C403.187 83.0974 401.356 83.6411 399.735 84.7296C398.117 85.818 396.823 87.4998 395.849 89.7755C394.903 92.0264 394.431 94.7973 394.431 98.0871C394.431 103.059 395.402 106.905 397.347 109.626C399.288 112.323 401.917 113.671 405.23 113.671C408.518 113.671 411.048 112.262 412.817 109.442C414.611 106.597 415.508 102.601 415.508 97.4561ZM210.359 85.4331H226.688V70.5532H214.581H175.42V85.4331H191.675V86.7314V125.617H210.359V124.318V85.4331ZM233.371 125.617H252.056V109.402V70.5532H233.371V86.7314V125.617ZM313.276 90.1452C313.276 92.4705 312.802 94.77 311.856 97.0458C310.934 99.2967 309.514 101.313 307.595 103.094C305.702 104.875 303.324 106.285 300.458 107.325C297.594 108.363 294.342 108.882 290.705 108.882H280.429V125.617H261.745V86.7314V70.5532H290.071C293.832 70.5532 297.132 71.0982 299.972 72.1866C301.467 72.7307 302.813 73.3617 304.009 74.0792C305.204 74.7965 306.313 75.6371 307.334 76.6016C309.301 78.4321 310.783 80.5349 311.782 82.9095C312.777 85.2596 313.276 87.6715 313.276 90.1452ZM294.89 89.5142C294.89 87.9557 294.368 86.5956 293.322 85.4331C292.275 84.2706 290.805 83.6895 288.912 83.6895H280.429V95.043H289.473C291.141 95.043 292.462 94.4989 293.434 93.4108C294.405 92.2976 294.89 90.9986 294.89 89.5142ZM369.099 117.566C370.569 115.191 371.306 112.692 371.306 110.071C371.306 109.081 371.204 108.14 371.007 107.25C370.807 106.335 370.52 105.432 370.147 104.542C369.401 102.761 368.267 101.19 366.745 99.8298C365.226 98.4693 363.447 97.4797 361.404 96.8609C363.595 95.8221 365.29 94.3628 366.486 92.4827C367.706 90.5782 368.317 88.4622 368.317 86.1372C368.317 83.5646 367.518 81.0787 365.925 78.679C364.332 76.2549 361.928 74.3017 358.714 72.8176C355.5 71.3084 351.573 70.5532 346.942 70.5532H319.215V86.7314V125.617H351.127C355.512 125.617 359.235 124.874 362.301 123.39C365.389 121.881 367.654 119.94 369.099 117.566ZM349.968 85.5062C350.988 86.2981 351.499 87.2507 351.499 88.3636C351.499 89.5264 350.939 90.5411 349.82 91.4068C348.698 92.2477 347.117 92.6675 345.074 92.6675H337.9V84.3192H345.709C347.527 84.3192 348.948 84.7149 349.968 85.5062ZM352.06 104.912C353.059 105.877 353.555 106.99 353.555 108.251C353.555 109.439 353.096 110.442 352.174 111.258C351.278 112.049 349.931 112.445 348.137 112.445H337.9V103.465H348.137C349.78 103.465 351.09 103.948 352.06 104.912ZM473.429 85.4331H489.76V70.5532H477.651H438.488V85.4331H454.745V86.7314V125.617H473.429V124.318V85.4331Z" fill="url(#paint7_linear_331_2)"/>
<g opacity="0.991228">
<path d="M191.952 55.897L193.379 59.898H198.192L190.804 40.1983H185.683L178.212 59.898H182.858L184.284 55.897H191.952ZM185.74 51.8961L188.174 45.0882L190.552 51.8961H185.74Z" fill="#E5E6E9"/>
<path d="M207.648 60.3429C212.014 60.3429 215.511 57.7309 215.511 52.785V40.1983H211.09V52.4236C211.09 54.8132 209.747 56.0081 207.648 56.0081C205.55 56.0081 204.206 54.8132 204.206 52.4236V40.1983H199.785V52.785C199.785 57.7309 203.283 60.3429 207.648 60.3429Z" fill="#E5E6E9"/>
<path d="M225.636 52.5625L229.19 59.898H234.059L230.03 51.9236C232.464 51.0622 233.947 49.0334 233.947 46.366C233.947 42.8648 231.428 40.1983 227.51 40.1983H219.648V59.898H224.069V52.5625H225.636ZM226.672 48.7841H224.069V44.0043H226.672C228.49 44.0043 229.469 44.9211 229.469 46.3936C229.469 47.7828 228.49 48.7841 226.672 48.7841Z" fill="#E5E6E9"/>
<path d="M235.947 50.061C235.947 56.2851 240.676 60.3135 246.273 60.3135C251.841 60.3135 256.57 56.2851 256.57 50.061C256.57 43.8091 251.841 39.78 246.273 39.78C240.676 39.78 235.947 43.8091 235.947 50.061ZM240.536 50.0142C240.536 45.9022 243.502 44.0402 246.273 44.0402C249.015 44.0402 251.982 45.9022 251.982 50.0142C251.982 54.1265 249.015 55.9604 246.273 55.9604C243.502 55.9604 240.536 54.1265 240.536 50.0142Z" fill="#E5E6E9"/>
<path d="M265.723 52.5625L269.277 59.898H274.146L270.115 51.9236C272.55 51.0622 274.034 49.0334 274.034 46.366C274.034 42.8648 271.515 40.1983 267.598 40.1983H259.734V59.898H264.156V52.5625H265.723ZM266.758 48.7841H264.156V44.0043H266.758C268.577 44.0043 269.556 44.9211 269.556 46.3936C269.556 47.7828 268.577 48.7841 266.758 48.7841Z" fill="#E5E6E9"/>
<path d="M289.136 55.897L290.563 59.898H295.376L287.989 40.1983H282.868L275.396 59.898H280.042L281.468 55.897H289.136ZM282.924 51.8961L285.358 45.0882L287.736 51.8961H282.924Z" fill="#E5E6E9"/>
<path d="M313.85 60.3135C320.007 60.3135 322.639 56.1461 323.28 53.423L319.055 52.2278C318.663 53.6455 317.292 55.9237 313.85 55.9237C310.885 55.9237 308.142 53.7838 308.142 50.0886C308.142 45.9484 311.135 44.0585 313.794 44.0585C317.292 44.0585 318.552 46.3651 318.861 47.7268L323.03 46.4202C322.386 43.5864 319.754 39.78 313.794 39.78C308.253 39.78 303.553 43.9477 303.553 50.0886C303.553 56.2288 308.143 60.3135 313.85 60.3135Z" fill="#E5E6E9"/>
<path d="M324.981 50.061C324.981 56.2851 329.708 60.3135 335.308 60.3135C340.877 60.3135 345.604 56.2851 345.604 50.061C345.604 43.8091 340.877 39.78 335.308 39.78C329.708 39.78 324.981 43.8091 324.981 50.061ZM329.57 50.0142C329.57 45.9022 332.537 44.0402 335.308 44.0402C338.048 44.0402 341.015 45.9022 341.015 50.0142C341.015 54.1265 338.048 55.9604 335.308 55.9604C332.537 55.9604 329.57 54.1265 329.57 50.0142Z" fill="#E5E6E9"/>
<path d="M366.902 59.898H371.238V40.1983H365.167L359.99 53.5078L354.532 40.1983H348.769V59.898H352.966V47.005L358.144 59.898H361.725L366.902 46.8388V59.898Z" fill="#E5E6E9"/>
<path d="M393.686 59.898H398.025V40.1983H391.951L386.776 53.5078L381.319 40.1983H375.553V59.898H379.75V47.005L384.927 59.898H388.508L393.686 46.8388V59.898Z" fill="#E5E6E9"/>
<path d="M410.035 60.3429C414.398 60.3429 417.896 57.7309 417.896 52.785V40.1983H413.477V52.4236C413.477 54.8132 412.133 56.0081 410.035 56.0081C407.936 56.0081 406.592 54.8132 406.592 52.4236V40.1983H402.17V52.785C402.17 57.7309 405.668 60.3429 410.035 60.3429Z" fill="#E5E6E9"/>
<path d="M434.596 59.898H439.271V40.1983H434.849V52.1736L427.406 40.1983H422.032V59.898H426.426V46.9499L434.596 59.898Z" fill="#E5E6E9"/>
<path d="M443.546 59.898H448.023V40.1983H443.546V59.898Z" fill="#E5E6E9"/>
<path d="M461.204 44.3933H467.334V40.1983H450.683V44.3933H456.782V59.898H461.204V44.3933Z" fill="#E5E6E9"/>
<path d="M468.705 40.1983L475.59 51.6736V59.898H480.009V51.6736L486.977 40.1983H482.052L477.938 47.505L473.882 40.1983H468.705Z" fill="#E5E6E9"/>
</g>
</g>
<defs>
<linearGradient id="paint0_linear_331_2" x1="113.385" y1="3.43274" x2="24.5742" y2="167.366" gradientUnits="userSpaceOnUse">
<stop stop-color="#05353C"/>
<stop offset="1" stop-color="#031D20"/>
</linearGradient>
<linearGradient id="paint1_linear_331_2" x1="128.157" y1="129.017" x2="123.943" y2="94.0778" gradientUnits="userSpaceOnUse">
<stop stop-color="#08555E"/>
<stop offset="1" stop-color="#08555E" stop-opacity="0"/>
</linearGradient>
<linearGradient id="paint2_linear_331_2" x1="13.1767" y1="137.059" x2="20.7618" y2="92.5489" gradientUnits="userSpaceOnUse">
<stop stop-color="#08555E"/>
<stop offset="1" stop-color="#08555E" stop-opacity="0"/>
</linearGradient>
<linearGradient id="paint3_linear_331_2" x1="15.7848" y1="115.941" x2="28.3922" y2="68.5547" gradientUnits="userSpaceOnUse">
<stop stop-color="#0A5C67"/>
<stop offset="1" stop-color="#33A2B0"/>
</linearGradient>
<linearGradient id="paint4_linear_331_2" x1="146.244" y1="108.551" x2="113.722" y2="73.6812" gradientUnits="userSpaceOnUse">
<stop stop-color="#0A5C67"/>
<stop offset="1" stop-color="#309DAB"/>
</linearGradient>
<linearGradient id="paint5_linear_331_2" x1="70.2984" y1="106.613" x2="70.2984" y2="9.95482" gradientUnits="userSpaceOnUse">
<stop stop-color="#0A5C67"/>
<stop offset="1" stop-color="#309CAA"/>
</linearGradient>
<linearGradient id="paint6_linear_331_2" x1="61.5018" y1="159.586" x2="91.4244" y2="81.5023" gradientUnits="userSpaceOnUse">
<stop stop-color="#249108"/>
<stop offset="1" stop-color="#63E308"/>
</linearGradient>
<linearGradient id="paint7_linear_331_2" x1="577.51" y1="83.9991" x2="117.867" y2="134.115" gradientUnits="userSpaceOnUse">
<stop stop-color="#7AF338"/>
<stop offset="1" stop-color="#1D7B74"/>
</linearGradient>
<clipPath id="clip0_331_2">
<rect width="490" height="153" fill="white"/>
</clipPath>
</defs>
</svg>
