<svg width="351" height="114" viewBox="0 0 351 114" fill="none" xmlns="http://www.w3.org/2000/svg">
<path d="M69.381 101.929C69.757 102.575 69.9669 103.304 69.9924 104.05C70.0179 104.797 69.8581 105.538 69.5271 106.208C69.1397 107.597 68.2778 108.808 67.0896 109.633C66.5145 110.115 65.985 110.542 65.5103 110.851C65.0227 111.183 64.4912 111.445 63.931 111.632C62.7849 112.221 61.4774 112.421 60.2063 112.204C59.666 112.209 59.1299 112.11 58.627 111.914C58.1309 111.716 57.6516 111.479 57.1937 111.205C56.719 110.914 56.2169 110.614 55.6874 110.296C55.1701 109.965 54.6704 109.607 54.1902 109.224L52.6109 107.943C52.1308 107.567 51.6985 107.134 51.3237 106.653C50.8621 106.205 50.4292 105.729 50.0274 105.227C49.644 104.754 49.2605 104.318 48.8862 103.946L47.1609 102.129L19.6367 73.4008L20.084 102.074V103.355C20.0823 103.765 20.0333 104.174 19.9379 104.573C19.8466 105 19.7462 105.481 19.6549 105.926C19.4076 107.044 19.0719 108.141 18.6507 109.206C18.4847 109.728 18.2181 110.213 17.8656 110.633C17.5278 111.014 17.1718 111.396 16.7884 111.777C15.7672 112.713 14.4501 113.266 13.0637 113.34C11.8035 113.799 10.4556 113.97 9.11996 113.84C7.85421 113.678 6.62189 113.32 5.46832 112.777C4.3724 112.064 3.47698 111.086 2.86653 109.933C2.75093 109.679 2.60701 109.438 2.43747 109.215C2.36769 108.875 2.26998 108.541 2.14533 108.216C1.60789 107.369 1.31132 106.392 1.2872 105.39C1.19591 104.818 1.12288 104.3 1.07723 103.819C1.03159 103.337 0.958554 102.828 0.858134 102.256C0.767609 101.881 0.721649 101.497 0.721198 101.111V99.9391C0.804076 99.5383 0.849913 99.1308 0.858134 98.7217V97.5133L0.721198 86.2384L0.575132 65.2693C0.575132 59.2124 0.43211 52.6528 0.146065 45.5904C0.0486884 42.1622 0 39.1186 0 36.4596C0 33.8006 0.0486884 30.8055 0.146065 27.4742V26.9018C0.332795 25.8918 0.427513 24.867 0.429067 23.84C0.425629 22.8569 0.474385 21.8743 0.575132 20.8964C0.580617 18.9336 1.00701 16.9946 1.82582 15.2089C2.43035 13.7679 3.50429 12.5711 4.87493 11.811C5.55437 11.3796 6.30554 11.0719 7.0933 10.9025C7.8145 10.7571 8.5996 10.5936 9.45773 10.4028C10.1057 10.3997 10.7529 10.4484 11.3931 10.5481L13.2189 10.8298C14.4881 11.0336 15.6777 11.5769 16.6606 12.4015C16.9629 12.7033 17.2294 13.0386 17.4548 13.4009C17.7221 13.8504 17.9365 14.329 18.0938 14.8273C18.6508 15.8406 18.9926 16.957 19.098 18.1072C19.1893 18.6795 19.2624 19.2428 19.3171 19.8152C19.3719 20.3876 19.3902 21.0054 19.3902 21.6323V27.4833L19.5271 44.8818C21.0608 43.5553 22.558 42.1561 24.046 40.7479C25.534 39.3397 26.9856 37.8043 28.4188 36.2052C30.9932 33.5402 33.5494 30.9478 36.0873 28.4281C38.6252 25.9085 41.1691 23.3979 43.7192 20.8964L44.1483 20.4694C44.906 19.7062 45.7002 18.9703 46.5127 18.2525L48.8771 16.1901C50.2921 14.5814 52.1284 13.3956 54.1811 12.765C55.5975 11.9082 57.2702 11.5708 58.91 11.811C59.7204 11.8952 60.5157 12.0877 61.2744 12.3834C62.0085 12.6777 62.7043 13.059 63.3467 13.519C63.8022 13.9562 64.2938 14.3543 64.8165 14.7092C65.2827 15.0251 65.675 15.4372 65.9668 15.9176C66.7933 16.7115 67.3025 17.7767 67.4 18.9158C67.4073 19.9114 67.1986 20.8968 66.7884 21.8049L65.9303 23.2313C65.6296 23.7297 65.2941 24.2063 64.926 24.6577C64.4513 25.2301 64.0131 25.748 63.6388 26.2295C63.2646 26.711 62.8264 27.138 62.3517 27.6559C61.9895 28.1012 61.5927 28.5174 61.1649 28.9006C60.7236 29.2918 60.3174 29.7204 59.9507 30.1816L58.1249 31.9987L31.3219 59.2548L35.8317 63.7975C37.411 65.3602 38.9173 66.8865 40.3506 68.3402L44.3582 72.474C45.5267 73.7642 46.5583 74.8272 47.4712 75.6903C50.0274 78.3493 52.5014 80.981 54.8932 83.5855C57.285 86.1899 59.6251 88.8277 61.9134 91.4988L62.3517 91.9258C63.1094 92.689 63.8306 93.4794 64.497 94.2789C65.1634 95.0785 65.7842 95.878 66.3228 96.6321C67.7172 98.1552 68.7609 99.9629 69.381 101.929Z" fill="#171717"/>
<path d="M100.612 100.793C100.521 101.266 100.448 101.702 100.402 102.147C100.349 102.596 100.325 103.048 100.329 103.501L99.4708 106.499C99.3564 106.753 99.2091 106.991 99.0326 107.207L98.6036 108.061C98.0615 109.183 97.1542 110.089 96.0292 110.633C93.7735 111.77 91.1851 112.073 88.7259 111.487C87.3266 111.382 85.9851 110.888 84.8552 110.06C83.9576 109.469 83.2581 108.624 82.8468 107.634C82.4721 106.712 82.1848 105.757 81.9886 104.782C81.7231 103.952 81.5786 103.09 81.5596 102.22V22.3409C81.5596 21.6777 81.5596 21.078 81.6326 20.5238C81.674 20.0386 81.7441 19.5562 81.8426 19.0792C81.9036 18.4934 82.0104 17.9132 82.1621 17.3439C82.299 16.8715 82.4725 16.3445 82.6642 15.7813C82.9191 14.8664 83.4712 14.0614 84.2344 13.4917C85.1807 12.7245 86.3208 12.231 87.53 12.0653C88.1268 11.8934 88.7378 11.7748 89.3558 11.711C89.9218 11.6656 90.5882 11.6383 91.3551 11.6383C92.9396 11.7029 94.4936 12.0927 95.9196 12.7831C97.1969 13.484 98.2049 14.5862 98.7861 15.9175C99.6653 17.544 100.156 19.3503 100.219 21.1961C100.311 22.1501 100.384 23.5765 100.429 25.4754C100.475 27.3742 100.502 28.8097 100.502 29.7546V30.3269C100.697 33.3554 100.795 36.2809 100.795 39.1034C100.795 41.9017 100.74 44.9726 100.648 48.2978C100.557 51.6231 100.648 54.6576 100.575 57.6376C100.502 60.6176 100.502 63.6067 100.502 66.5594V96.5412C100.502 96.8998 100.527 97.2579 100.575 97.6132C100.624 97.9655 100.648 98.3207 100.648 98.6762C100.698 99.3816 100.686 100.09 100.612 100.793Z" fill="#171717"/>
<path d="M176.192 49.7243C176.582 50.9698 176.678 52.2879 176.475 53.5765C176.273 55.0537 175.94 56.51 175.48 57.9284C175.004 59.3825 174.453 60.8109 173.827 62.2076C173.206 63.5886 172.659 64.797 172.175 65.8418C169.692 70.8811 167.352 75.8266 165.155 80.6782C162.958 85.5298 160.377 90.8084 157.413 96.514C156.847 97.6497 156.199 99.0125 155.478 100.575C154.769 102.129 153.98 103.645 153.113 105.118C152.289 106.541 151.355 107.899 150.32 109.179C149.456 110.308 148.356 111.238 147.097 111.905C146.246 112.449 145.239 112.701 144.231 112.622C143.774 112.696 143.306 112.669 142.86 112.545C142.414 112.422 142 112.203 141.647 111.905C140.388 111.238 139.289 110.308 138.425 109.179C137.39 107.899 136.456 106.541 135.631 105.118C134.773 103.637 133.979 102.12 133.267 100.575C132.555 99.0307 131.906 97.6497 131.331 96.514C130.181 94.3244 129.113 92.2802 128.109 90.3814C127.105 88.4825 126.046 86.4111 124.95 84.1761C123.855 81.9411 122.631 79.3699 121.298 76.4717C119.966 73.5734 118.386 70.0301 116.57 65.8418C116.086 64.7061 115.565 63.5159 114.99 62.2803C114.393 60.9851 113.89 59.6492 113.484 58.2828C113.057 56.8632 112.77 55.4057 112.626 53.9309C112.481 52.4321 112.555 50.9204 112.845 49.4427C113.093 48.0698 113.861 46.844 114.99 46.0175C116.134 45.1641 117.457 44.58 118.861 44.3094C120.282 44.0214 121.749 44.0431 123.161 44.373C124.469 44.6642 125.654 45.3495 126.557 46.3355C127.53 47.3552 128.351 48.5087 128.994 49.7607C129.752 51.1871 130.501 52.6862 131.213 54.3034C131.925 55.9206 132.6 57.4378 133.221 59.0096C133.842 60.5813 134.435 61.9351 135.047 63.0707C136.389 65.7964 137.886 68.8309 139.611 72.0562C141.337 75.2815 142.788 78.2887 144.121 81.0416C145.08 78.8611 145.947 77.0259 146.705 75.5904C147.462 74.1549 148.211 72.6649 148.923 71.2385C149.635 69.8121 150.402 68.2403 151.214 66.5323C152.027 64.8242 153.04 62.6346 154.3 59.9726C155.45 57.5014 156.622 55.0786 157.815 52.7043C158.917 50.3819 160.36 48.2354 162.096 46.3355C162.979 45.3782 164.13 44.7071 165.401 44.4094C166.794 44.0829 168.243 44.0676 169.643 44.3645C171.043 44.6614 172.36 45.2631 173.499 46.1265C174.723 47.0458 175.657 48.2941 176.192 49.7243Z" fill="#171717"/>
<path d="M268.303 92.6708C269.457 92.3838 270.633 92.1924 271.818 92.0984C272.935 91.9948 274.061 92.1407 275.114 92.5254C276.124 92.9186 276.995 93.6016 277.615 94.4879C278.345 95.6095 278.697 96.9334 278.619 98.2674C278.619 99.4157 278.324 100.545 277.761 101.547C277.189 102.597 276.466 103.558 275.616 104.4C274.756 105.254 273.793 105.998 272.749 106.617C271.785 107.19 270.778 107.688 269.737 108.107C266.674 109.419 263.466 110.361 260.178 110.914C256.517 111.59 252.787 111.831 249.068 111.632C243.983 111.46 238.966 110.421 234.234 108.561C229.612 106.8 225.706 103.567 223.123 99.3667C220.625 95.0976 219.119 90.3263 218.714 85.4025C218.217 80.5489 218.457 75.6484 219.426 70.8659C220.201 66.033 222.037 61.4294 224.803 57.3832C227.237 54.007 230.345 51.1676 233.932 49.0429C238.344 46.5377 243.332 45.2106 248.411 45.1907C253.695 45.0773 258.937 46.1486 263.748 48.3251C266.972 49.7373 269.927 51.6921 272.484 54.1034C275.081 56.5529 277.09 59.5525 278.364 62.8799C278.787 63.8868 279.093 64.9384 279.276 66.0143C279.52 67.3118 279.688 68.6223 279.779 69.9392C279.87 71.2914 279.87 72.6482 279.779 74.0004C279.704 75.2178 279.461 76.4193 279.057 77.5709C278.625 79.033 277.895 80.3907 276.912 81.5594C276.013 82.5396 274.879 83.2772 273.616 83.7036C272.062 84.2119 270.448 84.5173 268.814 84.6121C266.989 84.7484 264.725 84.8756 262.15 84.9664C259.862 85.0694 257.71 85.1178 255.696 85.1118C253.697 85.1118 251.634 85.1118 249.534 85.0391L243.016 84.8937C240.77 84.8453 238.262 84.7756 235.493 84.6848C235.166 86.3641 235.444 88.1046 236.278 89.6C237.106 90.9967 238.262 92.1722 239.647 93.0251C241.153 93.9648 242.798 94.6638 244.522 95.0966C246.256 95.5601 248.033 95.8463 249.826 95.9506C252.952 96.1502 256.09 95.8868 259.138 95.1693C262.086 94.4879 265.154 93.5794 268.303 92.6708ZM262.141 64.9968C260.568 63.1025 258.616 61.5553 256.408 60.4541C254.896 59.7967 253.255 59.4862 251.606 59.5455C249.977 59.5852 248.361 59.8482 246.804 60.3269C244.064 60.9691 241.604 62.469 239.784 64.6061C239.415 65.0309 239.079 65.4835 238.78 65.9598C238.296 66.6776 237.867 67.4135 237.42 68.1676C237.027 68.8418 236.72 69.562 236.507 70.3117C236.306 70.9749 236.406 71.3111 236.79 71.3111H264.88C264.824 70.1629 264.584 69.0311 264.168 67.9586C263.662 66.8636 262.977 65.8597 262.141 64.9877V64.9968Z" fill="#171717"/>
<path d="M291.519 61.708V57.7831C291.519 56.3112 291.565 54.794 291.665 53.2404C291.756 51.7188 291.924 50.2026 292.167 48.6977C292.367 47.3541 292.729 46.0394 293.245 44.7819C293.567 43.9852 294.052 43.2633 294.667 42.6614C295.283 42.0595 296.017 41.5906 296.823 41.284C298.516 40.6533 300.324 40.387 302.127 40.5027C303.765 40.4157 305.396 40.7604 306.856 41.5021C307.954 42.1148 308.851 43.0296 309.44 44.1368C310.028 45.294 310.391 46.5519 310.508 47.8437C310.657 49.2895 310.73 50.7421 310.727 52.1956C311.573 50.6899 312.78 49.4164 314.242 48.4887C315.656 47.5664 317.169 46.8016 318.751 46.2083C320.099 45.6863 321.488 45.279 322.905 44.9909C323.617 44.837 324.336 44.7188 325.06 44.6365C327.227 44.4518 329.404 44.4033 331.578 44.4912C333.8 44.6401 335.994 45.0737 338.105 45.7813C339.755 46.409 341.339 47.1972 342.834 48.1344C344.435 49.0763 345.884 50.2523 347.134 51.6232C349.681 54.5668 351.698 59.6365 349.982 63.9793C349.626 64.8878 348.759 67.1228 346.759 67.7588C344.021 68.6674 340.871 65.8781 340.506 65.542C339.356 64.4881 339.593 64.1338 338.224 62.9617C337.027 61.9294 335.628 61.1559 334.116 60.6904C332.857 60.3218 331.546 60.1682 330.236 60.2361C327.81 60.2939 325.415 60.7928 323.17 61.708C320.87 62.5038 318.713 63.6601 316.779 65.1331C314.696 66.7161 312.851 68.5886 311.302 70.6934V91.2354C311.302 93.7975 311.302 96.4686 311.229 99.2215C311.219 101.76 310.831 104.282 310.079 106.708C309.448 108.834 308.204 110.73 306.5 112.159C304.829 113.54 302.41 114.131 299.261 113.976C298.366 113.902 297.498 113.641 296.711 113.211C295.925 112.78 295.238 112.19 294.696 111.478C293.488 110.174 292.647 108.575 292.259 106.844C292.07 105.415 291.927 103.704 291.83 101.711C291.732 99.7181 291.659 97.6255 291.611 95.4329C291.568 93.2463 291.544 91.0356 291.538 88.8006V61.708H291.519Z" fill="#171717"/>
<path d="M197.499 15.8449L197.69 15.6268V0.218049L197.508 0L197.252 0.136281L189.036 21.0962V21.2779L193.463 30.6086L193.673 30.7449H203.049L203.259 30.5995L206.911 21.2689V21.0962L198.694 0.136281L198.402 0L198.211 0.227134V15.6723L198.402 15.8903C199.05 16.0039 199.631 16.355 200.032 16.8742C200.432 17.3935 200.622 18.0432 200.565 18.6952C200.508 19.3472 200.207 19.9541 199.722 20.3963C199.237 20.8385 198.604 21.0838 197.946 21.0838C197.288 21.0838 196.654 20.8385 196.17 20.3963C195.685 19.9541 195.384 19.3472 195.327 18.6952C195.269 18.0432 195.46 17.3935 195.86 16.8742C196.26 16.355 196.842 16.0039 197.489 15.8903L197.499 15.8449Z" fill="#616E7D"/>
<path d="M197.955 113.567C203.259 113.567 207.614 80.7508 207.997 56.0476H187.913C188.288 80.7508 192.642 113.576 197.955 113.567Z" fill="#5EC1AC"/>
<path d="M197.955 33.0072C193.391 33.0072 189.492 31.8715 188.278 45.5268H207.623C206.409 31.8715 202.538 33.0072 197.955 33.0072Z" fill="#5EC1AC"/>
<path d="M188.278 45.5268C188.141 47.0622 188.04 48.7884 187.977 50.7236H207.924C207.86 48.7884 207.759 47.0895 207.622 45.5268H188.278Z" fill="#AAD3C7"/>
<path d="M207.988 56.0385H187.904C187.904 54.276 187.904 52.5225 187.968 50.7599H207.915C207.942 52.4952 207.969 54.2669 207.988 56.0385Z" fill="#616E7D"/>
<path d="M344.504 112.432C341.291 112.432 338.68 110.187 338.68 107.425V86.093C338.68 83.322 341.291 81.087 344.504 81.087C347.717 81.087 350.319 83.322 350.319 86.093V107.425C350.319 110.187 347.717 112.432 344.504 112.432Z" fill="#171717"/>
<path d="M100.62 74.9544H81.5498V80.8598H100.62V74.9544Z" fill="white"/>
<path d="M277.424 80.8598H218.477V80.5146C218.461 78.6575 218.552 76.801 218.751 74.9544H279.688C279.489 76.5631 278.994 78.1216 278.227 79.5515C277.986 80.0036 277.718 80.4406 277.424 80.8598Z" fill="white"/>
<path d="M311.302 80.769H291.501C291.501 79.8604 291.501 78.9519 291.501 78.0434C291.501 77.1348 291.501 75.9628 291.501 74.9362H311.284C311.296 76.8562 311.302 78.8005 311.302 80.769Z" fill="white"/>
</svg>
