<svg id="Layer_1" data-name="Layer 1" xmlns="http://www.w3.org/2000/svg" viewBox="0 0 384.06 125.42"><defs><style>.cls-1{fill:#231f20;}.cls-2{fill:#616e7d;}.cls-3{fill:#5ec1ac;}.cls-4{fill:#aad3c7;}.cls-5{fill:#f9f9fa;}</style></defs><title>logo</title><path class="cls-1" d="M350.25,544.2a5,5,0,0,1,.15,4.71,6.7,6.7,0,0,1-2.67,3.76c-.63.53-1.2,1-1.72,1.34a6.66,6.66,0,0,1-1.73.86,6.5,6.5,0,0,1-4.08.63,4.59,4.59,0,0,1-1.73-.31,11.54,11.54,0,0,1-1.57-.79q-.78-.46-1.65-1a19,19,0,0,1-1.65-1.18c-.62-.52-1.2-1-1.72-1.41a9,9,0,0,1-1.42-1.41c-.52-.53-1-1-1.41-1.57a16.45,16.45,0,0,0-1.26-1.42l-1.88-2L295.77,512.8l.47,31.55v1.42a6.42,6.42,0,0,1-.16,1.33c-.11.47-.21,1-.31,1.49a26.42,26.42,0,0,1-1.1,3.61,4.39,4.39,0,0,1-.87,1.57c-.36.42-.76.84-1.17,1.26a6.66,6.66,0,0,1-4.09,1.73,10.06,10.06,0,0,1-4.31.55,13.4,13.4,0,0,1-4-1.18A8.35,8.35,0,0,1,277.4,553a4.11,4.11,0,0,0-.47-.79,7,7,0,0,0-.32-1.1,6,6,0,0,1-.94-3.14c-.11-.62-.18-1.2-.24-1.72s-.13-1.1-.23-1.73a5,5,0,0,1-.16-1.26V542a6.6,6.6,0,0,0,.16-1.34v-1.33l-.16-12.4-.15-23.08q0-10.05-.48-21.67-.15-5.65-.15-10.05c0-2.93.05-6.22.15-9.89v-.63a18.73,18.73,0,0,0,.32-3.37,30.86,30.86,0,0,1,.16-3.22,15.22,15.22,0,0,1,1.41-6.28,7.61,7.61,0,0,1,3.3-3.77,7.36,7.36,0,0,1,2.43-1c.78-.16,1.65-.34,2.59-.55a14.58,14.58,0,0,1,2.12.16l2,.31a7.77,7.77,0,0,1,3.77,1.73,6.08,6.08,0,0,1,.86,1.1,7.48,7.48,0,0,1,.71,1.57,9.28,9.28,0,0,1,1.1,3.61c.1.63.18,1.26.23,1.88s.08,1.31.08,2.05v6.43l.16,19.16q2.5-2.2,4.94-4.56c1.63-1.57,3.22-3.24,4.79-5q4.25-4.4,8.4-8.56c2.77-2.77,5.58-5.52,8.4-8.24l.47-.47c.84-.84,1.7-1.65,2.59-2.43l2.59-2.28a12.75,12.75,0,0,1,5.81-3.77,7.8,7.8,0,0,1,5.18-1.1,10.13,10.13,0,0,1,2.59.63,10.25,10.25,0,0,1,2.28,1.26,11.57,11.57,0,0,0,1.57,1.33,4.55,4.55,0,0,1,1.26,1.33,5.25,5.25,0,0,1,1.57,3.3,7.59,7.59,0,0,1-.63,3.14l-.94,1.57a15.43,15.43,0,0,1-1.1,1.57c-.53.63-1,1.21-1.42,1.73a18.14,18.14,0,0,1-1.41,1.57,11.21,11.21,0,0,1-1.33,1.41,11.38,11.38,0,0,0-1.34,1.42l-2,2-29.36,30,4.95,4.95c1.73,1.73,3.37,3.4,4.94,5s3,3.14,4.4,4.56,2.51,2.59,3.45,3.53q4.25,4.4,8.17,8.71t7.69,8.71l.47.48c.84.83,1.62,1.7,2.36,2.59s1.41,1.75,2,2.59A15.43,15.43,0,0,1,350.25,544.2Z" transform="translate(-274.26 -432)"/><path class="cls-1" d="M384.47,542.94a14.8,14.8,0,0,0-.24,1.49,14.11,14.11,0,0,0-.08,1.49l-.94,3.3a3.62,3.62,0,0,1-.47.78l-.47,1a6.12,6.12,0,0,1-2.83,2.82,11.66,11.66,0,0,1-8,.94,8.15,8.15,0,0,1-4.24-1.56,6,6,0,0,1-2.2-2.67,18.09,18.09,0,0,1-.94-3.14,9.76,9.76,0,0,1-.47-2.83V456.59a19.24,19.24,0,0,1,.08-2,16,16,0,0,1,.23-1.65,13.35,13.35,0,0,1,.39-1.88c.16-.53.34-1.1.55-1.73a4.73,4.73,0,0,1,1.73-2.51,7.11,7.11,0,0,1,3.61-1.57,11.26,11.26,0,0,1,2-.4c.63-.05,1.36-.08,2.2-.08a12.53,12.53,0,0,1,5,1.26,7.13,7.13,0,0,1,3.14,3.45,13.12,13.12,0,0,1,1.57,5.81q.17,1.57.24,4.71c.05,2.1.08,3.67.08,4.71v.63q.31,5,.31,9.66t-.15,10.12q0,5.34-.08,10.29c-.06,3.29-.08,6.57-.08,9.81v33a7.38,7.38,0,0,0,.08,1.18,8.72,8.72,0,0,1,.08,1.17A13.4,13.4,0,0,1,384.47,542.94Z" transform="translate(-274.26 -432)"/><path class="cls-1" d="M467.21,486.73a9.5,9.5,0,0,1,.31,4.24,27.72,27.72,0,0,1-1.1,4.79,44.1,44.1,0,0,1-1.8,4.71l-1.81,4q-4.08,8.31-7.69,16.32t-8.48,17.43c-.63,1.26-1.33,2.75-2.12,4.47a55.43,55.43,0,0,1-2.59,5,35.11,35.11,0,0,1-3.06,4.47,11,11,0,0,1-3.53,3,5.13,5.13,0,0,1-3.14.78,3.5,3.5,0,0,1-2.83-.78,10.89,10.89,0,0,1-3.53-3,35.11,35.11,0,0,1-3.06-4.47,53,53,0,0,1-2.59-5q-1.19-2.58-2.12-4.47l-3.54-6.75q-1.65-3.13-3.45-6.83t-4-8.48q-2.2-4.78-5.18-11.69c-.53-1.26-1.1-2.57-1.73-3.93a33,33,0,0,1-1.65-4.4,24.5,24.5,0,0,1-.94-4.78,17.61,17.61,0,0,1,.23-4.95,6,6,0,0,1,2.36-3.77,10.29,10.29,0,0,1,4.24-1.88,10.85,10.85,0,0,1,4.71.08,7,7,0,0,1,3.77,2.12,15.87,15.87,0,0,1,2.66,3.76q1.26,2.36,2.44,4.95c.78,1.73,1.51,3.45,2.2,5.18s1.33,3.22,2,4.47q2.19,4.56,4.94,9.9t5,9.89c1-2.41,2-4.42,2.83-6s1.64-3.22,2.43-4.79,1.62-3.29,2.51-5.18,2-4.29,3.38-7.22q1.88-4.08,3.84-8a28.76,28.76,0,0,1,4.79-6.9,6.93,6.93,0,0,1,3.61-2.12,10.11,10.11,0,0,1,4.55-.08,10.4,10.4,0,0,1,4.32,2A8.81,8.81,0,0,1,467.21,486.73Z" transform="translate(-274.26 -432)"/><path class="cls-1" d="M568.16,534a24.41,24.41,0,0,1,3.84-.63,8.36,8.36,0,0,1,3.61.47,6.06,6.06,0,0,1,2.75,2.12,7,7,0,0,1,1.1,4.16,7.46,7.46,0,0,1-.94,3.62,13.75,13.75,0,0,1-2.36,3.14A15.79,15.79,0,0,1,573,549.3a24.65,24.65,0,0,1-3.29,1.65,46.31,46.31,0,0,1-10.44,3.14,52.13,52.13,0,0,1-12.17.78,49,49,0,0,1-16.25-3.37,24.59,24.59,0,0,1-12.17-10.13A36.52,36.52,0,0,1,513.83,526a53.82,53.82,0,0,1,.79-16q1.73-9.11,5.89-14.84a33.09,33.09,0,0,1,10-9.18,32.35,32.35,0,0,1,15.85-4.24,38.88,38.88,0,0,1,16.8,3.45,33.63,33.63,0,0,1,9.58,6.36,26.12,26.12,0,0,1,6.44,9.66,17,17,0,0,1,1,3.45,37.41,37.41,0,0,1,.55,4.32,33.34,33.34,0,0,1,0,4.47,14.63,14.63,0,0,1-.79,3.93,12.51,12.51,0,0,1-2.35,4.4A8.76,8.76,0,0,1,574,524.1a20.11,20.11,0,0,1-5.25,1c-2.05.16-4.48.29-7.31.39q-3.76.16-7.06.16c-2.2,0-4.45,0-6.75-.08l-7.14-.16q-3.69-.07-8.25-.23a8.1,8.1,0,0,0,.87,5.42,11,11,0,0,0,3.69,3.76,18.57,18.57,0,0,0,5.33,2.28,28.44,28.44,0,0,0,5.81.94,34.74,34.74,0,0,0,10.21-.86Q563,535.56,568.16,534Zm-6.76-30.46a19.57,19.57,0,0,0-6.27-5,12.2,12.2,0,0,0-5.26-1,19.36,19.36,0,0,0-5.26.86,14.6,14.6,0,0,0-7.7,4.71,13.14,13.14,0,0,0-1.1,1.49c-.52.79-1,1.6-1.49,2.44a11.23,11.23,0,0,0-1,2.35c-.21.74-.1,1.1.32,1.1h30.77a9.94,9.94,0,0,0-3-6.91Z" transform="translate(-274.26 -432)"/><path class="cls-1" d="M593.59,499.92V495.6c0-1.62,0-3.29.16-5a49.76,49.76,0,0,1,.54-5,19.36,19.36,0,0,1,1.18-4.32,6.91,6.91,0,0,1,3.93-3.85,14.19,14.19,0,0,1,5.81-.86,10.36,10.36,0,0,1,5.18,1.1,7.21,7.21,0,0,1,2.82,2.9,11.33,11.33,0,0,1,1.18,4.08,45.84,45.84,0,0,1,.24,4.79,11.55,11.55,0,0,1,3.84-4.08,26.2,26.2,0,0,1,4.95-2.51,29,29,0,0,1,4.55-1.34,23.89,23.89,0,0,1,2.36-.39,56.67,56.67,0,0,1,7.14-.16,28.3,28.3,0,0,1,7.14,1.42,29.79,29.79,0,0,1,5.18,2.59,20.12,20.12,0,0,1,4.71,3.84c2.8,3.24,5,8.82,3.13,13.61-.39,1-1.35,3.45-3.54,4.15-3,1-6.44-2.07-6.84-2.44-1.26-1.16-1-1.55-2.5-2.84a12.17,12.17,0,0,0-8.75-3,21.75,21.75,0,0,0-7.71,1.67,25.05,25.05,0,0,0-7.07,3.77,30.35,30.35,0,0,0-6,6.12v22.61q0,4.25-.07,8.79a28.79,28.79,0,0,1-1.26,8.25,12.45,12.45,0,0,1-3.92,6q-2.76,2.28-7.93,2a7,7,0,0,1-5-2.74,11.35,11.35,0,0,1-2.67-5.11c-.21-1.57-.36-3.45-.47-5.65s-.18-4.5-.23-6.91-.08-4.84-.08-7.3V499.92Z" transform="translate(-274.26 -432)"/><path class="cls-2" d="M490.6,449.45l.2-.25V432.25l-.21-.25-.27.16-9.05,23.06v.2l4.85,10.28.22.14h10.28l.23-.16,4-10.27v-.19l-9-23.06-.28-.16-.2.25V449.2l.21.24a2.9,2.9,0,1,1-1,0Z" transform="translate(-274.26 -432)"/><path class="cls-3" d="M491.09,557c5.82,0,10.58-36.13,11-63.32h-22c.41,27.19,5.17,63.32,11,63.32" transform="translate(-274.26 -432)"/><path class="cls-3" d="M491.09,468.33c-5,0-9.26-1.25-10.59,13.78h21.18C500.36,467.08,496.12,468.33,491.09,468.33Z" transform="translate(-274.26 -432)"/><path class="cls-4" d="M480.5,482.11c-.15,1.69-.26,3.59-.33,5.72H502c-.07-2.13-.19-4-.34-5.72Z" transform="translate(-274.26 -432)"/><path class="cls-2" d="M502.08,493.68h-22c0-1.94,0-3.87.07-5.81l21.85,0Z" transform="translate(-274.26 -432)"/><path class="cls-1" d="M651.63,555.75c-3.53,0-6.38-2.47-6.38-5.51V526.76c0-3,2.85-5.51,6.38-5.51s6.37,2.47,6.37,5.51v23.48C658,553.28,655.15,555.75,651.63,555.75Z" transform="translate(-274.26 -432)"/><path class="cls-1" d="M646.5,442.75" transform="translate(-274.26 -432)"/><rect class="cls-5" x="89.33" y="82.5" width="20.89" height="6.5"/><path class="cls-5" d="M578.15,521H513.58c0-.12,0-.25,0-.38a55.47,55.47,0,0,1,.31-6.12h66.75a14.71,14.71,0,0,1-1.6,5.06A13.71,13.71,0,0,1,578.15,521Z" transform="translate(-274.26 -432)"/><path class="cls-5" d="M615.25,520.91H593.56c0-1,0-2,0-3v-3.42l21.68,0C615.26,516.57,615.25,518.74,615.25,520.91Z" transform="translate(-274.26 -432)"/><path class="cls-5" d="M429.2,514.84" transform="translate(-274.26 -432)"/></svg>