<svg width="37" height="44" viewBox="0 0 37 44" fill="none" xmlns="http://www.w3.org/2000/svg">
<path d="M10.3903 43.9356C10.9554 44.1645 10.7363 43.7408 10.3903 43.3307C8.51233 41.1044 8.39063 36.2 11.2239 31.3755C15.9488 23.3302 16.4944 22.4131 16.4944 22.4131C16.4944 22.4131 14.2827 25.5581 18.4281 29.8818C22.4177 34.043 29.0152 38.9027 25.4947 43.2625C25.1643 43.6717 25.7469 44.1544 26.3084 43.9356C30.6662 42.2377 36.1669 37.2197 36.7184 30.4419C36.9217 28.3709 37.5079 27.0056 35.983 23.3467C34.0223 18.7093 30.108 16.6232 28.7134 15.694C28.2962 15.416 27.6475 15.6623 27.6817 16.0837C28.0881 21.0874 25.6167 22.3572 24.21 19.4956C23.6482 18.3526 23.3205 16.3757 23.3205 13.9683C23.3205 9.96027 21.7938 5.83439 18.4281 2.48168C17.5528 1.6098 16.5287 0.795096 15.3536 0.100345C14.9282 -0.151231 14.3116 0.101641 14.3506 0.510759C14.609 3.22784 14.3749 11.0148 5.40567 20.3178C-2.72674 28.9473 0.424547 35.5748 1.54275 37.3698C3.68067 40.8086 7.47797 42.7562 10.3903 43.9356Z" fill="url(#paint0_linear_1_4)"/>
<defs>
<linearGradient id="paint0_linear_1_4" x1="-13.29" y1="-3.16721" x2="35.3788" y2="57.3728" gradientUnits="userSpaceOnUse">
<stop stop-color="#FF0000"/>
<stop offset="0.94913" stop-color="#CC00FF"/>
</linearGradient>
</defs>
</svg>
