<svg width="55" height="65" viewBox="0 0 55 65" fill="none" xmlns="http://www.w3.org/2000/svg">
<path d="M15.445 64.9049C16.285 65.243 15.9593 64.6171 15.445 64.0112C12.6535 60.7225 12.4726 53.4773 16.6842 46.3502C23.7076 34.4651 24.5187 33.1102 24.5187 33.1102C24.5187 33.1102 21.231 37.7563 27.3931 44.1436C33.3237 50.2908 43.1308 57.4699 37.8976 63.9105C37.4064 64.515 38.2725 65.2282 39.107 64.9049C45.5849 62.3966 53.7616 54.9836 54.5814 44.9711C54.8836 41.9115 55.7549 39.8947 53.4882 34.4894C50.5737 27.6387 44.7552 24.557 42.6821 23.1843C42.062 22.7736 41.0976 23.1376 41.1485 23.76C41.7526 31.1519 38.0788 33.0277 35.9878 28.8003C35.1527 27.1119 34.6656 24.1914 34.6656 20.635C34.6656 14.714 32.3962 8.61899 27.3931 3.66611C26.092 2.37812 24.5696 1.17457 22.823 0.148238C22.1906 -0.223409 21.274 0.150152 21.3319 0.75453C21.7161 4.7684 21.368 16.2719 8.03545 30.0149C-4.05326 42.7631 0.631083 52.5537 2.29328 55.2054C5.47126 60.2854 11.1159 63.1625 15.445 64.9049Z" fill="white"/>
</svg>
