<svg width="147" height="100" viewBox="0 0 147 100" fill="none" xmlns="http://www.w3.org/2000/svg">
<g clip-path="url(#clip0_327_159)">
<path d="M35.525 6.12242C16.1087 4.57752 -0.204207 27.551 7.75829 45.3061C15.5166 64.5714 44.7125 69.7959 58.5958 54.3673C72.0504 41.1836 77.2362 20.8979 93.7124 10.4898C110.454 -0.938804 137.404 9.85303 140.671 30.1632C143.856 49.6122 122.888 68.5306 103.921 62.8163C89.8945 59.653 79.8291 47.6734 74.1125 35.0612C67.0687 23.0204 57.8608 10.1632 43.4875 6.89793C40.9354 6.31834 38.3016 6.08977 35.6883 6.09385L35.525 6.12242Z" stroke="#01FF94" stroke-width="10"/>
<path d="M24.0918 33.6735H48.5918" stroke="#01FF94" stroke-width="10"/>
<path d="M99.2251 33.6734H119.642M109.229 23.4694V43.8775" stroke="#01FF94" stroke-width="10"/>
<path d="M17.1501 98.9796L15.8435 94.2858H7.55428L6.20678 98.9796H1.77637L8.7997 75.3062H15.0472L22.0705 98.9796H17.1501ZM11.7601 79.5919L8.63637 90.6327H14.843L11.7601 79.5919ZM36.7501 98.9796C36.7501 98.9796 34.3614 93.347 33.0139 90.6123C32.2319 89.4368 30.6864 88.9756 29.3389 89.1633C29.2164 92.3674 29.2409 98.9796 29.2409 98.9796H24.7696V75.3062C24.7696 75.3062 31.5071 75.1082 34.8555 75.5511C41.94 76.3511 42.4096 86.6531 35.2903 87.7347C36.6256 88.2654 37.4341 89.5 38.0057 90.7551L41.5787 98.1429C41.8298 98.649 41.8237 99.0409 41.1009 99.0368L36.7501 98.9796ZM35.6435 82.2245C35.6231 78.5715 31.9685 78.9796 29.2531 78.9592V85.6531C32.4585 85.7613 35.5823 85.4347 35.6435 82.2245ZM61.6584 92.8572C59.4943 97.8572 54.7576 99.0205 50.266 98.9388H44.7739V75.2653L53.1243 75.3062C63.4551 75.6429 63.8226 86.7756 61.638 92.9388L61.6584 92.8572ZM55.9418 80.347C53.8593 78.5592 51.5726 78.9245 49.2451 78.9245V95.1898C51.2868 95.1898 53.5122 95.3531 55.2476 94.0878C58.943 91.7613 58.4735 82.9449 55.9316 80.3531L55.9418 80.347ZM83.0959 90.2041C83.539 102.163 66.4564 102.122 65.9459 92.796C65.6336 89.9388 65.8908 87.0817 65.8071 84.2245V75.2041H70.2784L70.36 92.1429C70.8847 96.8164 77.0975 96.4082 78.0367 93.8164C78.9881 91.7551 78.5471 89.4286 78.6451 87.2245V75.2041H83.1164V90.2041H83.0959ZM87.3834 78.7756V75.1225H102.39V78.7756H97.163V95.1837H102.39V98.8776H87.3834V95.1837H92.6101V78.7756H87.3834ZM119.029 98.9796L111.353 81.7551V98.9796H107.29V75.3062H112.782L120.418 92.3674C120.438 91.1429 120.426 75.3062 120.426 75.3062H124.489V98.9796H119.029ZM142.917 96.9388C137.956 101.204 129.299 100.265 127.584 91.8572C125.236 79.0817 132.157 71.7347 141.794 76.0205C147.715 79.347 147.388 93.0409 142.917 97.0409V96.9388ZM136.935 78.8368C132.708 78.7245 132.096 83.0409 131.933 85.1225C131.898 89.0613 131.549 95.6123 137.016 95.3266C138.711 95.3266 140.181 94.098 140.732 92.5307C141.845 90.0613 142.684 78.6327 136.935 78.8368ZM138.017 2.73474V3.21229H139.068V5.9878H139.611V3.21229H140.673V2.73474H138.017ZM141.038 2.73474V5.97964H141.535V3.20413L142.412 5.97964H142.902L143.74 3.26535V5.97964H144.23V2.73474H143.454L142.657 5.32658L141.841 2.73474H141.038Z" fill="#01FF94" stroke="#01FF94"/>
</g>
<defs>
<clipPath id="clip0_327_159">
<rect width="147" height="100" fill="white"/>
</clipPath>
</defs>
</svg>
