<svg width="273" height="57" viewBox="0 0 273 57" fill="none" xmlns="http://www.w3.org/2000/svg">
<path d="M15.8 56H0.2L21.4 -3.8147e-06H37.4L58.6 56H43L39.4 46H19.4L15.8 56ZM23 35.6H35.8L29.4 16.8L23 35.6ZM81.3969 45.2C84.2235 45.2 87.4235 44.6667 90.9969 43.6V13.6H104.997V56H92.5969L91.7969 52C89.2902 53.6533 86.7035 54.88 84.0369 55.68C81.4235 56.4267 79.2102 56.8 77.3969 56.8H73.7969C70.1702 56.8 67.2635 55.7067 65.0769 53.52C62.8902 51.3333 61.7969 48.4267 61.7969 44.8V13.6H75.7969V42.4C75.7969 43.2 76.0635 43.8667 76.5969 44.4C77.1302 44.9333 77.7969 45.2 78.5969 45.2H81.3969ZM137.369 25.2C134.009 25.2 130.542 26 126.969 27.6V56H112.969V13.6H125.369L126.169 18.8C130.755 14.8 135.555 12.8 140.569 12.8H144.169V25.2H137.369ZM191.403 44C191.403 48 190.256 51.1467 187.963 53.44C185.723 55.68 182.603 56.8 178.603 56.8H160.203C156.203 56.8 153.056 55.68 150.763 53.44C148.523 51.1467 147.403 48 147.403 44V25.6C147.403 21.6 148.523 18.48 150.763 16.24C153.056 13.9467 156.203 12.8 160.203 12.8H178.603C182.603 12.8 185.723 13.9467 187.963 16.24C190.256 18.48 191.403 21.6 191.403 25.6V44ZM177.403 26.8C177.403 24.6667 176.336 23.6 174.203 23.6H164.603C162.47 23.6 161.403 24.6667 161.403 26.8V42.8C161.403 44.9333 162.47 46 164.603 46H174.203C176.336 46 177.403 44.9333 177.403 42.8V26.8ZM222.994 25.2C219.634 25.2 216.167 26 212.594 27.6V56H198.594V13.6H210.994L211.794 18.8C216.38 14.8 221.18 12.8 226.194 12.8H229.794V25.2H222.994ZM248.988 45.6C251.814 45.6 255.014 45.0667 258.588 44V39.2H246.988C246.188 39.2 245.521 39.4667 244.988 40C244.454 40.5333 244.188 41.2 244.188 42V42.8C244.188 43.6 244.454 44.2667 244.988 44.8C245.521 45.3333 246.188 45.6 246.988 45.6H248.988ZM234.188 14.4C243.948 13.3333 252.748 12.8 260.588 12.8C264.214 12.8 267.121 13.8933 269.307 16.08C271.494 18.2667 272.588 21.1733 272.588 24.8V56H260.188L259.388 52C256.881 53.6533 254.294 54.88 251.628 55.68C249.014 56.4267 246.801 56.8 244.988 56.8H242.188C238.561 56.8 235.654 55.7067 233.467 53.52C231.281 51.3333 230.188 48.4267 230.188 44.8V41.2C230.188 37.5733 231.281 34.6667 233.467 32.48C235.654 30.2933 238.561 29.2 242.188 29.2H258.588V26C258.588 25.2 258.321 24.5333 257.788 24C257.254 23.4667 256.588 23.2 255.788 23.2C252.321 23.2 248.481 23.36 244.268 23.68C240.108 24 236.748 24.24 234.188 24.4V14.4Z" fill="#01FF94"/>
</svg>
