<svg width="167" height="100" viewBox="0 0 167 100" fill="none" xmlns="http://www.w3.org/2000/svg">
<path d="M47.542 36.2241C47.542 38.271 47.7633 39.9306 48.1505 41.1476C48.5931 42.3647 49.1463 43.6924 49.9207 45.1307C50.1973 45.5732 50.308 46.0158 50.308 46.4031C50.308 46.9563 49.9761 47.5095 49.2569 48.0627L45.7717 50.3861C45.2738 50.718 44.776 50.884 44.3334 50.884C43.7802 50.884 43.227 50.6074 42.6738 50.1095C41.8993 49.2797 41.2355 48.3946 40.6823 47.5095C40.1291 46.569 39.5759 45.5179 38.9673 44.2456C34.6523 49.335 29.231 51.8798 22.7032 51.8798C18.0563 51.8798 14.3498 50.5521 11.6391 47.8967C8.92842 45.2413 7.54541 41.7008 7.54541 37.2752C7.54541 32.573 9.20502 28.7559 12.5796 25.8792C15.9541 23.0026 20.435 21.5642 26.133 21.5642C28.0139 21.5642 29.9501 21.7302 31.997 22.0068C34.0438 22.2834 36.146 22.726 38.3588 23.2239V19.1855C38.3588 14.9811 37.4737 12.0492 35.7588 10.3342C33.9885 8.6193 31.0012 7.78949 26.7415 7.78949C24.8053 7.78949 22.8138 8.01078 20.767 8.50866C18.7201 9.00654 16.7286 9.61506 14.7924 10.3895C13.9072 10.7768 13.2434 10.9981 12.8562 11.1087C12.4689 11.2194 12.1923 11.2747 11.971 11.2747C11.1965 11.2747 10.8093 10.7215 10.8093 9.55974V6.84905C10.8093 5.96393 10.9199 5.30008 11.1965 4.91284C11.4731 4.5256 11.971 4.13836 12.7455 3.75111C14.6817 2.75535 17.0052 1.92554 19.7159 1.2617C22.4266 0.542538 25.3032 0.210616 28.3458 0.210616C34.9289 0.210616 39.7418 1.70426 42.8397 4.69156C45.8824 7.67885 47.4313 12.2151 47.4313 18.3003V36.2241H47.542ZM25.0819 44.6328C26.9075 44.6328 28.7884 44.3009 30.7799 43.637C32.7715 42.9732 34.5417 41.7561 36.0354 40.0965C36.9205 39.0455 37.5843 37.8837 37.9162 36.556C38.2482 35.2284 38.4694 33.6241 38.4694 31.7432V29.4197C36.8652 29.0325 35.1502 28.7006 33.38 28.4793C31.6097 28.258 29.8948 28.1474 28.1799 28.1474C24.4734 28.1474 21.7627 28.8665 19.9372 30.3602C18.1116 31.8538 17.2265 33.956 17.2265 36.722C17.2265 39.3221 17.8903 41.2583 19.2733 42.586C20.601 43.969 22.5372 44.6328 25.0819 44.6328ZM69.5041 50.6074C68.5084 50.6074 67.8445 50.4414 67.402 50.0542C66.9594 49.7223 66.5721 48.9478 66.2402 47.8967L53.24 5.13412C52.908 4.02772 52.7421 3.30855 52.7421 2.92131C52.7421 2.03619 53.1846 1.5383 54.0698 1.5383H59.4911C60.5422 1.5383 61.2614 1.70426 61.6486 2.09151C62.0912 2.42343 62.4231 3.19791 62.755 4.249L72.0488 40.871L80.6788 4.249C80.9554 3.14259 81.2873 2.42343 81.7299 2.09151C82.1725 1.75958 82.9469 1.5383 83.9427 1.5383H88.3683C89.4194 1.5383 90.1386 1.70426 90.5811 2.09151C91.0237 2.42343 91.4109 3.19791 91.6322 4.249L100.373 41.3136L109.943 4.249C110.275 3.14259 110.662 2.42343 111.05 2.09151C111.492 1.75958 112.211 1.5383 113.207 1.5383H118.352C119.237 1.5383 119.735 1.98087 119.735 2.92131C119.735 3.19791 119.68 3.47451 119.624 3.80643C119.569 4.13836 119.458 4.58092 119.237 5.18944L105.905 47.952C105.573 49.0584 105.186 49.7776 104.743 50.1095C104.301 50.4414 103.581 50.6627 102.641 50.6627H97.8834C96.8323 50.6627 96.1132 50.4968 95.6706 50.1095C95.228 49.7223 94.8408 49.0031 94.6195 47.8967L86.0449 12.2151L77.5256 47.8414C77.249 48.9478 76.917 49.6669 76.4745 50.0542C76.0319 50.4414 75.2574 50.6074 74.2617 50.6074H69.5041ZM140.591 52.101C137.714 52.101 134.837 51.7691 132.071 51.1053C129.305 50.4414 127.148 49.7223 125.71 48.8925C124.824 48.3946 124.216 47.8414 123.995 47.3435C123.773 46.8456 123.663 46.2924 123.663 45.7945V42.9732C123.663 41.8115 124.105 41.2583 124.935 41.2583C125.267 41.2583 125.599 41.3136 125.931 41.4242C126.263 41.5349 126.761 41.7561 127.314 41.9774C129.195 42.8072 131.242 43.4711 133.399 43.9136C135.612 44.3562 137.769 44.5775 139.982 44.5775C143.467 44.5775 146.178 43.969 148.059 42.7519C149.94 41.5349 150.936 39.7646 150.936 37.4965C150.936 35.9475 150.438 34.6752 149.442 33.6241C148.446 32.573 146.565 31.6325 143.855 30.7474L135.833 28.258C131.795 26.9856 128.807 25.1047 126.982 22.6153C125.156 20.1812 124.216 17.4705 124.216 14.5939C124.216 12.2704 124.714 10.2236 125.71 8.45334C126.705 6.68309 128.033 5.13412 129.693 3.91708C131.352 2.64471 133.233 1.70426 135.446 1.04042C137.659 0.376577 139.982 0.0999756 142.416 0.0999756C143.633 0.0999756 144.906 0.155296 146.123 0.321257C147.395 0.487218 148.557 0.708499 149.719 0.92978C150.825 1.20638 151.876 1.48298 152.872 1.8149C153.868 2.14683 154.642 2.47875 155.195 2.81067C155.97 3.25323 156.523 3.69579 156.855 4.19368C157.187 4.63624 157.353 5.24476 157.353 6.01925V8.6193C157.353 9.78102 156.91 10.3895 156.08 10.3895C155.638 10.3895 154.919 10.1683 153.978 9.7257C150.825 8.28738 147.284 7.56821 143.357 7.56821C140.203 7.56821 137.714 8.0661 135.999 9.11718C134.284 10.1683 133.399 11.7726 133.399 14.0407C133.399 15.5897 133.952 16.9173 135.059 17.9684C136.165 19.0195 138.212 20.0706 141.144 21.011L148.999 23.5005C152.982 24.7728 155.859 26.5431 157.574 28.8112C159.289 31.0793 160.119 33.6794 160.119 36.556C160.119 38.9348 159.621 41.0923 158.68 42.9732C157.685 44.8541 156.357 46.5137 154.642 47.8414C152.927 49.2244 150.88 50.2202 148.501 50.9393C146.012 51.7138 143.412 52.101 140.591 52.101Z" fill="#01FF94"/>
<path fill-rule="evenodd" clip-rule="evenodd" d="M151.046 78.9868C132.846 92.4296 106.403 99.5659 83.6661 99.5659C51.8016 99.5659 23.0904 87.7827 1.40484 68.1993C-0.310084 66.6503 1.23888 64.5482 3.28573 65.7652C26.7415 79.374 55.674 87.6167 85.6023 87.6167C105.794 87.6167 127.978 83.4124 148.391 74.7824C151.433 73.3994 154.034 76.7739 151.046 78.9868Z" fill="#01FF94"/>
<path fill-rule="evenodd" clip-rule="evenodd" d="M158.625 70.3568C156.302 67.3695 143.246 68.9184 137.327 69.6376C135.556 69.8589 135.28 68.3099 136.884 67.1482C147.284 59.8459 164.378 61.9481 166.37 64.3822C168.361 66.8716 165.817 83.9655 156.08 92.1529C154.587 93.4253 153.148 92.7615 153.812 91.1019C156.025 85.6251 160.948 73.2887 158.625 70.3568Z" fill="#01FF94"/>
</svg>
