<svg width="122" height="122" viewBox="0 0 122 122" fill="none" xmlns="http://www.w3.org/2000/svg">
<path d="M104.208 12.7083H17.7916L25.4166 99.125L61 109.292L96.5833 99.125L104.208 12.7083Z" fill="#0277BD"/>
<path d="M61 20.3333V101.412L89.4667 93.2792L95.8208 20.3333H61Z" fill="#039BE5"/>
<path d="M84.1292 33.0417H61V43.2083H73.4542L72.6917 53.375H61V63.5417H72.1833L71.4208 74.9792L61 78.5375V89.2125L81.0792 82.6042L82.8583 53.375L84.1292 33.0417Z" fill="white"/>
<path d="M61 33.0417V43.2083H38.3792L37.6167 33.0417H61ZM49.3084 53.375L49.8167 63.5417H61V53.375H49.3084ZM50.325 68.625H40.1584L40.9209 82.6042L61 89.2125V78.5375L50.5792 74.9792L50.325 68.625Z" fill="#EEEEEE"/>
</svg>
