<svg width="90" height="101" viewBox="0 0 90 101" fill="none" xmlns="http://www.w3.org/2000/svg">
<path d="M90 0H0L7.94118 90L45 100.588L82.0588 90L90 0Z" fill="#01FF94"/>
<path d="M45 7.94116V92.3823L74.6471 83.9117L81.2647 7.94116H45Z" fill="#00C874"/>
<path d="M69.0882 21.1764H45V31.7646H57.9706L57.1765 42.3529H45V52.9411H56.6471L55.8529 64.8529L45 68.5587V79.6764L65.9118 72.794L67.7647 42.3529L69.0882 21.1764Z" fill="black"/>
<path d="M44.9999 21.1764V31.7646H21.4411L20.647 21.1764H44.9999ZM32.8234 42.3529L33.3529 52.9411H44.9999V42.3529H32.8234ZM33.8823 58.2352H23.294L24.0881 72.794L44.9999 79.6764V68.5587L34.147 64.8529L33.8823 58.2352Z" fill="#333333"/>
</svg>
