<svg width="263" height="105" viewBox="0 0 263 105" fill="none" xmlns="http://www.w3.org/2000/svg">
<path d="M31.9226 0L31.2253 2.37239V71.2138L31.9226 71.9105L63.8453 53.0218L31.9226 0Z" fill="#00AB63"/>
<path d="M31.9227 0L0 53.0217L31.9227 71.9107V38.4972V0Z" fill="#01FF94"/>
<path d="M31.9227 77.9611L31.5298 78.4405V102.963L31.9227 104.112L63.8644 59.0818L31.9227 77.9611Z" fill="#00AB63"/>
<path d="M31.9227 104.112V77.9606L0 59.0813L31.9227 104.112Z" fill="#01FF94"/>
<path d="M31.9224 71.9105L63.8446 53.022L31.9224 38.4974V71.9105Z" fill="#017C48"/>
<path d="M0.000244141 53.022L31.9225 71.9105V38.4974L0.000244141 53.022Z" fill="#00D27A"/>
<path d="M101.525 65H82.1V40.5H101.525V45.4H88.4V50.125H98.725V55.025H88.4V60.1H101.525V65ZM116.917 65C114.653 65.2333 112.437 65.35 110.267 65.35C108.68 65.35 107.408 64.8717 106.452 63.915C105.495 62.9583 105.017 61.6867 105.017 60.1V51.175H102.917V46.45H105.017L105.717 42.25H111.142V46.45H115.517V51.175H111.142V59.225C111.142 59.575 111.258 59.8667 111.492 60.1C111.725 60.3333 112.017 60.45 112.367 60.45H116.917V65ZM125.507 46.8C127.77 46.3333 129.754 46.1 131.457 46.1H133.032C134.619 46.1 135.89 46.5783 136.847 47.535C137.804 48.4917 138.282 49.7633 138.282 51.35V65H132.157V52.05C132.157 51.7 132.04 51.4083 131.807 51.175C131.574 50.9417 131.282 50.825 130.932 50.825H129.707C128.82 50.825 128.004 50.8717 127.257 50.965C126.534 51.0583 125.95 51.1283 125.507 51.175V65H119.382V40.5H125.507V46.8ZM148.603 50.475C147.669 50.475 147.203 50.9417 147.203 51.875V53.8H153.153V51.875C153.153 50.9417 152.686 50.475 151.753 50.475H148.603ZM158.578 64.65C154.074 65.1167 149.991 65.35 146.328 65.35C144.741 65.35 143.469 64.8717 142.513 63.915C141.556 62.9583 141.078 61.6867 141.078 60.1V51.7C141.078 49.95 141.568 48.585 142.548 47.605C143.551 46.6017 144.928 46.1 146.678 46.1H153.678C155.428 46.1 156.793 46.6017 157.773 47.605C158.776 48.585 159.278 49.95 159.278 51.7V58.175H147.203V59.575C147.203 59.925 147.319 60.2167 147.553 60.45C147.786 60.6833 148.078 60.8 148.428 60.8C150.738 60.8 154.121 60.625 158.578 60.275V64.65ZM173.089 51.525C171.619 51.525 170.102 51.875 168.539 52.575V65H162.414V46.45H167.839L168.189 48.725C170.196 46.975 172.296 46.1 174.489 46.1H176.064V51.525H173.089ZM185.004 50.475C184.071 50.475 183.604 50.9417 183.604 51.875V53.8H189.554V51.875C189.554 50.9417 189.087 50.475 188.154 50.475H185.004ZM194.979 64.65C190.476 65.1167 186.392 65.35 182.729 65.35C181.142 65.35 179.871 64.8717 178.914 63.915C177.957 62.9583 177.479 61.6867 177.479 60.1V51.7C177.479 49.95 177.969 48.585 178.949 47.605C179.952 46.6017 181.329 46.1 183.079 46.1H190.079C191.829 46.1 193.194 46.6017 194.174 47.605C195.177 48.585 195.679 49.95 195.679 51.7V58.175H183.604V59.575C183.604 59.925 183.721 60.2167 183.954 60.45C184.187 60.6833 184.479 60.8 184.829 60.8C187.139 60.8 190.522 60.625 194.979 60.275V64.65ZM207.39 60.275C208.627 60.275 210.027 60.0417 211.59 59.575V46.45H217.715V65H212.29L211.94 63.25C210.844 63.9733 209.712 64.51 208.545 64.86C207.402 65.1867 206.434 65.35 205.64 65.35H204.065C202.479 65.35 201.207 64.8717 200.25 63.915C199.294 62.9583 198.815 61.6867 198.815 60.1V46.45H204.94V59.05C204.94 59.4 205.057 59.6917 205.29 59.925C205.524 60.1583 205.815 60.275 206.165 60.275H207.39ZM233.628 46.1C235.518 46.1 236.976 46.8 238.003 48.2C239.076 47.4767 240.231 46.9517 241.468 46.625C242.728 46.275 243.848 46.1 244.828 46.1H245.178C246.765 46.1 248.036 46.5783 248.993 47.535C249.95 48.4917 250.428 49.7633 250.428 51.35V65H244.303V52.4C244.303 52.05 244.186 51.7583 243.953 51.525C243.72 51.2917 243.428 51.175 243.078 51.175H242.903C241.853 51.175 240.511 51.4083 238.878 51.875V65H232.753V52.4C232.753 52.05 232.636 51.7583 232.403 51.525C232.17 51.2917 231.878 51.175 231.528 51.175H231.353C230.303 51.175 228.961 51.4083 227.328 51.875V65H221.203V46.45H226.628L226.978 48.2C228.075 47.4767 229.195 46.9517 230.338 46.625C231.505 46.275 232.485 46.1 233.278 46.1H233.628Z" fill="#01FF94"/>
</svg>
