<svg width="59" height="90" viewBox="0 0 59 90" fill="none" xmlns="http://www.w3.org/2000/svg">
<path d="M14.753 90C22.8933 90 29.5 83.28 29.5 75V60H14.753C6.6126 60 0.00592041 66.72 0.00592041 75C0.00592041 83.28 6.6126 90 14.753 90Z" fill="#0ACF83"/>
<path d="M0.00592041 45C0.00592041 36.72 6.6126 30 14.753 30H29.5V60H14.753C6.6126 60 0.00592041 53.28 0.00592041 45Z" fill="#A259FF"/>
<path d="M0.00592041 15C0.00592041 6.72 6.6126 0 14.753 0H29.5V30H14.753C6.6126 30 0.00592041 23.28 0.00592041 15Z" fill="#F24E1E"/>
<path d="M29.5 0H44.2471C52.3874 0 58.9941 6.72 58.9941 15C58.9941 23.28 52.3874 30 44.2471 30H29.5V0Z" fill="#FF7262"/>
<path d="M58.9941 45C58.9941 53.28 52.3874 60 44.2471 60C36.1067 60 29.5 53.28 29.5 45C29.5 36.72 36.1067 30 44.2471 30C52.3874 30 58.9941 36.72 58.9941 45Z" fill="#1ABCFE"/>
</svg>
