<svg width="74" height="102" viewBox="0 0 74 102" fill="none" xmlns="http://www.w3.org/2000/svg">
<path d="M0 80.9357L35.2286 14.8815C35.9709 13.4894 37.9782 13.5148 38.6835 14.9277L50.875 39.3107L0 80.9357Z" fill="#00D77C"/>
<path d="M0 80.9171L12.8251 1.83192C13.1604 -0.237763 15.9401 -0.686389 16.9113 1.17286L41.625 48.5421L0 80.9171Z" fill="#04B76B"/>
<path d="M0.0184326 80.9033L0.480932 80.5402L41.0167 47.3766L29.5837 25.4634L0.0184326 80.9033Z" fill="#04B76B"/>
<path d="M0 80.9356L61.6651 21.4742C62.9578 20.2278 65.1154 20.9632 65.379 22.7392L74 80.9356L39.3125 101.154C37.9042 101.945 36.186 101.945 34.7777 101.154L0 80.9356Z" fill="#01FF94"/>
</svg>
