<svg width="106" height="106" viewBox="0 0 106 106" fill="none" xmlns="http://www.w3.org/2000/svg">
<path d="M17.6667 81.7083L51.3084 18.6295C52.0173 17.3001 53.9341 17.3244 54.6077 18.6737L66.25 41.9583L17.6667 81.7083Z" fill="#FF8F00"/>
<path d="M17.6667 81.6907L29.9141 6.16788C30.2343 4.19142 32.8887 3.763 33.8162 5.5385L57.4167 50.774L17.6667 81.6907Z" fill="#FFA000"/>
<path d="M17.6843 81.6774L18.126 81.3307L56.8359 49.661L45.9179 28.7348L17.6843 81.6774Z" fill="#FF6F00"/>
<path d="M17.6667 81.7083L76.5541 24.9255C77.7886 23.7352 79.8489 24.4374 80.1007 26.1334L88.3333 81.7083L55.2083 101.016C53.8635 101.771 52.2227 101.771 50.8778 101.016L17.6667 81.7083Z" fill="#FFC400"/>
</svg>
