<svg width="98" height="98" viewBox="0 0 98 98" fill="none" xmlns="http://www.w3.org/2000/svg">
<path d="M49 0C21.9406 0 0 22.5094 0 50.2469C0 72.45 14.0437 91.2625 33.5125 97.9125C33.7856 97.9718 34.0643 98.0011 34.3438 98C36.1594 98 36.8594 96.6656 36.8594 95.5062C36.8594 94.3031 36.8156 91.1531 36.7937 86.9531C35.1729 87.3331 33.5147 87.5312 31.85 87.5437C22.4219 87.5437 20.2781 80.2156 20.2781 80.2156C18.0469 74.4187 14.8313 72.8656 14.8313 72.8656C10.5656 69.8687 14.8094 69.7812 15.1375 69.7812H15.1594C20.0813 70.2187 22.6625 74.9875 22.6625 74.9875C25.1125 79.275 28.3937 80.4781 31.325 80.4781C33.2632 80.4393 35.1714 79.9921 36.925 79.1656C37.3625 75.9281 38.6312 73.7187 40.0312 72.45C29.1594 71.1812 17.7188 66.8718 17.7188 47.6219C17.7188 42.1312 19.6219 37.6469 22.75 34.1469C22.2469 32.8781 20.5625 27.7594 23.2312 20.8469C23.5892 20.7612 23.9572 20.7244 24.325 20.7375C26.0969 20.7375 30.1 21.4156 36.7063 26.0094C44.7334 23.7635 53.2229 23.7635 61.25 26.0094C67.8563 21.4156 71.8594 20.7375 73.6313 20.7375C73.9991 20.7244 74.367 20.7612 74.725 20.8469C77.3938 27.7594 75.7094 32.8781 75.2062 34.1469C78.3344 37.6687 80.2375 42.1531 80.2375 47.6219C80.2375 66.9156 68.775 71.1593 57.8594 72.4062C59.6094 73.9593 61.1844 77.0218 61.1844 81.7031C61.1844 88.4187 61.1187 93.8437 61.1187 95.4843C61.1187 96.6656 61.7969 98 63.6125 98C63.9064 98.0013 64.1997 97.9719 64.4875 97.9125C83.9781 91.2625 98 72.4281 98 50.2469C98 22.5094 76.0594 0 49 0Z" fill="#01FF94"/>
</svg>
