<svg width="259" height="98" viewBox="0 0 259 98" fill="none" xmlns="http://www.w3.org/2000/svg">
<path d="M19.5459 30.2648C19.0415 30.2648 18.9154 30.0126 19.1676 29.6343L21.8158 26.2295C22.068 25.8512 22.6985 25.599 23.2029 25.599H68.2217C68.7261 25.599 68.8522 25.9773 68.6 26.3556L66.4562 29.6343C66.204 30.0126 65.5735 30.3909 65.1952 30.3909L19.5459 30.2648Z" fill="#01FF94"/>
<path d="M0.504412 41.8665C0 41.8665 -0.126103 41.6143 0.126103 41.236L2.77427 37.8312C3.02647 37.4529 3.65699 37.2007 4.1614 37.2007H61.6644C62.1688 37.2007 62.421 37.579 62.2949 37.9573L61.2861 40.9838C61.16 41.4882 60.6556 41.7404 60.1512 41.7404L0.504412 41.8665Z" fill="#01FF94"/>
<path d="M31.0213 53.4679C30.5168 53.4679 30.3907 53.0896 30.6429 52.7113L32.4084 49.5587C32.6606 49.1804 33.165 48.8021 33.6694 48.8021H58.89C59.3944 48.8021 59.6466 49.1804 59.6466 49.6848L59.3944 52.7113C59.3944 53.2157 58.89 53.594 58.5117 53.594L31.0213 53.4679Z" fill="#01FF94"/>
<path d="M161.916 27.995C153.972 30.0127 148.549 31.5259 140.731 33.5436C138.839 34.048 138.713 34.1741 137.074 32.2825C135.182 30.1388 133.795 28.7517 131.147 27.4906C123.203 23.5814 115.51 24.7164 108.322 29.3822C99.7474 34.9307 95.3338 43.1274 95.4599 53.3418C95.586 63.43 102.522 71.7528 112.484 73.1399C121.059 74.2749 128.247 71.2484 133.921 64.8171C135.056 63.43 136.065 61.9168 137.326 60.1513C132.786 60.1513 127.112 60.1513 112.988 60.1513C110.34 60.1513 109.71 58.512 110.592 56.3682C112.232 52.459 115.258 45.9017 117.024 42.623C117.402 41.8664 118.285 40.6053 120.176 40.6053C126.607 40.6053 150.315 40.6053 166.078 40.6053C165.825 44.0101 165.825 47.4149 165.321 50.8197C163.934 59.8991 160.529 68.2219 154.981 75.5359C145.901 87.5157 134.047 94.9557 119.041 96.9734C106.683 98.6127 95.2077 96.2168 85.1194 88.6506C75.7878 81.5888 70.4915 72.2572 69.1044 60.6557C67.465 46.9105 71.5003 34.5524 79.8231 23.7075C88.7764 11.9799 100.63 4.53987 115.132 1.89171C126.986 -0.252045 138.335 1.13509 148.549 8.07076C155.233 12.4844 160.025 18.5373 163.177 25.8513C163.934 26.9862 163.429 27.6167 161.916 27.995Z" fill="#01FF94"/>
<path d="M203.656 97.73C192.181 97.4778 181.714 94.1992 172.887 86.633C165.447 80.2017 160.781 72.005 159.268 62.2951C156.998 48.0454 160.907 35.4351 169.482 24.212C178.688 12.1061 189.785 5.80093 204.791 3.15277C217.654 0.882914 229.759 2.14394 240.73 9.58402C250.693 16.3936 256.872 25.5991 258.511 37.705C260.655 54.7289 255.737 68.6002 244.009 80.4539C235.686 88.9028 225.472 94.1992 213.744 96.5951C210.34 97.2256 206.935 97.3517 203.656 97.73ZM233.669 46.7844C233.543 45.1451 233.543 43.884 233.29 42.623C231.021 30.1388 219.545 23.077 207.565 25.8513C195.838 28.4995 188.272 35.9396 185.497 47.7932C183.227 57.6293 188.019 67.5914 197.099 71.6267C204.034 74.6532 210.97 74.2749 217.654 70.8701C227.616 65.6999 233.038 57.6293 233.669 46.7844Z" fill="#01FF94"/>
</svg>
