<svg width="340" height="96" viewBox="0 0 340 96" fill="none" xmlns="http://www.w3.org/2000/svg">
<path d="M48 96C74.5097 96 96 74.5097 96 48C96 21.4903 74.5097 0 48 0C21.4903 0 0 21.4903 0 48C0 74.5097 21.4903 96 48 96Z" fill="#01FF94"/>
<path fill-rule="evenodd" clip-rule="evenodd" d="M47.3001 54.2C40.2001 54.2 34.5001 48.5 34.5001 41.4C34.5001 34.3 40.2001 28.6 47.3001 28.6C54.4001 28.6 60.1001 34.3 60.1001 41.4C60.1001 48.5 54.4001 54.2 47.3001 54.2ZM47.3001 22.2C57.9001 22.2 66.5001 30.8 66.5001 41.4C66.5001 52 57.9001 60.6 47.3001 60.6C36.7001 60.6 28.1001 52 28.1001 41.4C28.1001 30.8 36.7001 22.2 47.3001 22.2ZM65.6001 61.6C66.9001 62.9 66.9001 64.9 65.6001 66.1L52.8001 78.8999C51.5001 80.1999 49.5001 80.1999 48.3001 78.8999C47.0001 77.5999 47.0001 75.6 48.3001 74.4L61.1001 61.6C62.3001 60.3 64.4001 60.3 65.6001 61.6ZM73.0001 25.4C73.0001 27.2 71.6001 28.6 69.8001 28.6C68.0001 28.6 66.6001 27.2 66.6001 25.4C66.6001 23.6 68.0001 22.2 69.8001 22.2C71.5001 22.2 73.0001 23.6 73.0001 25.4Z" fill="black"/>
<path d="M127 63H118.9V37.8H109.45V31.5H136.45V37.8H127V63ZM147.03 39.6C149.94 39 152.49 38.7 154.68 38.7H156.705C158.745 38.7 160.38 39.315 161.61 40.545C162.84 41.775 163.455 43.41 163.455 45.45V63H155.58V46.35C155.58 45.9 155.43 45.525 155.13 45.225C154.83 44.925 154.455 44.775 154.005 44.775H152.43C151.29 44.775 150.24 44.835 149.28 44.955C148.35 45.075 147.6 45.165 147.03 45.225V63H139.155V31.5H147.03V39.6ZM176.725 44.325C175.525 44.325 174.925 44.925 174.925 46.125V48.6H182.575V46.125C182.575 44.925 181.975 44.325 180.775 44.325H176.725ZM189.55 62.55C183.76 63.15 178.51 63.45 173.8 63.45C171.76 63.45 170.125 62.835 168.895 61.605C167.665 60.375 167.05 58.74 167.05 56.7V45.9C167.05 43.65 167.68 41.895 168.94 40.635C170.23 39.345 172 38.7 174.25 38.7H183.25C185.5 38.7 187.255 39.345 188.515 40.635C189.805 41.895 190.45 43.65 190.45 45.9V54.225H174.925V56.025C174.925 56.475 175.075 56.85 175.375 57.15C175.675 57.45 176.05 57.6 176.5 57.6C179.47 57.6 183.82 57.375 189.55 56.925V62.55ZM235.424 62.325C228.404 63.075 221.954 63.45 216.074 63.45C213.134 63.45 210.974 62.76 209.594 61.38C208.214 60 207.524 57.84 207.524 54.9V40.5C207.524 37.35 208.229 35.07 209.639 33.66C211.079 32.22 213.374 31.5 216.524 31.5H232.724V37.8H218.324C216.524 37.8 215.624 38.7 215.624 40.5V54.9C215.624 55.59 215.819 56.145 216.209 56.565C216.629 56.955 217.184 57.15 217.874 57.15C221.324 57.15 224.474 57.075 227.324 56.925V50.4H221.474V45H235.424V62.325ZM253.207 45.675C251.317 45.675 249.367 46.125 247.357 47.025V63H239.482V39.15H246.457L246.907 42.075C249.487 39.825 252.187 38.7 255.007 38.7H257.032V45.675H253.207ZM267.829 57.15C269.419 57.15 271.219 56.85 273.229 56.25V53.55H266.704C266.254 53.55 265.879 53.7 265.579 54C265.279 54.3 265.129 54.675 265.129 55.125V55.575C265.129 56.025 265.279 56.4 265.579 56.7C265.879 57 266.254 57.15 266.704 57.15H267.829ZM259.504 39.6C264.994 39 269.944 38.7 274.354 38.7C276.394 38.7 278.029 39.315 279.259 40.545C280.489 41.775 281.104 43.41 281.104 45.45V63H274.129L273.679 60.75C272.269 61.68 270.814 62.37 269.314 62.82C267.844 63.24 266.599 63.45 265.579 63.45H264.004C261.964 63.45 260.329 62.835 259.099 61.605C257.869 60.375 257.254 58.74 257.254 56.7V54.675C257.254 52.635 257.869 51 259.099 49.77C260.329 48.54 261.964 47.925 264.004 47.925H273.229V46.125C273.229 45.675 273.079 45.3 272.779 45C272.479 44.7 272.104 44.55 271.654 44.55C269.704 44.55 267.544 44.64 265.174 44.82C262.834 45 260.944 45.135 259.504 45.225V39.6ZM298.417 45.225C296.827 45.225 295.027 45.525 293.017 46.125V56.925H299.767C300.967 56.925 301.567 56.325 301.567 55.125V46.8C301.567 46.35 301.417 45.975 301.117 45.675C300.817 45.375 300.442 45.225 299.992 45.225H298.417ZM293.017 63V70.65H285.142V39.15H292.117L292.567 41.4C293.977 40.47 295.417 39.795 296.887 39.375C298.387 38.925 299.647 38.7 300.667 38.7H302.692C304.732 38.7 306.367 39.315 307.597 40.545C308.827 41.775 309.442 43.41 309.442 45.45V55.8C309.442 58.05 308.797 59.82 307.507 61.11C306.247 62.37 304.492 63 302.242 63H293.017ZM321.361 39.6C324.271 39 326.821 38.7 329.011 38.7H331.036C333.076 38.7 334.711 39.315 335.941 40.545C337.171 41.775 337.786 43.41 337.786 45.45V63H329.911V46.35C329.911 45.9 329.761 45.525 329.461 45.225C329.161 44.925 328.786 44.775 328.336 44.775H326.761C325.621 44.775 324.571 44.835 323.611 44.955C322.681 45.075 321.931 45.165 321.361 45.225V63H313.486V31.5H321.361V39.6Z" fill="#01FF94"/>
</svg>
