<svg width="320" height="57" viewBox="0 0 320 57" fill="none" xmlns="http://www.w3.org/2000/svg">
<path d="M49.6 56H35.2V33.2H15.2V56H0.8V-3.8147e-06H15.2V22H35.2V-3.8147e-06H49.6V56ZM75.2375 45.6C78.0642 45.6 81.2642 45.0667 84.8375 44V39.2H73.2375C72.4375 39.2 71.7708 39.4667 71.2375 40C70.7042 40.5333 70.4375 41.2 70.4375 42V42.8C70.4375 43.6 70.7042 44.2667 71.2375 44.8C71.7708 45.3333 72.4375 45.6 73.2375 45.6H75.2375ZM60.4375 14.4C70.1975 13.3333 78.9975 12.8 86.8375 12.8C90.4642 12.8 93.3708 13.8933 95.5575 16.08C97.7442 18.2667 98.8375 21.1733 98.8375 24.8V56H86.4375L85.6375 52C83.1308 53.6533 80.5442 54.88 77.8775 55.68C75.2642 56.4267 73.0508 56.8 71.2375 56.8H68.4375C64.8108 56.8 61.9042 55.7067 59.7175 53.52C57.5308 51.3333 56.4375 48.4267 56.4375 44.8V41.2C56.4375 37.5733 57.5308 34.6667 59.7175 32.48C61.9042 30.2933 64.8108 29.2 68.4375 29.2H84.8375V26C84.8375 25.2 84.5708 24.5333 84.0375 24C83.5042 23.4667 82.8375 23.2 82.0375 23.2C78.5708 23.2 74.7308 23.36 70.5175 23.68C66.3575 24 62.9975 24.24 60.4375 24.4V14.4ZM130.416 25.2C127.056 25.2 123.589 26 120.016 27.6V56H106.016V13.6H118.416L119.216 18.8C123.802 14.8 128.602 12.8 133.616 12.8H137.216V25.2H130.416ZM171.25 56L170.45 52C167.943 53.6533 165.357 54.88 162.69 55.68C160.077 56.4267 157.863 56.8 156.05 56.8H152.45C148.823 56.8 145.917 55.7067 143.73 53.52C141.543 51.3333 140.45 48.4267 140.45 44.8V26.4C140.45 22.4 141.57 19.28 143.81 17.04C146.103 14.7467 149.25 13.6 153.25 13.6H169.65V-3.8147e-06H183.65V56H171.25ZM160.05 45.2C162.877 45.2 166.077 44.6667 169.65 43.6V24.4H157.65C155.517 24.4 154.45 25.4667 154.45 27.6V42.4C154.45 43.2 154.717 43.8667 155.25 44.4C155.783 44.9333 156.45 45.2 157.25 45.2H160.05ZM205.641 14.4C210.814 13.3333 215.347 12.8 219.241 12.8H222.841C226.467 12.8 229.374 13.8933 231.561 16.08C233.747 18.2667 234.841 21.1733 234.841 24.8V56H220.841V26.4C220.841 25.6 220.574 24.9333 220.041 24.4C219.507 23.8667 218.841 23.6 218.041 23.6H215.241C213.214 23.6 211.347 23.7067 209.641 23.92C207.987 24.1333 206.654 24.2933 205.641 24.4V56H191.641V-3.8147e-06H205.641V14.4ZM258.831 45.6C261.658 45.6 264.858 45.0667 268.431 44V39.2H256.831C256.031 39.2 255.365 39.4667 254.831 40C254.298 40.5333 254.031 41.2 254.031 42V42.8C254.031 43.6 254.298 44.2667 254.831 44.8C255.365 45.3333 256.031 45.6 256.831 45.6H258.831ZM244.031 14.4C253.791 13.3333 262.591 12.8 270.431 12.8C274.058 12.8 276.965 13.8933 279.151 16.08C281.338 18.2667 282.431 21.1733 282.431 24.8V56H270.031L269.231 52C266.725 53.6533 264.138 54.88 261.471 55.68C258.858 56.4267 256.645 56.8 254.831 56.8H252.031C248.405 56.8 245.498 55.7067 243.311 53.52C241.125 51.3333 240.031 48.4267 240.031 44.8V41.2C240.031 37.5733 241.125 34.6667 243.311 32.48C245.498 30.2933 248.405 29.2 252.031 29.2H268.431V26C268.431 25.2 268.165 24.5333 267.631 24C267.098 23.4667 266.431 23.2 265.631 23.2C262.165 23.2 258.325 23.36 254.111 23.68C249.951 24 246.591 24.24 244.031 24.4V14.4ZM319.209 56C314.036 56.5333 308.969 56.8 304.009 56.8C300.383 56.8 297.476 55.7067 295.289 53.52C293.103 51.3333 292.009 48.4267 292.009 44.8V24.4H287.209V13.6H292.009L293.609 4H306.009V13.6H316.009V24.4H306.009V42.8C306.009 43.6 306.276 44.2667 306.809 44.8C307.343 45.3333 308.009 45.6 308.809 45.6H319.209V56Z" fill="#01FF94"/>
</svg>
