<svg width="117" height="117" viewBox="0 0 117 117" fill="none" xmlns="http://www.w3.org/2000/svg">
<path d="M99.9375 12.1875H17.0625L24.375 95.0625L58.5 104.812L92.625 95.0625L99.9375 12.1875Z" fill="#E65100"/>
<path d="M58.5 19.5V97.2562L85.8 89.4562L91.8938 19.5H58.5Z" fill="#FF6D00"/>
<path d="M58.5 60.9375V51.1875H79.4625L77.7563 79.2188L58.5 85.5563V75.3188L68.4938 71.9063L69.225 60.9375H58.5V60.9375ZM80.1938 41.4375L80.925 31.6875H58.5V41.4375H80.1938Z" fill="white"/>
<path d="M58.5 75.3188V85.5563L39.2437 79.2188L38.2687 65.8125H48.0187L48.5062 71.9063L58.5 75.3188ZM46.5562 41.4375H58.5V31.6875H36.3187L38.025 60.9375H58.5V51.1875H47.2875L46.5562 41.4375Z" fill="#EEEEEE"/>
</svg>
