<svg width="99" height="99" viewBox="0 0 99 99" fill="none" xmlns="http://www.w3.org/2000/svg">
<path d="M0 0H99V99H0V0Z" fill="#01FF94"/>
<path d="M26.0308 82.7316L33.607 78.1467C35.0686 80.7381 36.3981 82.9307 39.5874 82.9307C42.6444 82.9307 44.5718 81.7349 44.5718 77.0834V45.4506H53.8752V77.2149C53.8752 86.8509 48.2269 91.237 39.9862 91.237C32.5437 91.237 28.2236 87.3824 26.0306 82.7308" fill="black"/>
<path d="M58.9287 81.7348L66.5039 77.3487C68.4981 80.6054 71.0898 82.9976 75.675 82.9976C79.5298 82.9976 81.988 81.0702 81.988 78.412C81.988 75.2221 79.4629 74.0923 75.2097 72.2322L72.8844 71.2346C66.1721 68.3776 61.7194 64.7891 61.7194 57.2131C61.7194 50.2353 67.0357 44.9187 75.3429 44.9187C81.2574 44.9187 85.5105 46.979 88.5671 52.3619L81.3235 57.0135C79.7285 54.1562 78.0011 53.0266 75.3431 53.0266C72.6184 53.0266 70.8904 54.7544 70.8904 57.0135C70.8904 59.8047 72.6184 60.9347 76.6052 62.6626L78.931 63.6594C86.8392 67.0488 91.2918 70.5041 91.2918 78.279C91.2918 86.6529 84.7129 91.2378 75.8745 91.2378C67.2354 91.2378 61.6531 87.1178 58.9289 81.7348" fill="black"/>
</svg>
