<svg width="87" height="101" viewBox="0 0 87 101" fill="none" xmlns="http://www.w3.org/2000/svg">
<path d="M41.5725 24.679C41.5725 25.0134 41.2366 25.0134 41.2366 25.0134H40.9007C40.5648 25.0134 40.5648 24.679 40.2289 24.3446C40.2289 24.3446 39.893 24.0102 39.893 23.6758C39.893 23.3414 39.893 23.3414 40.2289 23.3414L40.9007 23.6758C41.2366 24.0102 41.5725 24.3446 41.5725 24.679ZM35.5261 21.335C35.5261 19.6629 34.8543 18.6597 33.8465 18.6597C33.8465 18.6597 33.8465 18.9941 33.5106 18.9941V19.6629H34.5184C34.5184 20.3318 34.8543 20.6662 34.8543 21.335H35.5261ZM47.283 19.6629C47.9549 19.6629 48.2908 20.3318 48.6267 21.335H49.2985C48.9626 21.0006 48.9626 20.6662 48.9626 20.3318C48.9626 19.9973 48.9626 19.6629 48.6267 19.3285C48.2908 18.9941 47.9549 18.6597 47.619 18.6597C47.619 18.6597 47.283 18.9941 46.9471 18.9941C46.9471 19.3285 47.283 19.3285 47.283 19.6629ZM37.2057 25.0134C36.8698 25.0134 36.8698 25.0134 36.8698 24.679C36.8698 24.3446 36.8698 24.0102 37.2057 23.6758C37.8775 23.6758 38.2134 23.3414 38.2134 23.3414C38.5493 23.3414 38.5493 23.6758 38.5493 23.6758C38.5493 24.0102 38.2134 24.3446 37.5416 25.0134H37.2057ZM33.5106 24.679C32.167 24.0102 31.8311 23.007 31.8311 21.335C31.8311 20.3318 31.8311 19.6629 32.5029 18.9941C32.8388 18.3253 33.5106 17.9909 34.1825 17.9909C34.8543 17.9909 35.1902 18.3253 35.862 18.9941C36.1979 19.9973 36.5338 21.0006 36.5338 22.0038V22.3382V22.6726H36.8698V22.3382C37.2057 22.3382 37.2057 21.6694 37.2057 20.3318C37.2057 19.3285 37.2057 18.3253 36.5338 17.3221C35.862 16.3189 35.1902 15.6501 33.8465 15.6501C32.8388 15.6501 31.8311 16.3189 31.4952 17.3221C30.8233 18.6597 30.689 19.6629 30.689 21.335C30.689 22.6726 31.1592 24.0102 32.5029 25.3478C32.8388 25.0134 33.1747 25.0134 33.5106 24.679ZM75.4997 71.8299C75.8356 71.8299 75.8356 71.6962 75.8356 71.3952C75.8356 70.6595 75.4997 69.7901 74.492 68.8203C73.4842 67.8171 71.8047 67.1817 69.7892 66.9142C69.4533 66.8808 69.1174 66.8808 69.1174 66.8808C68.7814 66.8139 68.7814 66.8139 68.4455 66.8139C68.1096 66.7804 67.4378 66.7136 67.1019 66.6467C68.1096 63.5367 68.4455 60.7946 68.4455 58.3869C68.4455 55.0429 67.7737 52.702 66.4301 50.6956C65.0864 48.6892 63.7428 47.686 62.0632 47.3516C61.7273 47.686 61.7273 47.686 61.7273 48.0204C63.4068 48.6892 65.0864 50.0268 66.0941 52.0332C67.1019 54.3741 67.4378 56.3805 67.4378 58.7213C67.4378 60.594 67.1019 63.3695 65.7582 66.9142C64.4146 67.4493 63.0709 68.6865 62.0632 70.6261C62.0632 70.9271 62.0632 71.0943 62.3991 71.0943C62.3991 71.0943 62.735 70.7933 63.0709 70.2248C63.7428 69.6563 64.0787 69.0878 64.7505 68.5194C65.7582 67.9509 66.4301 67.6499 67.4378 67.6499C69.1174 67.6499 70.7969 67.884 71.8047 68.3521C73.1483 68.7869 73.8201 69.255 74.156 69.7901C74.492 70.2917 74.8279 70.7599 75.1638 71.1946C75.1638 71.6293 75.4997 71.8299 75.4997 71.8299V71.8299ZM44.5957 23.3414C44.2598 23.007 44.2598 22.3382 44.2598 21.6694C44.2598 20.3318 44.2598 19.6629 44.9317 18.6597C45.6035 17.9909 46.2753 17.6565 46.9471 17.6565C47.9549 17.6565 48.6267 18.3253 49.2985 18.9941C49.6344 19.9973 49.9703 20.6662 49.9703 21.6694C49.9703 23.3414 49.2985 24.3446 47.9549 24.679C47.9549 24.679 48.2908 25.0134 48.6267 25.0134C49.2985 25.0134 49.6344 25.3478 50.3063 25.6822C50.6422 23.6758 50.9781 22.3382 50.9781 20.6662C50.9781 18.6597 50.6422 17.3221 49.9703 16.3189C48.9626 15.3157 47.9549 14.9813 46.6112 14.9813C45.6035 14.9813 44.5957 15.3157 43.588 15.9845C42.9162 16.9877 42.5803 17.6565 42.5803 18.6597C42.5803 20.3318 42.9162 21.6694 43.588 23.007C43.9239 23.007 44.2598 23.3414 44.5957 23.3414ZM48.6267 28.6918C44.2598 31.7015 40.9007 33.0391 38.2134 33.0391C35.862 33.0391 33.5106 32.0359 31.4952 30.3639C31.8311 31.0327 32.167 31.7015 32.5029 32.0359L34.5184 34.0423C35.862 35.3799 37.5416 36.0487 39.2211 36.0487C41.5725 36.0487 44.2598 34.7111 47.619 32.3703L50.6422 30.3639C51.314 29.6951 51.9858 29.0263 51.9858 28.023C51.9858 27.6886 51.9858 27.3542 51.6499 27.3542C51.314 26.6854 49.6344 25.6822 46.2753 24.679C43.2521 23.3414 40.9007 22.6726 39.5571 22.6726C38.5493 22.6726 36.8698 23.3414 34.5184 24.679C32.5029 26.0166 31.1592 27.3542 31.1592 28.6918C31.1592 28.6918 31.4952 29.0263 31.8311 29.6951C33.8465 31.3671 35.862 32.3703 37.8775 32.3703C40.5648 32.3703 43.9239 31.0327 48.2908 27.6886V28.3574C48.6267 28.3574 48.6267 28.6918 48.6267 28.6918ZM56.3527 96.2414C57.6963 98.7561 60.0477 100.02 62.735 100.02C63.4068 100.02 64.0787 99.9199 64.7505 99.7192C65.4223 99.5855 66.0941 99.3514 66.4301 99.0839C66.766 98.8498 67.1019 98.6157 67.4378 98.3482C68.1096 98.1141 68.1096 97.9469 68.4455 97.7797L74.156 92.8639C75.4997 91.7972 76.8433 90.8642 78.5229 90.055C79.8666 89.2524 81.2102 88.7173 81.882 88.4164C82.8898 88.1489 83.5616 87.7476 84.2334 87.2125C84.5693 86.7109 84.9052 86.0756 84.9052 85.273C84.9052 84.3032 84.2334 83.5675 83.5616 83.0325C82.8898 82.4974 82.2179 82.1296 81.5461 81.8955C80.8743 81.6614 80.2025 81.1264 79.1947 80.2235C78.5229 79.354 77.8511 78.1502 77.5152 76.5785L77.1793 74.6389C76.8433 73.736 76.8433 73.0672 76.5074 72.6994C76.5074 72.5991 76.5074 72.5656 76.1715 72.5656C75.8356 72.5656 75.1638 72.8666 74.8279 73.4351C74.156 74.0036 73.4842 74.6389 72.8124 75.3077C72.4765 75.9766 71.4687 76.5785 70.7969 77.147C69.7892 77.7155 68.7814 78.0164 68.1096 78.0164C65.4223 78.0164 64.0787 77.2807 63.0709 75.8428C62.3991 74.7727 62.0632 73.5354 61.7273 72.1309C61.0555 71.5624 60.7195 71.2615 60.0477 71.2615C58.3682 71.2615 57.6963 73.0004 57.6963 76.5116V77.6151V81.4942V84.4704V85.9084V86.9116C57.6963 87.2125 57.3604 87.8813 57.3604 88.918C57.0245 89.9546 57.0245 91.1317 57.0245 92.4627L56.3527 96.1745V96.2314V96.2414ZM7.64537 94.4624C10.7694 94.9172 14.3636 95.8903 18.4282 97.3751C22.4927 98.8464 24.9785 99.6156 25.8854 99.6156C28.2368 99.6156 30.1851 98.5789 31.7975 96.5758C32.1334 95.9271 32.1334 95.1647 32.1334 94.2885C32.1334 91.1284 30.2187 87.1323 26.3893 82.2834L24.1051 79.2403C23.6348 78.605 23.0638 77.6352 22.3247 76.331C21.6193 75.0268 20.9811 74.0236 20.4772 73.3214C20.0405 72.5523 19.3351 71.7831 18.4282 71.014C17.5548 70.2449 16.5471 69.7433 15.4385 69.4757C14.0277 69.7433 13.0536 70.2114 12.5833 70.8468C12.113 71.4822 11.8443 72.1844 11.7771 72.9201C11.6763 73.6224 11.4748 74.0905 11.1389 74.3246C10.8029 74.5252 10.2319 74.6924 9.4593 74.8596C9.29134 74.8596 8.98902 74.8596 8.55233 74.8931H7.64537C5.86503 74.8931 4.65575 75.0937 4.01751 75.4281C3.17773 76.3979 2.74105 77.5014 2.74105 78.6718C2.74105 79.2069 2.87541 80.1098 3.14414 81.3805C3.41287 82.6178 3.54724 83.621 3.54724 84.3233C3.54724 85.6943 3.14414 87.0654 2.30436 88.4364C1.46458 89.8744 1.02789 90.9445 1.02789 91.7069C1.3638 93.0044 3.58083 93.9173 7.64537 94.4524V94.4624ZM18.8313 64.0551C18.8313 61.7477 19.4359 59.2062 20.6788 56.1966C21.8881 53.1869 23.0973 51.1805 24.273 49.8429C24.2059 49.5085 24.0379 49.5085 23.7692 49.5085L23.4333 49.1741C22.4591 50.1773 21.2834 52.5181 19.8726 55.8622C18.4618 58.8718 17.7227 61.6473 17.7227 63.6872C17.7227 65.192 18.0922 66.4962 18.7641 67.6332C19.5031 68.7367 21.2834 70.3418 24.1051 72.3817L27.6658 74.6891C31.4616 77.9663 33.477 80.2402 33.477 81.5778C33.477 82.2801 33.1411 82.9823 32.1334 83.7514C31.4616 84.554 30.5546 84.9553 29.782 84.9553C29.7148 84.9553 29.6812 85.0222 29.6812 85.1894C29.6812 85.2228 30.0171 85.8916 30.7226 87.1958C32.1334 89.1019 35.1566 90.0382 39.1876 90.0382C46.5776 90.0382 52.2881 87.0286 56.655 81.0093C56.655 79.3373 56.655 78.3007 56.3191 77.8659V76.6286C56.3191 74.455 56.655 72.8164 57.3268 71.7463C57.9987 70.6763 58.6705 70.1746 59.6782 70.1746C60.35 70.1746 61.0219 70.4087 61.6937 70.9103C62.0296 68.3354 62.0296 66.0949 62.0296 64.0885C62.0296 61.0454 62.0296 58.5374 61.3578 56.1966C61.0219 54.1901 60.35 52.5181 59.6782 51.1805C59.0064 50.1773 58.3346 49.1741 57.6627 48.1709C56.9909 47.1677 56.655 46.1645 55.9832 45.1612C55.6473 43.8236 55.3114 42.8204 55.3114 41.1484C54.3036 39.4764 53.6318 37.8044 52.6241 36.1323C51.9522 34.4603 51.2804 32.7883 50.6086 31.4507L47.5854 33.7915C44.2262 36.1323 41.5389 37.1355 39.1876 37.1355C37.1721 37.1355 35.4925 36.8011 34.4848 35.4635L32.4693 33.7915C32.4693 34.7947 32.1334 36.1323 31.4616 37.4699L29.3453 41.4828C28.4048 43.8236 27.9009 45.1612 27.8001 46.1645C27.6658 46.8333 27.565 47.5021 27.4978 47.5021L24.9785 52.5181C22.2576 57.5342 20.8803 62.1824 20.8803 66.028C20.8803 66.7972 20.9475 67.5997 21.0819 68.4023C19.5703 67.3657 18.8313 65.9277 18.8313 64.0551V64.0551ZM42.8826 95.6897C38.5157 95.6897 35.1566 96.2782 32.8052 97.4453V97.345C31.1257 99.3514 29.2445 100.388 26.6244 100.388C24.9785 100.388 22.3919 99.7527 18.8984 98.4819C15.3714 97.2781 12.2474 96.3551 9.52648 95.7465C9.25775 95.6696 8.65311 95.5559 7.67896 95.4021C6.73841 95.2516 5.86503 95.0978 5.09243 94.9439C4.38702 94.7935 3.58083 94.5661 2.70745 94.2584C1.86767 93.9942 1.19585 93.6498 0.69198 93.2318C0.228421 92.8104 0 92.3356 0 91.8039C0 91.2688 0.11421 90.697 0.342631 90.0884C0.557615 89.7206 0.792754 89.3527 1.02789 89.0183C1.26303 88.6505 1.46458 88.3161 1.59894 87.9817C1.80049 87.6807 1.93486 87.3797 2.06922 87.0453C2.20359 86.7444 2.33795 86.4434 2.40513 86.0756C2.47232 85.7412 2.5395 85.4067 2.5395 85.0723C2.5395 84.7379 2.40513 83.7347 2.1364 81.9624C1.86767 80.2235 1.73331 79.12 1.73331 78.6518C1.73331 77.1804 2.06922 76.01 2.80823 75.174C3.54724 74.338 4.25265 73.9033 4.99166 73.9033H8.85465C9.15698 73.9033 9.62725 73.736 10.3327 73.3348C10.5678 72.7997 10.7694 72.365 10.9037 71.9637C11.0717 71.5624 11.1389 71.2615 11.206 71.1277C11.2732 70.9271 11.3404 70.7264 11.4076 70.5592C11.542 70.3251 11.7099 70.0576 11.945 69.7901C11.6763 69.4557 11.542 69.021 11.542 68.4859C11.542 68.1181 11.542 67.7837 11.6091 67.583C11.6091 66.3792 12.1802 64.6737 13.3895 62.4332L14.5652 60.3265C15.5393 58.5207 16.2783 57.1831 16.8158 55.8454C17.3868 54.5078 17.9915 52.5014 18.6633 49.8262C19.2008 47.4853 20.4772 45.1445 22.4927 42.8037L25.012 39.7941C26.7588 37.7876 27.9009 36.1156 28.5391 34.778C29.1774 33.4404 29.5133 31.7684 29.5133 30.4307C29.5133 29.7619 29.3453 27.7555 28.9758 24.4115C28.6399 21.0674 28.4719 17.7234 28.4719 14.7138C28.4719 12.3729 28.6735 10.7009 29.1102 9.0289C29.5469 7.35688 30.3195 5.68487 31.4616 4.34725C32.4693 3.00963 33.813 1.67202 35.8284 1.00321C37.8439 0.334404 40.1953 0 42.8826 0C43.8903 0 44.8981 0 45.9058 0.334404C46.9135 0.334404 48.2572 0.668808 49.9368 1.33762C51.2804 2.00642 52.6241 2.67523 53.6318 3.67844C54.9754 4.68165 55.9832 6.35367 56.9909 8.02569C57.6627 10.0321 58.3346 12.0385 58.6705 14.7138C59.0064 16.3858 59.0064 18.0578 59.3423 20.3986C59.3423 22.4051 59.6782 23.7427 59.6782 24.7459C60.0141 25.7491 60.0141 27.0867 60.35 28.7587C60.686 30.0963 61.0219 31.434 61.6937 32.4372C62.3655 33.7748 63.0373 35.1124 64.0451 36.45C65.0528 38.122 66.3965 39.7941 67.7401 41.8005C70.7633 45.1445 73.1147 48.823 74.4584 52.5014C76.1379 55.8454 77.1457 60.1927 77.1457 64.8409C77.1457 67.1483 76.8098 69.3888 76.1379 71.5624C76.8098 71.5624 77.1457 71.8299 77.4816 72.2981C77.8175 72.7663 78.1534 73.7695 78.4893 75.3412L78.8252 77.8158C79.1611 78.5515 79.4971 79.2537 80.5048 79.8556C81.1766 80.4576 81.8484 80.9592 82.8562 81.3605C83.528 81.6949 84.5357 82.163 85.2076 82.765C85.8794 83.4338 86.2153 84.136 86.2153 84.8717C86.2153 86.0087 85.8794 86.8447 85.2076 87.4466C84.5357 88.1154 83.8639 88.5836 82.8562 88.8845C82.1844 89.2189 80.8407 89.8878 78.8252 90.8308C77.1457 91.8206 75.4661 93.0211 73.7865 94.4423L70.4274 97.2881C69.0838 98.5923 67.7401 99.5286 66.7324 100.097C65.7246 100.699 64.381 101 63.0373 101L60.686 100.732C57.9987 100.03 56.3191 98.6926 55.3114 96.6528C49.9368 96.004 45.5699 95.683 42.8826 95.683" fill="#01FF94"/>
</svg>
