<svg width="115" height="134" viewBox="0 0 115 134" fill="none" xmlns="http://www.w3.org/2000/svg">
<path d="M55.6254 34.0494C55.6254 34.4789 55.1931 34.4789 55.1931 34.4789H54.7607C54.3284 34.4789 54.3284 34.0494 53.8961 33.62C53.8961 33.62 53.4637 33.1905 53.4637 32.761C53.4637 32.3315 53.4637 32.3315 53.8961 32.3315L54.7607 32.761C55.1931 33.1905 55.6254 33.62 55.6254 34.0494ZM47.8434 29.7546C47.8434 27.6071 46.9788 26.3187 45.6818 26.3187C45.6818 26.3187 45.6818 26.7482 45.2494 26.7482V27.6071H46.5464C46.5464 28.4661 46.9788 28.8956 46.9788 29.7546H47.8434ZM62.975 27.6071C63.8397 27.6071 64.272 28.4661 64.7043 29.7546H65.569C65.1367 29.3251 65.1367 28.8956 65.1367 28.4661C65.1367 28.0366 65.1367 27.6071 64.7043 27.1776C64.272 26.7482 63.8397 26.3187 63.4073 26.3187C63.4073 26.3187 62.975 26.7482 62.5427 26.7482C62.5427 27.1776 62.975 27.1776 62.975 27.6071ZM50.0051 34.4789C49.5728 34.4789 49.5728 34.4789 49.5728 34.0494C49.5728 33.62 49.5728 33.1905 50.0051 32.761C50.8698 32.761 51.3021 32.3315 51.3021 32.3315C51.7344 32.3315 51.7344 32.761 51.7344 32.761C51.7344 33.1905 51.3021 33.62 50.4374 34.4789H50.0051ZM45.2494 34.0494C43.5201 33.1905 43.0878 31.902 43.0878 29.7546C43.0878 28.4661 43.0878 27.6071 43.9525 26.7482C44.3848 25.8892 45.2494 25.4597 46.1141 25.4597C46.9788 25.4597 47.4111 25.8892 48.2758 26.7482C48.7081 28.0366 49.1404 29.3251 49.1404 30.6135V31.043V31.4725H49.5728V31.043C50.0051 31.043 50.0051 30.1841 50.0051 28.4661C50.0051 27.1776 50.0051 25.8892 49.1404 24.6007C48.2758 23.3123 47.4111 22.4533 45.6818 22.4533C44.3848 22.4533 43.0878 23.3123 42.6555 24.6007C41.7908 26.3187 41.6179 27.6071 41.6179 29.7546C41.6179 31.4725 42.2231 33.1905 43.9525 34.9084C44.3848 34.4789 44.8171 34.4789 45.2494 34.0494ZM99.2908 94.6071C99.7231 94.6071 99.7231 94.4353 99.7231 94.0488C99.7231 93.1039 99.2908 91.9873 97.9938 90.7418C96.6968 89.4533 94.5352 88.6373 91.9412 88.2937C91.5089 88.2507 91.0765 88.2507 91.0765 88.2507C90.6442 88.1648 90.6442 88.1648 90.2119 88.1648C89.7795 88.1219 88.9149 88.036 88.4825 87.9501C89.7795 83.9559 90.2119 80.4341 90.2119 77.3418C90.2119 73.0469 89.3472 70.0405 87.6179 67.4635C85.8886 64.8866 84.1592 63.5982 81.9976 63.1687C81.5652 63.5982 81.5652 63.5982 81.5652 64.0277C83.7269 64.8866 85.8886 66.6046 87.1855 69.1815C88.4825 72.1879 88.9149 74.7648 88.9149 77.7712C88.9149 80.1764 88.4825 83.7411 86.7532 88.2937C85.0239 88.9809 83.2946 90.57 81.9976 93.061C81.9976 93.4475 81.9976 93.6623 82.4299 93.6623C82.4299 93.6623 82.8622 93.2757 83.2946 92.5456C84.1592 91.8155 84.5916 91.0853 85.4562 90.3552C86.7532 89.6251 87.6179 89.2385 88.9149 89.2385C91.0765 89.2385 93.2382 89.5392 94.5352 90.1405C96.2645 90.6988 97.1292 91.3001 97.5615 91.9873C97.9938 92.6315 98.4261 93.2328 98.8585 93.7911C98.8585 94.3494 99.2908 94.6071 99.2908 94.6071V94.6071ZM59.5164 32.3315C59.084 31.902 59.084 31.043 59.084 30.1841C59.084 28.4661 59.084 27.6071 59.9487 26.3187C60.8134 25.4597 61.678 25.0302 62.5427 25.0302C63.8397 25.0302 64.7043 25.8892 65.569 26.7482C66.0013 28.0366 66.4337 28.8956 66.4337 30.1841C66.4337 32.3315 65.569 33.62 63.8397 34.0494C63.8397 34.0494 64.272 34.4789 64.7043 34.4789C65.569 34.4789 66.0013 34.9084 66.866 35.3379C67.2983 32.761 67.7307 31.043 67.7307 28.8956C67.7307 26.3187 67.2983 24.6007 66.4337 23.3123C65.1367 22.0238 63.8397 21.5943 62.1104 21.5943C60.8134 21.5943 59.5164 22.0238 58.2194 22.8828C57.3547 24.1712 56.9224 25.0302 56.9224 26.3187C56.9224 28.4661 57.3547 30.1841 58.2194 31.902C58.6517 31.902 59.084 32.3315 59.5164 32.3315ZM64.7043 39.2033C59.084 43.0687 54.7607 44.7866 51.3021 44.7866C48.2758 44.7866 45.2494 43.4982 42.6555 41.3507C43.0878 42.2097 43.5201 43.0687 43.9525 43.4982L46.5464 46.0751C48.2758 47.793 50.4374 48.652 52.5991 48.652C55.6254 48.652 59.084 46.9341 63.4073 43.9276L67.2983 41.3507C68.163 40.4918 69.0276 39.6328 69.0276 38.3443C69.0276 37.9148 69.0276 37.4853 68.5953 37.4853C68.163 36.6264 66.0013 35.3379 61.678 34.0494C57.787 32.3315 54.7607 31.4725 53.0314 31.4725C51.7344 31.4725 49.5728 32.3315 46.5464 34.0494C43.9525 35.7674 42.2231 37.4853 42.2231 39.2033C42.2231 39.2033 42.6555 39.6328 43.0878 40.4918C45.6818 42.6392 48.2758 43.9276 50.8698 43.9276C54.3284 43.9276 58.6517 42.2097 64.272 37.9148V38.7738C64.7043 38.7738 64.7043 39.2033 64.7043 39.2033ZM74.6479 125.96C76.3773 129.189 79.4036 130.813 82.8622 130.813C83.7269 130.813 84.5916 130.684 85.4562 130.426C86.3209 130.255 87.1855 129.954 87.6179 129.61C88.0502 129.31 88.4825 129.009 88.9149 128.665C89.7795 128.365 89.7795 128.15 90.2119 127.935L97.5615 121.622C99.2908 120.252 101.02 119.054 103.182 118.014C104.911 116.983 106.64 116.296 107.505 115.91C108.802 115.566 109.667 115.051 110.531 114.364C110.964 113.719 111.396 112.903 111.396 111.873C111.396 110.627 110.531 109.682 109.667 108.995C108.802 108.308 107.937 107.835 107.073 107.535C106.208 107.234 105.343 106.547 104.046 105.387C103.182 104.271 102.317 102.724 101.885 100.706L101.452 98.2148C101.02 97.0552 101.02 96.1962 100.588 95.7238C100.588 95.595 100.588 95.552 100.155 95.552C99.7231 95.552 98.8585 95.9385 98.4261 96.6687C97.5615 97.3988 96.6968 98.2148 95.8322 99.0738C95.3998 99.9328 94.1028 100.706 93.2382 101.436C91.9412 102.166 90.6442 102.553 89.7795 102.553C86.3209 102.553 84.5916 101.608 83.2946 99.761C82.4299 98.3866 81.9976 96.7975 81.5652 94.9937C80.7006 94.2635 80.2682 93.877 79.4036 93.877C77.2419 93.877 76.3773 96.1103 76.3773 100.62V102.037V107.019V110.842V112.689V113.977C76.3773 114.364 75.9449 115.223 75.9449 116.554C75.5126 117.885 75.5126 119.397 75.5126 121.107L74.6479 125.874V125.947V125.96ZM11.96 123.675C15.9806 124.259 20.6066 125.509 25.8378 127.416C31.069 129.305 34.2682 130.293 35.4355 130.293C38.4619 130.293 40.9694 128.962 43.0446 126.389C43.4769 125.556 43.4769 124.577 43.4769 123.451C43.4769 119.393 41.0126 114.26 36.084 108.033L33.1442 104.125C32.5389 103.309 31.804 102.063 30.8528 100.388C29.9449 98.713 29.1235 97.4246 28.475 96.5226C27.913 95.5348 27.0051 94.547 25.8378 93.5592C24.7137 92.5714 23.4167 91.9271 21.99 91.5835C20.1743 91.9271 18.9205 92.5284 18.3152 93.3444C17.71 94.1605 17.3641 95.0624 17.2776 96.0073C17.1479 96.9092 16.8885 97.5105 16.4562 97.8111C16.0239 98.0688 15.2889 98.2835 14.2946 98.4983C14.0784 98.4983 13.6893 98.4983 13.1273 98.5412H11.96C9.66861 98.5412 8.11222 98.7989 7.2908 99.2284C6.20997 100.474 5.64794 101.891 5.64794 103.394C5.64794 104.082 5.82087 105.241 6.16673 106.873C6.5126 108.462 6.68553 109.751 6.68553 110.653C6.68553 112.414 6.16673 114.175 5.08591 115.935C4.00508 117.782 3.44305 119.157 3.44305 120.136C3.87538 121.802 6.72876 122.975 11.96 123.662V123.675ZM26.3566 84.6216C26.3566 81.6581 27.1348 78.394 28.7344 74.5286C30.2908 70.6632 31.8472 68.0863 33.3603 66.3684C33.2739 65.9389 33.0577 65.9389 32.7119 65.9389L32.2795 65.5094C31.0258 66.7978 29.5126 69.8043 27.6968 74.0991C25.881 77.9645 24.9299 81.5292 24.9299 84.1491C24.9299 86.0818 25.4055 87.7568 26.2701 89.2171C27.2212 90.6344 29.5126 92.6959 33.1442 95.3158L37.7269 98.2793C42.6122 102.488 45.2062 105.409 45.2062 107.127C45.2062 108.029 44.7739 108.931 43.4769 109.918C42.6122 110.949 41.4449 111.465 40.4506 111.465C40.3641 111.465 40.3209 111.55 40.3209 111.765C40.3209 111.808 40.7532 112.667 41.6611 114.342C43.4769 116.79 47.3679 117.993 52.5558 117.993C62.0671 117.993 69.4167 114.127 75.037 106.397C75.037 104.249 75.037 102.918 74.6047 102.359V100.77C74.6047 97.9786 75.037 95.8741 75.9017 94.4998C76.7664 93.1254 77.631 92.4812 78.928 92.4812C79.7927 92.4812 80.6573 92.7818 81.522 93.426C81.9543 90.119 81.9543 87.2414 81.9543 84.6645C81.9543 80.7562 81.9543 77.535 81.0897 74.5286C80.6573 71.9517 79.7927 69.8043 78.928 68.0863C78.0634 66.7978 77.1987 65.5094 76.334 64.2209C75.4694 62.9325 75.037 61.644 74.1724 60.3555C73.7401 58.6376 73.3077 57.3491 73.3077 55.2017C72.0107 53.0543 71.1461 50.9068 69.8491 48.7594C68.9844 46.6119 68.1197 44.4645 67.2551 42.7466L63.3641 45.753C59.0408 48.7594 55.5822 50.0478 52.5558 50.0478C49.9619 50.0478 47.8002 49.6184 46.5032 47.9004L43.9092 45.753C43.9092 47.0414 43.4769 48.7594 42.6122 50.4773L39.8885 55.6312C38.678 58.6376 38.0295 60.3555 37.8998 61.644C37.7269 62.503 37.5972 63.3619 37.5107 63.3619L34.2682 69.8043C30.7664 76.2466 28.9938 82.2164 28.9938 87.1555C28.9938 88.1434 29.0803 89.1741 29.2532 90.2049C27.3077 88.8735 26.3566 87.0267 26.3566 84.6216V84.6216ZM57.3115 125.251C51.6912 125.251 47.3679 126.007 44.3416 127.506V127.377C42.1799 129.954 39.7588 131.285 36.3867 131.285C34.2682 131.285 30.9393 130.469 26.4431 128.837C21.9036 127.291 17.8829 126.106 14.381 125.324C14.0352 125.225 13.257 125.079 12.0032 124.882C10.7927 124.688 9.66861 124.491 8.67425 124.293C7.76636 124.1 6.72876 123.808 5.6047 123.413C4.52388 123.074 3.65922 122.631 3.01072 122.094C2.4141 121.553 2.12012 120.943 2.12012 120.26C2.12012 119.573 2.26711 118.839 2.56109 118.057C2.83779 117.585 3.14042 117.112 3.44305 116.683C3.74568 116.21 4.00508 115.781 4.17801 115.351C4.43741 114.965 4.61034 114.578 4.78328 114.149C4.95621 113.762 5.12914 113.376 5.21561 112.903C5.30207 112.474 5.38854 112.044 5.38854 111.615C5.38854 111.185 5.21561 109.897 4.86974 107.621C4.52388 105.387 4.35094 103.97 4.35094 103.369C4.35094 101.479 4.78328 99.9757 5.7344 98.902C6.68553 97.8283 7.59343 97.27 8.54455 97.27H13.5164C13.9055 97.27 14.5107 97.0552 15.4186 96.5398C15.7212 95.8527 15.9806 95.2943 16.1536 94.7789C16.3697 94.2635 16.4562 93.877 16.5427 93.7052C16.6291 93.4475 16.7156 93.1898 16.8021 92.9751C16.975 92.6744 17.1912 92.3309 17.4938 91.9873C17.1479 91.5578 16.975 90.9994 16.975 90.3123C16.975 89.8398 16.975 89.4103 17.0615 89.1527C17.0615 87.6065 17.7964 85.4161 19.3528 82.5385L20.866 79.8328C22.1197 77.5135 23.0709 75.7956 23.7626 74.0776C24.4976 72.3597 25.2758 69.7828 26.1404 66.3469C26.8322 63.3405 28.475 60.3341 31.069 57.3276L34.3115 53.4623C36.5596 50.8853 38.0295 48.7379 38.851 47.02C39.6724 45.302 40.1047 43.1546 40.1047 41.4366C40.1047 40.5776 39.8885 38.0007 39.413 33.7059C38.9807 29.411 38.7645 25.1161 38.7645 21.2507C38.7645 18.2443 39.0239 16.0969 39.5859 13.9494C40.1479 11.802 41.1423 9.65457 42.6122 7.93663C43.9092 6.21868 45.6385 4.50073 48.2325 3.64175C50.8265 2.78278 53.8528 2.35329 57.3115 2.35329C58.6085 2.35329 59.9055 2.35329 61.2025 2.78278C62.4994 2.78278 64.2288 3.21227 66.3904 4.07124C68.1197 4.93022 69.8491 5.78919 71.1461 7.07765C72.8754 8.36611 74.1724 10.5135 75.4694 12.661C76.334 15.2379 77.1987 17.8148 77.631 21.2507C78.0634 23.3982 78.0634 25.5456 78.4957 28.552C78.4957 31.1289 78.928 32.8469 78.928 34.1353C79.3604 35.4238 79.3604 37.1417 79.7927 39.2892C80.225 41.0071 80.6573 42.7251 81.522 44.0135C82.3867 45.7315 83.2513 47.4494 84.5483 49.1674C85.8453 51.3148 87.5746 53.4623 89.304 56.0392C93.1949 60.3341 96.2213 65.0584 97.9506 69.7828C100.112 74.0776 101.409 79.661 101.409 85.6309C101.409 88.5943 100.977 91.4719 100.112 94.2635C100.977 94.2635 101.409 94.6071 101.842 95.2084C102.274 95.8097 102.706 97.0982 103.139 99.1168L103.571 102.295C104.003 103.24 104.436 104.142 105.733 104.915C106.597 105.688 107.462 106.332 108.759 106.848C109.624 107.277 110.921 107.878 111.785 108.651C112.65 109.51 113.082 110.412 113.082 111.357C113.082 112.817 112.65 113.891 111.785 114.664C110.921 115.523 110.056 116.124 108.759 116.511C107.894 116.94 106.165 117.799 103.571 119.011C101.409 120.282 99.2476 121.824 97.0859 123.649L92.7626 127.304C91.0333 128.979 89.304 130.182 88.007 130.912C86.71 131.685 84.9807 132.071 83.2513 132.071L80.225 131.728C76.7664 130.826 74.6047 129.108 73.3077 126.488C66.3904 125.655 60.7701 125.242 57.3115 125.242" fill="black"/>
</svg>
