<svg width="170" height="102" viewBox="0 0 170 102" fill="none" xmlns="http://www.w3.org/2000/svg">
<path d="M40.1128 26.5931H72.1764V29.1267H43.052V48.1954H70.4396V50.729H43.052V71.6646H72.5104V74.1983H40.1128V26.5931ZM75.0488 26.5931H78.4555L93.5521 47.5287L108.983 26.5931L129.971 0L95.4893 49.7289L113.258 74.1983H109.717L93.5521 51.9292L77.3199 74.1983H73.8464L91.7485 49.7289L75.0488 26.5931ZM114.527 29.1267V26.5931H151.066V29.1267H134.233V74.1983H131.294V29.1267H114.527ZM0 26.5931H3.67395L54.3356 101.962L33.3995 74.1983L3.07276 30.1934L2.93916 74.1983H0V26.5931ZM150.77 70.9001C150.169 70.9001 149.719 70.4375 149.719 69.8397C149.719 69.242 150.169 68.7794 150.77 68.7794C151.378 68.7794 151.821 69.242 151.821 69.8397C151.821 70.4375 151.378 70.9001 150.77 70.9001ZM153.658 68.1105H155.231C155.252 68.9573 155.874 69.5266 156.789 69.5266C157.811 69.5266 158.39 68.9146 158.39 67.7689V60.5102H159.992V67.776C159.992 69.8397 158.791 71.0282 156.803 71.0282C154.938 71.0282 153.658 69.8753 153.658 68.1105ZM162.086 68.0179H163.673C163.809 68.9929 164.767 69.612 166.147 69.612C167.434 69.612 168.377 68.9502 168.377 68.0393C168.377 67.2565 167.777 66.7868 166.411 66.4666L165.082 66.1464C163.216 65.7123 162.365 64.8156 162.365 63.3069C162.365 61.478 163.866 60.2611 166.118 60.2611C168.213 60.2611 169.743 61.478 169.836 63.2073H168.277C168.127 62.2608 167.298 61.6702 166.097 61.6702C164.831 61.6702 163.988 62.2751 163.988 63.2002C163.988 63.9332 164.531 64.353 165.875 64.6662L167.012 64.9437C169.128 65.4347 170 66.2887 170 67.8329C170 69.797 168.47 71.0282 166.025 71.0282C163.738 71.0282 162.201 69.854 162.086 68.0179Z" fill="#01FF94"/>
</svg>
