<svg width="145" height="87" viewBox="0 0 145 87" fill="none" xmlns="http://www.w3.org/2000/svg">
<path d="M34.2139 22.6823H61.5622V24.8433H36.7208V41.1079H60.0809V43.2689H36.7208V61.1257H61.8471V63.2867H34.2139V22.6823ZM64.0122 22.6823H66.9179L79.7944 40.5392L92.9558 22.6823L110.857 0L81.4467 42.4158L96.6023 63.2867H93.5826L79.7944 44.2925L65.9494 63.2867H62.9866L78.2561 42.4158L64.0122 22.6823ZM97.6848 24.8433V22.6823H128.851V24.8433H114.493V63.2867H111.986V24.8433H97.6848ZM0 22.6823H3.13366L46.345 86.9673L28.4878 63.2867L2.62088 25.7532L2.50693 63.2867H0V22.6823ZM128.598 60.4736C128.086 60.4736 127.702 60.079 127.702 59.5692C127.702 59.0593 128.086 58.6648 128.598 58.6648C129.116 58.6648 129.494 59.0593 129.494 59.5692C129.494 60.079 129.116 60.4736 128.598 60.4736ZM131.061 58.0942H132.403C132.421 58.8165 132.951 59.3021 133.732 59.3021C134.604 59.3021 135.098 58.7801 135.098 57.8029V51.6117H136.464V57.8089C136.464 59.5692 135.439 60.5828 133.744 60.5828C132.153 60.5828 131.061 59.5995 131.061 58.0942ZM138.25 58.0153H139.604C139.72 58.8469 140.537 59.3749 141.713 59.3749C142.811 59.3749 143.616 58.8104 143.616 58.0335C143.616 57.3658 143.104 56.9652 141.939 56.6921L140.805 56.4189C139.214 56.0487 138.488 55.2839 138.488 53.9971C138.488 52.4371 139.768 51.3992 141.689 51.3992C143.476 51.3992 144.78 52.4371 144.86 53.9121H143.531C143.402 53.1048 142.695 52.601 141.671 52.601C140.592 52.601 139.872 53.117 139.872 53.906C139.872 54.5312 140.335 54.8894 141.482 55.1564L142.451 55.3931C144.256 55.812 145 56.5403 145 57.8575C145 59.5328 143.695 60.5828 141.61 60.5828C139.659 60.5828 138.348 59.5813 138.25 58.0153Z" fill="black"/>
</svg>
