<svg width="243" height="100" viewBox="0 0 243 100" fill="none" xmlns="http://www.w3.org/2000/svg">
<path d="M115.51 84.0564V52.4406L88.1327 36.6436L60.7554 52.4406V84.0564L88.1327 99.8642L115.51 84.0564Z" fill="#01FF94"/>
<path d="M223.321 79.2556L241.162 89.5599L223.321 99.8642L195.944 84.0564V52.4514L223.321 36.6436L239.908 46.2234C241.594 53.3381 242.622 60.5932 243 67.9025L232.858 73.7629V62.7557L223.321 57.2522L213.785 62.7557V73.7629L223.321 79.2556Z" fill="#01FF94"/>
<path d="M228.641 71.3193V65.1778L223.332 62.1071L218.012 65.1778V71.3193L223.332 74.3901L228.641 71.3193Z" fill="black"/>
<path d="M47.8237 52.4514V94.1336L29.5614 83.7212V62.3449L20.4464 57.0792L11.3315 62.3449V83.7104L0.962312 89.6248C0.324375 84.5429 0 79.4178 0 74.2927C0 64.7777 1.09206 55.5114 3.15725 46.6235L20.4464 36.6436L47.8237 52.4514Z" fill="#01FF94"/>
<path d="M88.1219 36.6328L115.499 84.0456L88.1219 99.8535L60.7554 52.4407L88.1219 36.6328Z" fill="#01FF94"/>
<path d="M60.7554 84.0564L70.1515 68.7243L60.7554 52.4407V84.0564Z" fill="#01FF94"/>
<path d="M106.373 68.2485L115.499 52.4406L88.1327 36.6436L106.373 68.2485Z" fill="#01FF94"/>
<path d="M164.599 0V41.9417L155.419 36.6436L128.042 52.4514V84.0672L155.419 99.875L182.796 84.0672V9.74206L164.599 0ZM164.545 73.5142L155.419 78.7799L146.293 73.5142V62.9828L155.419 57.7171L164.545 62.9828V73.5142Z" fill="#01FF94"/>
</svg>
