<svg width="186" height="77" viewBox="0 0 186 77" fill="none" xmlns="http://www.w3.org/2000/svg">
<path d="M88.415 64.3394V40.1397L67.4596 28.0482L46.5042 40.1397V64.3394L67.4596 76.4393L88.415 64.3394Z" fill="#3B8739"/>
<path d="M170.937 60.6648L184.593 68.552L170.937 76.4393L149.982 64.3394V40.148L170.937 28.0482L183.633 35.3809C184.924 40.8267 185.71 46.38 186 51.9747L178.237 56.4605V48.0353L170.937 43.8227L163.638 48.0353V56.4605L170.937 60.6648Z" fill="#333333"/>
<path d="M175.009 54.59V49.8891L170.946 47.5387L166.874 49.8891V54.59L170.946 56.9405L175.009 54.59Z" fill="#66A060"/>
<path d="M36.6058 40.148V72.0529L22.6272 64.0829V47.7208L15.6504 43.6902L8.67349 47.7208V64.0746L0.736585 68.6017C0.248287 64.7119 0 60.7889 0 56.866C0 49.5829 0.835899 42.4902 2.41666 35.6871L15.6504 28.0482L36.6058 40.148Z" fill="#333333"/>
<path d="M67.4513 28.0399L88.4067 64.3311L67.4513 76.431L46.5042 40.1397L67.4513 28.0399Z" fill="#6DA75D"/>
<path d="M46.5042 64.3394L53.6962 52.6037L46.5042 40.1397V64.3394Z" fill="#55A344"/>
<path d="M81.4216 52.2396L88.4067 40.1397L67.4596 28.0482L81.4216 52.2396Z" fill="#639D57"/>
<path d="M125.989 0V32.1035L118.963 28.0481L98.0071 40.148V64.3477L118.963 76.4475L139.918 64.3477V7.45688L125.989 0ZM125.948 56.2701L118.963 60.3006L111.977 56.2701V48.209L118.963 44.1785L125.948 48.209V56.2701Z" fill="#333333"/>
</svg>
