<svg width="264" height="101" viewBox="0 0 264 101" fill="none" xmlns="http://www.w3.org/2000/svg">
<g clip-path="url(#clip0_320_46)">
<path d="M0 0V86.353H73.3899V100.828H132V86.353H264V0H0Z" fill="#01FF94"/>
<path d="M43.8301 14.4755H14.7798V28.951V71.8777H43.8301V28.951H58.61V71.8777H73.3899V28.951V14.4755H43.8301Z" fill="black"/>
<path d="M88.1698 14.4755V68.8829V71.8777V86.353H117.73V71.8777H146.78V14.4755H88.1698ZM132 57.4024H117.73V28.951H132V57.4024Z" fill="black"/>
<path d="M190.61 14.4755H161.56V28.951V71.8777H190.61V28.951H205.39V71.8777H220.17V28.951H234.95V71.8777H249.73V28.951V15.4737V14.4755H190.61Z" fill="black"/>
</g>
<defs>
<clipPath id="clip0_320_46">
<rect width="264" height="101" fill="white"/>
</clipPath>
</defs>
</svg>
