<svg width="102" height="101" viewBox="0 0 102 101" fill="none" xmlns="http://www.w3.org/2000/svg">
<path d="M50.3984 0C24.6241 1.83894e-06 26.2336 11.1773 26.2336 11.1773L26.2623 22.7568H50.8581V26.2336H16.493C16.493 26.2336 0 24.3631 0 50.3696C-1.83894e-06 76.3761 14.3954 75.4539 14.3954 75.4539H22.9867V63.3858C22.9867 63.3858 22.5236 48.9904 37.1523 48.9904C51.7809 48.9904 61.5469 48.9904 61.5469 48.9904C61.5469 48.9904 75.2527 49.212 75.2527 35.7443C75.2527 22.2767 75.2527 13.476 75.2527 13.476C75.2527 13.476 77.3337 0 50.3984 0ZM36.8362 7.78675C39.2833 7.78675 41.2611 9.76459 41.2611 12.2117C41.2611 14.6588 39.2833 16.6366 36.8362 16.6366C34.3891 16.6366 32.4113 14.6588 32.4113 12.2117C32.4113 9.76459 34.3891 7.78675 36.8362 7.78675Z" fill="url(#paint0_linear_320_60)"/>
<path d="M51.1304 101C76.9047 101 75.2951 89.8227 75.2951 89.8227L75.2664 78.2432H50.6706V74.7664H85.0358C85.0358 74.7664 101.529 76.6369 101.529 50.6304C101.529 24.6239 87.1333 25.5462 87.1333 25.5462H78.542V37.6142C78.542 37.6142 79.0051 52.0096 64.3764 52.0096C49.7478 52.0096 39.9818 52.0096 39.9818 52.0096C39.9818 52.0096 26.276 51.788 26.276 65.2557C26.276 78.7233 26.276 87.5241 26.276 87.5241C26.276 87.5241 24.1951 101 51.1304 101ZM64.6925 93.2133C62.2454 93.2133 60.2676 91.2354 60.2676 88.7883C60.2676 86.3412 62.2454 84.3634 64.6925 84.3634C67.1396 84.3634 69.1175 86.3412 69.1175 88.7883C69.1175 91.2354 67.1396 93.2133 64.6925 93.2133Z" fill="url(#paint1_linear_320_60)"/>
<defs>
<linearGradient id="paint0_linear_320_60" x1="9.7571" y1="8.8283" x2="59.9601" y2="59.1992" gradientUnits="userSpaceOnUse">
<stop stop-color="#01FF94"/>
<stop offset="1" stop-color="#00C09E"/>
</linearGradient>
<linearGradient id="paint1_linear_320_60" x1="40.6398" y1="40.872" x2="94.558" y2="92.5284" gradientUnits="userSpaceOnUse">
<stop stop-color="#01FF94"/>
<stop offset="1" stop-color="#31FFCE"/>
</linearGradient>
</defs>
</svg>
