<svg width="79" height="101" viewBox="0 0 79 101" fill="none" xmlns="http://www.w3.org/2000/svg">
<g clip-path="url(#clip0_327_155)">
<path d="M21.3849 0.00154922C20.8748 0.0173 20.3255 0.206001 19.7022 0.697981C18.1762 0.109025 16.6955 -0.0957351 15.372 1.10349C13.3282 0.838194 12.6641 1.38577 12.1608 2.02506C11.7121 2.0158 8.80356 1.56335 7.46951 3.55474C4.11757 3.15788 3.05816 5.52791 4.25859 7.73828C3.57382 8.79883 2.86437 9.84672 4.46535 11.869C3.89908 12.995 4.25026 14.2168 5.58431 15.6952C5.23252 17.2786 5.92438 18.3954 7.16586 19.266C6.93348 21.4325 9.15104 22.6923 9.81297 23.141C10.0673 24.4032 10.5971 25.5947 13.1297 26.2532C13.5476 28.1346 15.0696 28.4595 16.5437 28.8542C11.6719 31.6884 7.4942 35.417 7.52259 44.5664L6.80881 45.8404C1.22265 49.2401 -3.80311 60.1674 4.05616 69.049C4.56935 71.8292 5.43032 73.8261 6.19687 76.0362C7.3433 84.9419 14.8258 89.1121 16.7995 89.6053C19.6914 91.8098 22.7714 93.9016 26.9399 95.367C30.8686 99.4224 35.1254 100.968 39.4053 100.966C39.4682 100.966 48.1314 99.4227 52.0607 95.367C56.2286 93.9016 59.3086 91.8098 62.2011 89.6053C64.1742 89.1121 71.6567 84.9419 72.8031 76.0362C73.5697 73.8261 74.4307 71.8292 74.9442 69.049C82.8028 60.1665 77.7774 49.2388 72.1915 45.8391L71.4765 44.5652C71.5049 35.4167 67.3271 31.6878 62.4554 28.853C63.9292 28.4583 65.4518 28.1334 65.869 26.2519C68.4017 25.5932 68.9318 24.402 69.1858 23.1398C69.848 22.691 72.0653 21.4313 71.8335 19.2648C73.0744 18.3942 73.7666 17.2771 73.4145 15.694C74.7488 14.2156 75.0997 12.9938 74.5334 11.8675C76.135 9.84641 75.4243 8.79852 74.7405 7.73797C75.9403 5.52761 74.8815 3.15727 71.5283 3.55443C70.1952 1.56304 67.287 2.01518 66.8371 2.02444C66.3341 1.38546 65.67 0.837885 63.6262 1.10318C62.3026 -0.0960439 60.8226 0.108408 59.296 0.697672C57.4833 -0.733797 56.2841 0.41354 54.914 0.847459C52.7192 0.129717 52.2171 1.11275 51.1389 1.51332C48.7455 1.00713 48.0181 2.10907 46.8711 3.27215L45.5361 3.24559C41.9262 5.37473 40.1326 9.71021 39.4969 11.9391C38.8612 9.70991 37.0717 5.37442 33.4624 3.24559L32.1277 3.27215C30.9788 2.10907 30.2518 1.00713 27.8583 1.51332C26.7798 1.11275 26.2798 0.129717 24.0833 0.847459C23.184 0.56271 22.357 -0.0290258 21.3834 0.00124038L-3.39453 43.5463" fill="black"/>
<path d="M14.1979 9.36837C23.7754 14.3101 29.3433 18.3077 32.3938 21.7124C30.8317 27.9784 22.6823 28.2644 19.7026 28.0886C20.3126 27.8045 20.8218 27.4639 21.0024 26.941C20.2546 26.4092 17.6035 26.8848 15.7526 25.8443C16.4636 25.6967 16.7962 25.5531 17.1286 25.0281C15.3801 24.47 13.4964 23.9888 12.3886 23.0641C12.9863 23.0716 13.5446 23.1982 14.3253 22.6562C12.7592 21.8115 11.0879 21.1419 9.78929 19.8507C10.599 19.8309 11.4721 19.8426 11.726 19.5446C10.2926 18.6558 9.08292 17.6675 8.08184 16.5862C9.215 16.7231 9.69362 16.6054 9.96766 16.4077C8.88387 15.2968 7.51248 14.3589 6.85857 12.9901C7.6998 13.2804 8.46974 13.3916 9.02459 12.9648C8.65644 12.1334 7.07891 11.643 6.17041 9.70006C7.05638 9.78623 7.99574 9.89339 8.18368 9.70006C7.77263 8.02368 7.06718 7.0811 6.37532 6.10455C8.27101 6.07645 11.1434 6.11197 11.0135 5.95168L9.84113 4.75307C11.693 4.25399 13.5878 4.83306 14.9635 5.26297C15.581 4.77531 14.9524 4.15856 14.1988 3.52884C15.7726 3.73916 17.1946 4.10112 18.4802 4.59989C19.1668 3.97943 18.0343 3.35867 17.4862 2.73821C19.9176 3.19961 20.9477 3.84849 21.9713 4.49797C22.7141 3.78548 22.0139 3.17985 21.5128 2.5597C23.3461 3.23915 24.2904 4.11656 25.2844 4.98254C25.6214 4.52731 26.1407 4.19346 25.5137 3.09523C26.8153 3.84601 27.7957 4.73084 28.5209 5.72221C29.3264 5.20892 29.0008 4.50724 29.0051 3.86022C30.358 4.96154 31.2165 6.13359 32.2673 7.27783C32.479 7.12341 32.6641 6.60055 32.828 5.77317C36.0549 8.90634 40.615 16.7987 34 19.9279C28.3703 15.2811 21.6467 11.9033 14.1957 9.3696L14.1979 9.36837ZM65.0165 9.36837C55.4402 14.3107 49.8722 18.3071 46.8221 21.7124C48.3842 27.9784 56.5332 28.2644 59.513 28.0886C58.9029 27.8045 58.3937 27.4639 58.2135 26.941C58.9612 26.4092 61.6124 26.8848 63.463 25.8443C62.752 25.6967 62.4196 25.5531 62.087 25.0281C63.8358 24.47 65.7194 23.9888 66.827 23.0641C66.2292 23.0716 65.671 23.1982 64.8903 22.6562C66.4567 21.8115 68.128 21.1419 69.4266 19.8507C68.6165 19.8309 67.7435 19.8426 67.4898 19.5446C68.9233 18.6558 70.133 17.6675 71.134 16.5862C70.0006 16.7231 69.5222 16.6054 69.2482 16.4077C70.3317 15.2968 71.7034 14.3589 72.3573 12.9901C71.5158 13.2804 70.7458 13.3916 70.191 12.9648C70.5591 12.1334 72.137 11.643 73.0452 9.70006C72.1595 9.78623 71.2198 9.89339 71.0319 9.70006C71.4439 8.02306 72.1493 7.08049 72.8412 6.10394C70.9455 6.07583 68.0731 6.11135 68.203 5.95106L69.3754 4.75215C67.5235 4.25337 65.6287 4.83245 64.253 5.26235C63.6355 4.77469 64.2638 4.15794 65.0174 3.52822C63.4439 3.73823 62.0216 4.1005 60.7363 4.59927C60.0493 3.97882 61.1822 3.35805 61.7303 2.73759C59.2988 3.199 58.2688 3.84787 57.2448 4.49736C56.5021 3.78486 57.2026 3.17923 57.7037 2.55908C55.8704 3.23853 54.9261 4.11594 53.9321 4.98192C53.5948 4.5267 53.0757 4.19284 53.7025 3.09461C52.4012 3.8454 51.4208 4.73022 50.6956 5.72159C49.8901 5.2083 50.2157 4.50631 50.2114 3.8596C48.8585 4.96092 48 6.13266 46.9492 7.27722C46.7375 7.1228 46.5524 6.59993 46.3885 5.77224C43.1616 8.90573 38.6015 16.7981 45.2165 19.9273C50.8431 15.2792 57.5664 11.9021 65.0177 9.36837H65.0165Z" fill="#00A962"/>
<path d="M51.2061 73.1741C51.2394 79.0214 46.13 83.7865 39.7943 83.817C33.4582 83.8479 28.2948 79.1329 28.2615 73.2856C28.2612 73.2485 28.2612 73.2113 28.2615 73.1741C28.2282 67.3272 33.3373 62.5621 39.6733 62.5312C46.0094 62.5003 51.1724 67.2154 51.2061 73.0626V73.1741ZM33.0956 42.9298C37.8492 46.0469 38.7062 53.1119 35.0095 58.71C31.3129 64.3083 24.4627 66.3201 19.7092 63.2033C14.9556 60.0861 14.0989 53.0211 17.7953 47.4231C21.4919 41.8248 28.3421 39.813 33.0956 42.9298ZM45.9257 42.3656C41.1725 45.4824 40.3155 52.5477 44.0118 58.1457C47.7085 63.744 54.5586 65.7558 59.3122 62.6387C64.0658 59.5219 64.9228 52.4569 61.2261 46.8586C57.5298 41.2606 50.6796 39.2488 45.9257 42.3656ZM9.33763 48.0257C14.4698 46.6489 11.0704 69.2747 6.89449 67.4183C2.30107 63.7209 0.821674 52.8927 9.33763 48.0257ZM68.6478 47.7437C63.515 46.3672 66.915 68.994 71.0909 67.1376C75.6844 63.4398 77.1638 52.6104 68.6478 47.7437ZM51.2101 30.8944C60.067 29.3977 67.4369 34.6641 67.1394 44.2757C66.8481 47.9608 47.947 31.4432 51.2101 30.8944ZM26.7386 30.6124C17.881 29.1155 10.5118 34.383 10.8093 43.9941C11.1006 47.6788 30.002 31.1612 26.7386 30.6124ZM39.4613 28.3708C34.1751 28.2331 29.1018 32.2971 29.0895 34.6545C29.075 37.5187 33.2691 40.4514 39.4974 40.5258C45.8575 40.5712 49.9162 38.1783 49.9365 35.2224C49.96 31.8734 44.1519 28.3193 39.4613 28.3708ZM39.7841 87.1059C44.3929 86.9045 50.5772 88.5914 50.5895 90.8295C50.666 93.0025 44.9808 97.9124 39.4786 97.8176C33.7801 98.0638 28.1924 93.1461 28.2655 91.4416C28.1801 88.9425 35.204 86.9913 39.7841 87.1059ZM22.7608 73.8428C26.0421 77.799 27.5382 84.7497 24.7997 86.7989C22.2091 88.3631 15.9178 87.7189 11.4462 81.2898C8.43036 75.895 8.81888 70.4054 10.9365 68.7926C14.1029 66.8624 18.9954 69.4699 22.7611 73.8428H22.7608ZM56.1507 72.5886C52.6003 76.7502 50.6235 84.3408 53.2132 86.7856C55.6896 88.685 62.3374 88.4194 67.2477 81.6005C70.8132 77.0207 69.6186 69.3723 67.5819 67.3414C64.5565 64.9995 60.213 67.9968 56.1507 72.5873V72.5886Z" fill="#01FF94"/>
</g>
<defs>
<clipPath id="clip0_327_155">
<rect width="79" height="101" fill="white"/>
</clipPath>
</defs>
</svg>
