<svg width="246" height="100" viewBox="0 0 246 100" fill="none" xmlns="http://www.w3.org/2000/svg">
<path d="M55.8946 74.24C24.545 74.24 0 63.5471 0 49.938C0 36.3289 24.545 25.636 55.8946 25.636C87.2441 25.636 111.789 36.3289 111.789 49.938C111.789 63.5471 87.2441 74.24 55.8946 74.24ZM55.8946 30.4964C25.2741 30.4964 4.8604 40.4602 4.8604 49.938C4.8604 59.4157 25.2741 69.3796 55.8946 69.3796C86.5151 69.3796 106.929 59.4157 106.929 49.938C106.929 40.4602 86.5151 30.4964 55.8946 30.4964Z" fill="#01FF94"/>
<path d="M34.2656 100C31.8354 100 29.8913 99.514 27.9471 98.2989C16.0391 91.4943 19.1984 65.0051 34.7517 37.7869C42.0423 25.1499 51.034 14.457 59.7827 7.65246C69.2605 0.361862 77.7662 -1.82532 83.5987 1.57696C89.6742 4.97924 91.8614 13.4849 90.4032 25.3929C88.9451 36.5718 84.0847 49.6949 76.7941 62.3319C69.5035 74.969 60.5118 85.6618 51.7631 92.4664C45.4446 97.3268 39.3691 100 34.2656 100ZM77.5232 4.73622C73.6349 4.73622 68.5314 6.9234 62.942 11.2978C54.6793 17.8593 46.1736 28.0661 39.126 40.2171C23.8158 66.7063 22.3577 89.5502 30.3773 94.1675C34.5087 96.5977 41.3132 94.4106 48.8468 88.5781C57.1095 82.0165 65.6152 71.8097 72.6628 59.6587C79.7104 47.5077 84.3277 35.1137 85.7859 24.6638C87.001 14.9431 85.5428 8.1385 81.4115 5.7083C80.1964 5.22226 78.9813 4.73622 77.5232 4.73622Z" fill="#01FF94"/>
<path d="M77.7664 100C65.6154 100 48.1179 85.1758 34.9949 62.0889C19.1986 34.8707 16.0393 8.38151 27.9473 1.57695C39.8553 -5.2276 61.241 10.5687 77.0373 37.7869C84.3279 50.4239 89.1883 63.547 90.6464 74.7259C92.3476 86.6339 89.9174 94.8966 83.8419 98.5419C81.8977 99.514 79.9536 100 77.7664 100ZM30.3775 5.70829C22.3578 10.3257 23.816 33.1695 39.1262 59.6587C54.4365 86.1479 73.392 98.7849 81.4117 94.1675C85.543 91.7373 87.0011 84.9328 85.786 75.212C84.3279 64.7621 79.7105 52.3681 72.663 40.2171C57.3527 13.7279 38.3972 1.09091 30.3775 5.70829Z" fill="#01FF94"/>
<path d="M55.8945 59.6588C61.2631 59.6588 65.6153 55.3066 65.6153 49.938C65.6153 44.5693 61.2631 40.2172 55.8945 40.2172C50.5259 40.2172 46.1737 44.5693 46.1737 49.938C46.1737 55.3066 50.5259 59.6588 55.8945 59.6588Z" fill="#01FF94"/>
<path d="M126.672 37.1554H143.472C146.272 37.1554 148.299 37.7954 149.552 39.0754C150.832 40.3287 151.472 42.3554 151.472 45.1554V48.7554C151.472 50.9687 151.099 52.6887 150.352 53.9154C149.632 55.1421 148.472 55.9554 146.872 56.3554L151.872 65.1554H144.072L139.472 56.7554H133.872V65.1554H126.672V37.1554ZM144.272 45.1554C144.272 43.5554 143.472 42.7554 141.872 42.7554H133.872V51.1554H141.872C143.472 51.1554 144.272 50.3554 144.272 48.7554V45.1554ZM163.261 48.5554C162.194 48.5554 161.661 49.0887 161.661 50.1554V52.3554H168.461V50.1554C168.461 49.0887 167.928 48.5554 166.861 48.5554H163.261ZM174.661 64.7554C169.514 65.2887 164.848 65.5554 160.661 65.5554C158.848 65.5554 157.394 65.0087 156.301 63.9154C155.208 62.8221 154.661 61.3687 154.661 59.5554V49.9554C154.661 47.9554 155.221 46.3954 156.341 45.2754C157.488 44.1287 159.061 43.5554 161.061 43.5554H169.061C171.061 43.5554 172.621 44.1287 173.741 45.2754C174.888 46.3954 175.461 47.9554 175.461 49.9554V57.3554H161.661V58.9554C161.661 59.3554 161.794 59.6887 162.061 59.9554C162.328 60.2221 162.661 60.3554 163.061 60.3554C165.701 60.3554 169.568 60.1554 174.661 59.7554V64.7554ZM187.445 59.9554C188.859 59.9554 190.459 59.6887 192.245 59.1554V56.7554H186.445C186.045 56.7554 185.712 56.8887 185.445 57.1554C185.179 57.4221 185.045 57.7554 185.045 58.1554V58.5554C185.045 58.9554 185.179 59.2887 185.445 59.5554C185.712 59.8221 186.045 59.9554 186.445 59.9554H187.445ZM180.045 44.3554C184.925 43.8221 189.325 43.5554 193.245 43.5554C195.059 43.5554 196.512 44.1021 197.605 45.1954C198.699 46.2887 199.245 47.7421 199.245 49.5554V65.1554H193.045L192.645 63.1554C191.392 63.9821 190.099 64.5954 188.765 64.9954C187.459 65.3687 186.352 65.5554 185.445 65.5554H184.045C182.232 65.5554 180.779 65.0087 179.685 63.9154C178.592 62.8221 178.045 61.3687 178.045 59.5554V57.7554C178.045 55.9421 178.592 54.4887 179.685 53.3954C180.779 52.3021 182.232 51.7554 184.045 51.7554H192.245V50.1554C192.245 49.7554 192.112 49.4221 191.845 49.1554C191.579 48.8887 191.245 48.7554 190.845 48.7554C189.112 48.7554 187.192 48.8354 185.085 48.9954C183.005 49.1554 181.325 49.2754 180.045 49.3554V44.3554ZM221.634 64.7554C216.648 65.2887 212.248 65.5554 208.434 65.5554C206.621 65.5554 205.168 65.0087 204.074 63.9154C202.981 62.8221 202.434 61.3687 202.434 59.5554V50.3554C202.434 48.3554 202.994 46.7954 204.114 45.6754C205.261 44.5287 206.834 43.9554 208.834 43.9554H221.634V49.3554H211.034C209.968 49.3554 209.434 49.8887 209.434 50.9554V58.7554C209.434 59.1554 209.568 59.4887 209.834 59.7554C210.101 60.0221 210.434 60.1554 210.834 60.1554C213.234 60.1554 216.834 59.9554 221.634 59.5554V64.7554ZM239.627 65.1554C237.04 65.4221 234.507 65.5554 232.027 65.5554C230.213 65.5554 228.76 65.0087 227.667 63.9154C226.573 62.8221 226.027 61.3687 226.027 59.5554V49.3554H223.627V43.9554H226.027L226.827 39.1554H233.027V43.9554H238.027V49.3554H233.027V58.5554C233.027 58.9554 233.16 59.2887 233.427 59.5554C233.693 59.8221 234.027 59.9554 234.427 59.9554H239.627V65.1554Z" fill="#01FF94"/>
</svg>
