<svg width="127" height="127" viewBox="0 0 127 127" fill="none" xmlns="http://www.w3.org/2000/svg">
<path d="M63.5 89.9583C29.3688 89.9583 2.64584 78.3167 2.64584 63.5C2.64584 48.6833 29.3688 37.0417 63.5 37.0417C97.6313 37.0417 124.354 48.6833 124.354 63.5C124.354 78.3167 97.6313 89.9583 63.5 89.9583ZM63.5 42.3333C30.1625 42.3333 7.93751 53.1812 7.93751 63.5C7.93751 73.8187 30.1625 84.6667 63.5 84.6667C96.8375 84.6667 119.063 73.8187 119.063 63.5C119.063 53.1812 96.8375 42.3333 63.5 42.3333Z" fill="#80DEEA"/>
<path d="M39.9521 118.004C37.3063 118.004 35.1896 117.475 33.0729 116.152C20.1083 108.744 23.5479 79.9042 40.4813 50.2708C48.4188 36.5125 58.2083 24.8708 67.7333 17.4625C78.0521 9.525 87.3125 7.14375 93.6625 10.8479C100.277 14.5521 102.658 23.8125 101.071 36.7771C99.4833 48.9479 94.1917 63.2354 86.2542 76.9937C78.3167 90.7521 68.5271 102.394 59.0021 109.802C52.1229 115.094 45.5083 118.004 39.9521 118.004ZM87.0479 14.2875C82.8146 14.2875 77.2583 16.6688 71.1729 21.4313C62.1771 28.575 52.9167 39.6875 45.2438 52.9167C28.575 81.7562 26.9875 106.627 35.7188 111.654C40.2167 114.3 47.625 111.919 55.8271 105.569C64.8229 98.425 74.0833 87.3125 81.7563 74.0833C89.4292 60.8542 94.4563 47.3604 96.0438 35.9833C97.3667 25.4 95.7792 17.9917 91.2813 15.3458C89.9583 14.8167 88.6354 14.2875 87.0479 14.2875Z" fill="#80DEEA"/>
<path d="M87.3125 118.004C74.0834 118.004 55.0333 101.865 40.7458 76.7292C23.5479 47.0958 20.1083 18.2563 33.0729 10.8479C46.0375 3.43959 69.3209 20.6375 86.5188 50.2708C94.4563 64.0292 99.7479 78.3167 101.335 90.4875C103.188 103.452 100.542 112.448 93.9271 116.417C91.8104 117.475 89.6938 118.004 87.3125 118.004ZM35.7188 15.3458C26.9875 20.3729 28.575 45.2438 45.2438 74.0833C61.9125 102.923 82.55 116.681 91.2813 111.654C95.7792 109.008 97.3667 101.6 96.0438 91.0167C94.4563 79.6396 89.4292 66.1458 81.7563 52.9167C65.0875 24.0771 44.45 10.3188 35.7188 15.3458Z" fill="#80DEEA"/>
<path d="M63.5 74.0833C69.345 74.0833 74.0833 69.345 74.0833 63.5C74.0833 57.655 69.345 52.9167 63.5 52.9167C57.655 52.9167 52.9167 57.655 52.9167 63.5C52.9167 69.345 57.655 74.0833 63.5 74.0833Z" fill="#80DEEA"/>
</svg>
