<svg width="112" height="107" viewBox="0 0 112 107" fill="none" xmlns="http://www.w3.org/2000/svg">
<path d="M77.3797 73.5644C81.5009 73.1409 84.6274 69.611 84.4852 65.3749C84.3433 61.1389 80.7903 57.7503 76.527 57.7503H76.2429C71.8374 57.8915 68.4266 61.5627 68.5688 65.9398C68.7109 68.0578 69.5636 69.8933 70.8426 71.1642C66.0106 80.6245 58.6208 87.5431 47.536 93.3323C40.004 97.2859 32.1879 98.6979 24.3718 97.7094C17.9767 96.8624 13.0028 94.0382 9.87628 89.3788C5.32868 82.46 4.90234 74.9764 8.73938 67.4928C11.4395 62.1274 15.7029 58.1738 18.403 56.197C17.8346 54.3613 16.9819 51.2551 16.5556 48.9959C-4.05074 63.8216 -1.91906 83.872 4.3339 93.3323C9.0236 100.392 18.5451 104.769 29.0614 104.769C31.9036 104.769 34.7461 104.487 37.5883 103.781C55.7786 100.251 69.5636 89.5201 77.3797 73.5644Z" fill="#764ABC"/>
<path d="M102.391 56.056C91.5908 43.4893 75.6743 36.5705 57.4838 36.5705H55.21C53.931 34.029 51.2309 32.3345 48.2466 32.3345H47.9623C43.5568 32.4758 40.1462 36.147 40.2881 40.5241C40.4303 44.76 43.983 48.1489 48.2466 48.1489H48.5307C51.6572 48.0077 54.3573 46.031 55.4943 43.3481H58.0522C68.8529 43.3481 79.0849 46.4545 88.3223 52.5261C95.4279 57.1855 100.544 63.2571 103.386 70.5995C105.802 76.5298 105.66 82.319 103.102 87.2611C99.1228 94.7444 92.4435 98.8393 83.6325 98.8393C77.9481 98.8393 72.5478 97.1449 69.7056 95.8741C68.1423 97.2861 65.3001 99.5453 63.3104 100.957C69.4213 103.781 75.6743 105.334 81.643 105.334C95.2857 105.334 105.376 97.8509 109.213 90.3673C113.334 82.1777 113.05 68.058 102.391 56.056Z" fill="#764ABC"/>
<path d="M30.1982 75.9651C30.3404 80.201 33.8931 83.5897 38.1567 83.5897H38.4408C42.8462 83.4487 46.2571 79.7775 46.1149 75.4003C45.9728 71.1642 42.42 67.7755 38.1567 67.7755H37.8724C37.588 67.7755 37.1618 67.7755 36.8775 67.9168C31.0509 58.3152 28.6349 47.8665 29.4876 36.5705C30.056 28.0986 32.8985 20.7562 37.8724 14.6847C41.9935 9.46032 49.952 6.91875 55.3521 6.77755C70.4161 6.49516 76.8111 25.1334 77.2376 32.617C79.0849 33.0405 82.2114 34.029 84.3431 34.735C82.6377 11.8607 68.4266 0 54.7837 0C41.9935 0 30.1982 9.17793 25.5086 22.733C18.9714 40.8066 23.2348 58.174 31.1931 71.8702C30.4825 72.8587 30.056 74.4119 30.1982 75.9651Z" fill="#764ABC"/>
</svg>
