<svg width="93" height="93" viewBox="0 0 93 93" fill="none" xmlns="http://www.w3.org/2000/svg">
<path fill-rule="evenodd" clip-rule="evenodd" d="M23.25 37.2C26.3495 24.8005 34.1005 18.6 46.5 18.6C65.1 18.6 67.425 32.55 76.725 34.875C82.9255 36.4255 88.35 34.1005 93 27.9C89.9005 40.2995 82.1495 46.5 69.75 46.5C51.15 46.5 48.825 32.55 39.525 30.225C33.3245 28.6745 27.9 30.9995 23.25 37.2ZM0 65.1C3.09952 52.7005 10.8505 46.5 23.25 46.5C41.85 46.5 44.175 60.45 53.475 62.775C59.6755 64.3255 65.1 62.0005 69.75 55.8C66.6505 68.1995 58.8995 74.4 46.5 74.4C27.9 74.4 25.575 60.45 16.275 58.125C10.0745 56.5745 4.65 58.8995 0 65.1Z" fill="url(#paint0_linear_16_2)"/>
<defs>
<linearGradient id="paint0_linear_16_2" x1="2.31101e-06" y1="-30.9995" x2="93" y2="124" gradientUnits="userSpaceOnUse">
<stop stop-color="#2383AE"/>
<stop offset="1" stop-color="#6DD7B9"/>
</linearGradient>
</defs>
</svg>
