<svg width="106" height="103" viewBox="0 0 106 103" fill="none" xmlns="http://www.w3.org/2000/svg">
<path d="M93.2344 0H12.7656C7.37222 0 3 4.37222 3 9.76562V90.2344C3 95.6278 7.37222 100 12.7656 100H93.2344C98.6278 100 103 95.6278 103 90.2344V9.76562C103 4.37222 98.6278 0 93.2344 0Z" fill="#01FF94"/>
<path d="M103 0H2.99997C-2.39343 0 2.99998 4.37222 2.99998 9.76562V90.2344C2.99998 95.6278 -2.39342 100 2.99998 100H93.2344C98.6278 100 103 105.393 103 100L103 9.76562C103 4.37222 108.393 0 103 0Z" fill="#01FF94"/>
<path fill-rule="evenodd" clip-rule="evenodd" d="M64.9021 79.575V89.3525C66.4916 90.1674 68.3715 90.7783 70.5418 91.1857C72.7121 91.5932 74.9994 91.7969 77.4041 91.7969C79.7477 91.7969 81.9738 91.5729 84.083 91.1246C86.1922 90.6766 88.0416 89.9381 89.6311 88.9094C91.2205 87.8809 92.4789 86.5363 93.4061 84.8762C94.3332 83.216 94.7969 81.1639 94.7969 78.7195C94.7969 76.9473 94.532 75.3941 94.0022 74.06C93.4723 72.7258 92.7082 71.5393 91.7096 70.5004C90.7111 69.4615 89.5139 68.5295 88.118 67.7045C86.7221 66.8795 85.1479 66.1004 83.3953 65.3672C82.1115 64.8375 80.9602 64.3232 79.9412 63.8242C78.9223 63.325 78.0562 62.8158 77.343 62.2965C76.6297 61.777 76.0795 61.227 75.6924 60.6465C75.3053 60.0658 75.1115 59.409 75.1115 58.6756C75.1115 58.0035 75.2848 57.3975 75.6313 56.8576C75.9777 56.3178 76.4668 55.8545 77.0984 55.4674C77.7303 55.0805 78.5045 54.7799 79.4215 54.566C80.3387 54.3521 81.3574 54.2453 82.4783 54.2453C83.2934 54.2453 84.1543 54.3064 85.0611 54.4285C85.968 54.5508 86.8799 54.7393 87.7971 54.9937C88.7141 55.2484 89.6055 55.5693 90.4717 55.9563C91.3377 56.3434 92.1375 56.7914 92.8711 57.3008V48.1648C91.3836 47.5945 89.7584 47.1719 87.9957 46.8969C86.233 46.6219 84.2104 46.4844 81.9281 46.4844C79.6049 46.4844 77.4041 46.734 75.3256 47.233C73.2471 47.732 71.4182 48.5111 69.8387 49.5703C68.2594 50.6297 67.0113 51.9791 66.0943 53.6189C65.1773 55.2586 64.7188 57.2191 64.7188 59.5006C64.7188 62.4135 65.5594 64.8986 67.2406 66.9561C68.9217 69.0133 71.474 70.7549 74.8977 72.1809C76.2426 72.7309 77.4959 73.2705 78.6574 73.8002C79.8189 74.3299 80.8227 74.8799 81.6682 75.4502C82.5139 76.0205 83.1812 76.6418 83.6705 77.3141C84.1596 77.9861 84.4041 78.75 84.4041 79.6057C84.4041 80.2371 84.2512 80.8227 83.9455 81.3625C83.6398 81.9023 83.1762 82.3707 82.5547 82.768C81.9332 83.1652 81.1588 83.4758 80.2316 83.6998C79.3043 83.924 78.2193 84.0359 76.9762 84.0359C74.8568 84.0359 72.758 83.6643 70.6793 82.9207C68.6008 82.1773 66.675 81.0621 64.9021 79.575ZM48.4648 55.4848H61.0078V47.4609H26.0469V55.4848H38.5285V91.2109H48.4648V55.4848Z" fill="black"/>
</svg>
