<svg width="445" height="101" viewBox="0 0 445 101" fill="none" xmlns="http://www.w3.org/2000/svg">
<path d="M221.996 25.1839C204.619 25.1839 192.09 36.5167 192.09 53.5158C192.09 70.515 206.193 81.8478 223.57 81.8478C234.069 81.8478 243.324 77.6924 249.053 70.6881L237.012 63.7311C233.833 67.2096 229.001 69.2401 223.57 69.2401C216.031 69.2401 209.625 65.3051 207.248 59.0091H251.351C251.698 57.2462 251.902 55.4204 251.902 53.5001C251.902 36.5167 239.373 25.1839 221.996 25.1839V25.1839ZM207.106 48.0069C209.074 41.7266 214.457 37.7759 221.981 37.7759C229.52 37.7759 234.903 41.7266 236.855 48.0069H207.106ZM391.484 25.1839C374.107 25.1839 361.578 36.5167 361.578 53.5158C361.578 70.515 375.681 81.8478 393.058 81.8478C403.557 81.8478 412.812 77.6924 418.541 70.6881L406.5 63.7311C403.321 67.2096 398.488 69.2401 393.058 69.2401C385.519 69.2401 379.113 65.3051 376.736 59.0091H420.839C421.185 57.2462 421.39 55.4204 421.39 53.5001C421.39 36.5167 408.861 25.1839 391.484 25.1839V25.1839ZM376.61 48.0069C378.577 41.7266 383.96 37.7759 391.484 37.7759C399.024 37.7759 404.407 41.7266 406.358 48.0069H376.61ZM315.177 53.5158C315.177 62.9598 321.347 69.2558 330.917 69.2558C337.402 69.2558 342.265 66.3124 344.768 61.5117L356.856 68.4845C351.851 76.8267 342.47 81.8478 330.917 81.8478C313.524 81.8478 301.011 70.515 301.011 53.5158C301.011 36.5167 313.54 25.1839 330.917 25.1839C342.47 25.1839 351.835 30.205 356.856 38.5471L344.768 45.5199C342.265 40.7193 337.402 37.7759 330.917 37.7759C321.363 37.7759 315.177 44.0719 315.177 53.5158ZM445 7.86998V80.2738H430.834V7.86998H445ZM58.1591 0L116.318 100.736H0L58.1591 0ZM203.565 7.86998L159.949 83.4218L116.334 7.86998H132.688L159.949 55.0898L187.211 7.86998H203.565ZM296.289 26.7579V42.0099C294.715 41.5535 293.046 41.2387 291.252 41.2387C282.107 41.2387 275.512 47.5347 275.512 56.9786V80.2738H261.346V26.7579H275.512V41.2387C275.512 33.2428 284.814 26.7579 296.289 26.7579Z" fill="#01FF94"/>
</svg>
