<svg width="210" height="62" viewBox="0 0 210 62" fill="none" xmlns="http://www.w3.org/2000/svg">
<path d="M15.848 61.32C14.2693 61.32 13.1387 60.9787 12.456 60.296C11.7733 59.5707 11.432 58.2267 11.432 56.264C11.432 54.9413 11.56 53.3413 11.816 51.464C12.072 49.5867 12.52 46.7493 13.16 42.952C13.2453 42.44 13.5867 40.3707 14.184 36.744C14.7813 33.0747 15.3147 29.2347 15.784 25.224C16.2107 21.8107 16.424 19.2507 16.424 17.544C16.424 15.624 15.72 14.664 14.312 14.664C13.2453 14.664 11.9013 15.24 10.28 16.392C8.70133 17.5013 6.99467 19.2933 5.16 21.768C4.56267 22.5787 3.90133 22.984 3.176 22.984C2.57867 22.984 2.04533 22.7067 1.576 22.152C1.14933 21.5547 0.936 20.8933 0.936 20.168C0.936 19.4427 1.064 18.76 1.32 18.12C1.576 17.4373 2.04533 16.6267 2.728 15.688C4.81867 12.8293 7.144 10.632 9.704 9.096C12.264 7.51733 14.952 6.728 17.768 6.728C20.1147 6.728 21.864 7.45333 23.016 8.904C24.2107 10.3547 24.808 12.4667 24.808 15.24C24.808 17.7147 24.4667 21.2987 23.784 25.992C25.9173 19.6773 28.6267 14.8987 31.912 11.656C35.1973 8.37066 39.0587 6.728 43.496 6.728C46.9947 6.728 49.6187 7.73066 51.368 9.736C53.16 11.6987 54.056 14.344 54.056 17.672C54.056 19.5493 53.7787 21.832 53.224 24.52L49.32 42.824C48.8933 44.9573 48.68 46.792 48.68 48.328C48.68 50.12 49.0853 51.464 49.896 52.36C50.7493 53.256 51.9227 53.704 53.416 53.704C54.824 53.704 56.1893 53.2347 57.512 52.296C58.8773 51.3573 60.4773 49.8 62.312 47.624C62.824 47.0267 63.4 46.728 64.04 46.728C64.5947 46.728 65.0213 46.984 65.32 47.496C65.6613 48.008 65.832 48.712 65.832 49.608C65.832 51.272 65.4267 52.5947 64.616 53.576C62.3973 56.264 60.2 58.2267 58.024 59.464C55.848 60.7013 53.5653 61.32 51.176 61.32C47.5493 61.32 44.712 60.2533 42.664 58.12C40.616 55.944 39.592 53.0427 39.592 49.416C39.592 48.008 39.6987 46.472 39.912 44.808C40.168 43.144 40.5733 41.032 41.128 38.472L43.688 26.76C43.7733 26.376 43.9227 25.6933 44.136 24.712C44.3493 23.7307 44.52 22.8133 44.648 21.96C44.776 21.064 44.84 20.1893 44.84 19.336C44.84 17.9707 44.456 16.8827 43.688 16.072C42.92 15.2613 41.832 14.856 40.424 14.856C37.864 14.856 35.304 16.2213 32.744 18.952C30.184 21.6827 27.816 26.0987 25.64 32.2C23.464 38.2587 21.7573 46.024 20.52 55.496C20.2213 57.672 19.7733 59.1867 19.176 60.04C18.6213 60.8933 17.512 61.32 15.848 61.32ZM68.5065 61.32C65.8612 61.32 63.7492 60.36 62.1705 58.44C60.5918 56.52 59.8025 54.0027 59.8025 50.888C59.8025 47.4747 60.5918 44.2533 62.1705 41.224C63.7492 38.152 65.8398 35.6987 68.4425 33.864C71.0878 31.9867 73.8825 31.048 76.8265 31.048C77.7652 31.048 78.3838 31.24 78.6825 31.624C79.0238 31.9653 79.3012 32.6053 79.5145 33.544C80.4105 33.3733 81.3492 33.288 82.3305 33.288C84.4212 33.288 85.4665 34.0347 85.4665 35.528C85.4665 36.424 85.1465 38.5573 84.5065 41.928C83.5252 46.8347 83.0345 50.248 83.0345 52.168C83.0345 52.808 83.1838 53.32 83.4825 53.704C83.8238 54.088 84.2505 54.28 84.7625 54.28C85.5732 54.28 86.5545 53.768 87.7065 52.744C88.8585 51.6773 90.4158 49.9707 92.3785 47.624C92.8905 47.0267 93.4665 46.728 94.1065 46.728C94.6612 46.728 95.0878 46.984 95.3865 47.496C95.7278 48.008 95.8985 48.712 95.8985 49.608C95.8985 51.3147 95.4932 52.6373 94.6825 53.576C92.9332 55.752 91.0772 57.5867 89.1145 59.08C87.1518 60.5733 85.2532 61.32 83.4185 61.32C82.0105 61.32 80.7092 60.8507 79.5145 59.912C78.3625 58.9307 77.4878 57.608 76.8905 55.944C74.6718 59.528 71.8772 61.32 68.5065 61.32ZM70.8105 54.856C71.7492 54.856 72.6452 54.3013 73.4985 53.192C74.3518 52.0827 74.9705 50.6107 75.3545 48.776L77.7225 37C75.9305 37.0427 74.2665 37.7253 72.7305 39.048C71.2372 40.328 70.0425 42.0347 69.1465 44.168C68.2505 46.3013 67.8025 48.5627 67.8025 50.952C67.8025 52.2747 68.0585 53.256 68.5705 53.896C69.1252 54.536 69.8718 54.856 70.8105 54.856ZM95.241 61.32C93.6197 61.32 92.4677 60.4667 91.785 58.76C91.145 57.0533 90.825 54.3227 90.825 50.568C90.825 45.0213 91.6143 39.752 93.193 34.76C93.577 33.5227 94.1957 32.6267 95.049 32.072C95.945 31.4747 97.1823 31.176 98.761 31.176C99.6143 31.176 100.212 31.2827 100.553 31.496C100.894 31.7093 101.065 32.1147 101.065 32.712C101.065 33.3947 100.745 34.9307 100.105 37.32C99.6783 39.0267 99.337 40.52 99.081 41.8C98.825 43.08 98.6117 44.6587 98.441 46.536C99.849 42.8667 101.428 39.88 103.177 37.576C104.926 35.272 106.633 33.6293 108.297 32.648C110.004 31.6667 111.561 31.176 112.969 31.176C115.742 31.176 117.129 32.5627 117.129 35.336C117.129 37 116.66 40.008 115.721 44.36C114.91 48.072 114.505 50.5253 114.505 51.72C114.505 53.4267 115.124 54.28 116.361 54.28C117.214 54.28 118.217 53.768 119.369 52.744C120.564 51.6773 122.142 49.9707 124.105 47.624C124.617 47.0267 125.193 46.728 125.833 46.728C126.388 46.728 126.814 46.984 127.113 47.496C127.454 48.008 127.625 48.712 127.625 49.608C127.625 51.3147 127.22 52.6373 126.409 53.576C124.574 55.8373 122.59 57.6933 120.457 59.144C118.366 60.5947 115.977 61.32 113.289 61.32C111.113 61.32 109.47 60.7013 108.361 59.464C107.252 58.184 106.697 56.3493 106.697 53.96C106.697 52.7653 106.996 50.632 107.593 47.56C108.148 44.872 108.425 43.016 108.425 41.992C108.425 41.3093 108.19 40.968 107.721 40.968C107.166 40.968 106.377 41.6933 105.353 43.144C104.372 44.552 103.348 46.4293 102.281 48.776C101.257 51.1227 100.425 53.5973 99.785 56.2C99.3157 58.2053 98.761 59.5707 98.121 60.296C97.5237 60.9787 96.5637 61.32 95.241 61.32ZM156.495 41.352C157.05 41.352 157.476 41.6293 157.775 42.184C158.074 42.7387 158.223 43.4427 158.223 44.296C158.223 45.3627 158.074 46.1947 157.775 46.792C157.476 47.3467 157.007 47.7307 156.367 47.944C153.807 48.84 150.991 49.352 147.919 49.48C147.066 53.0213 145.444 55.88 143.055 58.056C140.708 60.232 138.106 61.32 135.247 61.32C130.938 61.32 127.802 59.6773 125.839 56.392C123.876 53.1067 122.895 48.3493 122.895 42.12C122.895 36.616 123.578 30.6427 124.943 24.2C126.308 17.7147 128.292 12.2107 130.895 7.688C133.54 3.12266 136.676 0.839996 140.303 0.839996C142.266 0.839996 143.844 1.69333 145.039 3.4C146.234 5.064 146.831 7.24 146.831 9.928C146.831 13.4267 146.17 16.904 144.847 20.36C143.524 23.816 141.327 27.4427 138.255 31.24C141.114 31.4533 143.439 32.648 145.231 34.824C147.023 36.9573 148.09 39.6027 148.431 42.76C150.436 42.632 152.826 42.2053 155.599 41.48C155.855 41.3947 156.154 41.352 156.495 41.352ZM138.831 7.176C137.978 7.176 137.039 8.456 136.015 11.016C135.034 13.5333 134.116 16.968 133.263 21.32C132.41 25.672 131.77 30.4293 131.343 35.592C134.159 30.4293 136.399 25.8853 138.063 21.96C139.77 17.992 140.623 14.472 140.623 11.4C140.623 10.0347 140.452 8.98933 140.111 8.264C139.812 7.53866 139.386 7.176 138.831 7.176ZM135.503 54.536C136.826 54.536 137.999 53.9813 139.023 52.872C140.047 51.7627 140.73 50.1627 141.071 48.072C139.748 47.176 138.724 46.0027 137.999 44.552C137.316 43.1013 136.975 41.5653 136.975 39.944C136.975 39.3467 137.06 38.536 137.231 37.512H137.039C135.29 37.512 133.818 38.3867 132.623 40.136C131.471 41.8427 130.895 44.1467 130.895 47.048C130.895 49.48 131.343 51.336 132.239 52.616C133.178 53.896 134.266 54.536 135.503 54.536ZM160.569 61.32C157.924 61.32 155.812 60.36 154.233 58.44C152.654 56.52 151.865 54.0027 151.865 50.888C151.865 47.4747 152.654 44.2533 154.233 41.224C155.812 38.152 157.902 35.6987 160.505 33.864C163.15 31.9867 165.945 31.048 168.889 31.048C169.828 31.048 170.446 31.24 170.745 31.624C171.086 31.9653 171.364 32.6053 171.577 33.544C172.473 33.3733 173.412 33.288 174.393 33.288C176.484 33.288 177.529 34.0347 177.529 35.528C177.529 36.424 177.209 38.5573 176.569 41.928C175.588 46.8347 175.097 50.248 175.097 52.168C175.097 52.808 175.246 53.32 175.545 53.704C175.886 54.088 176.313 54.28 176.825 54.28C177.636 54.28 178.617 53.768 179.769 52.744C180.921 51.6773 182.478 49.9707 184.441 47.624C184.953 47.0267 185.529 46.728 186.169 46.728C186.724 46.728 187.15 46.984 187.449 47.496C187.79 48.008 187.961 48.712 187.961 49.608C187.961 51.3147 187.556 52.6373 186.745 53.576C184.996 55.752 183.14 57.5867 181.177 59.08C179.214 60.5733 177.316 61.32 175.481 61.32C174.073 61.32 172.772 60.8507 171.577 59.912C170.425 58.9307 169.55 57.608 168.953 55.944C166.734 59.528 163.94 61.32 160.569 61.32ZM162.873 54.856C163.812 54.856 164.708 54.3013 165.561 53.192C166.414 52.0827 167.033 50.6107 167.417 48.776L169.785 37C167.993 37.0427 166.329 37.7253 164.793 39.048C163.3 40.328 162.105 42.0347 161.209 44.168C160.313 46.3013 159.865 48.5627 159.865 50.952C159.865 52.2747 160.121 53.256 160.633 53.896C161.188 54.536 161.934 54.856 162.873 54.856ZM187.304 61.32C185.682 61.32 184.53 60.4667 183.848 58.76C183.208 57.0533 182.888 54.3227 182.888 50.568C182.888 45.0213 183.677 39.752 185.256 34.76C185.64 33.5227 186.258 32.6267 187.112 32.072C188.008 31.4747 189.245 31.176 190.824 31.176C191.677 31.176 192.274 31.2827 192.616 31.496C192.957 31.7093 193.128 32.1147 193.128 32.712C193.128 33.3947 192.808 34.9307 192.168 37.32C191.741 39.0267 191.4 40.52 191.144 41.8C190.888 43.08 190.674 44.6587 190.504 46.536C191.912 42.8667 193.49 39.88 195.24 37.576C196.989 35.272 198.696 33.6293 200.36 32.648C202.066 31.6667 203.624 31.176 205.032 31.176C206.397 31.176 207.421 31.5387 208.104 32.264C208.829 32.9467 209.192 33.9707 209.192 35.336C209.192 36.4453 208.957 38.536 208.488 41.608C208.061 44.2107 207.72 46.6853 207.464 49.032C207.208 51.336 207.08 53.9173 207.08 56.776C207.08 58.3973 206.738 59.5707 206.056 60.296C205.416 60.9787 204.349 61.32 202.856 61.32C201.448 61.32 200.424 60.9573 199.784 60.232C199.144 59.5067 198.824 58.4187 198.824 56.968C198.824 55.2613 199.122 52.4453 199.72 48.52C200.232 45.1067 200.488 42.9307 200.488 41.992C200.488 41.3093 200.253 40.968 199.784 40.968C199.229 40.968 198.44 41.6933 197.416 43.144C196.434 44.552 195.41 46.4293 194.344 48.776C193.32 51.1227 192.488 53.5973 191.848 56.2C191.378 58.2053 190.824 59.5707 190.184 60.296C189.586 60.9787 188.626 61.32 187.304 61.32Z" fill="#8134CF"/>
</svg>
