<svg width="395" height="275" viewBox="0 0 395 275" fill="none" xmlns="http://www.w3.org/2000/svg">
<path d="M101.222 68.936V61.3119C101.223 61.1339 101.189 60.9574 101.121 60.7927C101.053 60.628 100.953 60.4784 100.828 60.3525C100.702 60.2266 100.552 60.1269 100.387 60.0592C100.223 59.9915 100.046 59.9572 99.8681 59.9582H97.9119C97.6283 59.9608 97.3526 59.8652 97.1316 59.6876C96.9106 59.5099 96.7579 59.2612 96.6994 58.9838C96.0229 56.0884 94.8745 53.3241 93.3002 50.8018C93.1461 50.5615 93.0783 50.276 93.1081 49.9921C93.1378 49.7082 93.2633 49.4429 93.4638 49.2398L94.8622 47.8265C95.1152 47.5727 95.2573 47.229 95.2573 46.8707C95.2573 46.5124 95.1152 46.1687 94.8622 45.9149L89.4695 40.5222C89.2139 40.2728 88.8709 40.1332 88.5137 40.1332C88.1566 40.1332 87.8136 40.2728 87.5579 40.5222L86.167 41.876C85.9639 42.0765 85.6986 42.202 85.4147 42.2318C85.1308 42.2615 84.8452 42.1937 84.605 42.0396C82.0665 40.455 79.281 39.306 76.3635 38.6404C76.0921 38.5738 75.8508 38.4182 75.6782 38.1985C75.5056 37.9787 75.4117 37.7074 75.4114 37.4279V35.5015C75.4114 35.3218 75.3757 35.1439 75.3063 34.9782C75.2368 34.8125 75.1351 34.6622 75.007 34.5362C74.8789 34.4102 74.7271 34.311 74.5602 34.2443C74.3934 34.1776 74.215 34.1447 74.0353 34.1477H66.441C66.0858 34.1536 65.7472 34.2988 65.4981 34.552C65.249 34.8053 65.1095 35.1463 65.1095 35.5015V37.4577C65.1106 37.7375 65.0171 38.0094 64.8443 38.2295C64.6715 38.4495 64.4295 38.6048 64.1574 38.6701C61.24 39.3358 58.4544 40.4847 55.9159 42.0694C55.6748 42.2209 55.3899 42.2871 55.1067 42.2574C54.8235 42.2278 54.5584 42.1039 54.3539 41.9057L52.9779 40.5222C52.7222 40.2728 52.3792 40.1332 52.0221 40.1332C51.6649 40.1332 51.3219 40.2728 51.0663 40.5222L45.6736 45.9149C45.4206 46.1687 45.2785 46.5124 45.2785 46.8707C45.2785 47.229 45.4206 47.5727 45.6736 47.8265L47.0571 49.2026C47.2576 49.4057 47.3831 49.671 47.4129 49.9549C47.4426 50.2388 47.3748 50.5243 47.2207 50.7646C45.6318 53.2953 44.4754 56.0731 43.7992 58.9838C43.735 59.2565 43.5801 59.4993 43.3598 59.6723C43.1395 59.8453 42.8669 59.9382 42.5867 59.9359H40.6305C40.4524 59.9349 40.276 59.9692 40.1113 60.0369C39.9466 60.1046 39.797 60.2043 39.6711 60.3302C39.5452 60.4561 39.4455 60.6057 39.3778 60.7704C39.3101 60.9351 39.2758 61.1115 39.2768 61.2896V68.936C39.2768 69.1135 39.3118 69.2891 39.3799 69.453C39.4481 69.6168 39.5479 69.7656 39.6737 69.8907C39.7995 70.0158 39.9488 70.1148 40.113 70.182C40.2772 70.2492 40.4531 70.2833 40.6305 70.2824H42.5867C42.8669 70.28 43.1395 70.3729 43.3598 70.5459C43.5801 70.719 43.735 70.9617 43.7992 71.2344C44.468 74.1509 45.6167 76.936 47.1984 79.4759C47.3525 79.7162 47.4203 80.0018 47.3906 80.2856C47.3608 80.5695 47.2353 80.8349 47.0348 81.038L45.6513 82.414C45.3983 82.6678 45.2562 83.0115 45.2562 83.3698C45.2562 83.7281 45.3983 84.0719 45.6513 84.3256L51.0439 89.7183C51.2977 89.9713 51.6414 90.1134 51.9997 90.1134C52.3581 90.1134 52.7018 89.9713 52.9556 89.7183L54.3391 88.3348C54.541 88.1348 54.805 88.0096 55.0876 87.9799C55.3702 87.9501 55.6545 88.0176 55.8936 88.1712C58.4331 89.7522 61.2185 90.8985 64.1351 91.563C64.4072 91.6283 64.6492 91.7836 64.822 92.0036C64.9948 92.2237 65.0882 92.4956 65.0872 92.7754V94.7391C65.0862 94.9171 65.1206 95.0936 65.1882 95.2583C65.2559 95.423 65.3556 95.5726 65.4815 95.6985C65.6074 95.8244 65.757 95.9241 65.9217 95.9918C66.0864 96.0595 66.2629 96.0938 66.441 96.0928H74.0353C74.2128 96.0928 74.3884 96.0577 74.5523 95.9896C74.7161 95.9215 74.8648 95.8217 74.99 95.6959C75.1151 95.5701 75.2141 95.4208 75.2813 95.2566C75.3485 95.0924 75.3826 94.9165 75.3816 94.7391V92.7754C75.3806 92.4956 75.4741 92.2237 75.6469 92.0036C75.8197 91.7836 76.0617 91.6283 76.3337 91.563C79.2493 90.8952 82.0342 89.7491 84.5752 88.1712C84.8143 88.0176 85.0986 87.9501 85.3813 87.9799C85.6639 88.0096 85.9279 88.1348 86.1298 88.3348L87.5133 89.7183C87.7671 89.9713 88.1108 90.1134 88.4691 90.1134C88.8274 90.1134 89.1712 89.9713 89.4249 89.7183L94.8176 84.3256C95.0706 84.0719 95.2127 83.7281 95.2127 83.3698C95.2127 83.0115 95.0706 82.6678 94.8176 82.414L93.4341 81.038C93.2335 80.8349 93.108 80.5695 93.0783 80.2856C93.0486 80.0018 93.1163 79.7162 93.2704 79.4759C94.8508 76.9353 95.9994 74.1504 96.6697 71.2344C96.7335 70.963 96.8874 70.7211 97.1062 70.5483C97.325 70.3754 97.5958 70.2817 97.8747 70.2824H99.8384C100.018 70.2873 100.197 70.2562 100.365 70.1907C100.533 70.1253 100.685 70.0269 100.814 69.9014C100.943 69.7759 101.046 69.6258 101.116 69.46C101.186 69.2942 101.222 69.116 101.222 68.936ZM70.2493 86.6166C65.9974 86.6195 61.8402 85.3615 58.3033 83.0015C54.7665 80.6416 52.0089 77.2858 50.3794 73.3586C48.7499 69.4313 48.3216 65.1091 49.1488 60.9384C49.976 56.7677 52.0214 52.9361 55.0263 49.928C58.0313 46.9199 61.8609 44.8705 66.0307 44.039C70.2005 43.2075 74.5232 43.6313 78.4521 45.2567C82.3811 46.8821 85.7397 49.6362 88.1033 53.1706C90.4669 56.705 91.7293 60.8609 91.7307 65.1128C91.7327 67.9354 91.1786 70.7307 90.1 73.3391C89.0214 75.9475 87.4395 78.3178 85.4447 80.3147C83.4499 82.3117 81.0812 83.896 78.4739 84.9773C75.8666 86.0586 73.0719 86.6156 70.2493 86.6166V86.6166Z" stroke="#DEE3FC" stroke-width="0.79" stroke-miterlimit="10"/>
<path d="M136.285 94.739V89.5323C136.286 89.4109 136.263 89.2905 136.217 89.1782C136.171 89.0658 136.103 88.9638 136.018 88.8779C135.932 88.7921 135.83 88.7242 135.717 88.6782C135.605 88.6322 135.485 88.609 135.363 88.61H134.032C133.841 88.6117 133.656 88.5486 133.506 88.431C133.356 88.3134 133.25 88.1484 133.206 87.9629C132.747 85.9759 131.963 84.0784 130.885 82.347C130.782 82.183 130.736 81.9888 130.756 81.7958C130.777 81.6028 130.861 81.4223 130.997 81.2834L131.942 80.3387C132.114 80.1659 132.21 79.9318 132.21 79.6879C132.21 79.4439 132.114 79.2099 131.942 79.037L128.267 75.37C128.182 75.2839 128.081 75.2155 127.969 75.1688C127.857 75.1222 127.737 75.0981 127.616 75.0981C127.495 75.0981 127.375 75.1222 127.264 75.1688C127.152 75.2155 127.051 75.2839 126.965 75.37L126.028 76.3072C125.889 76.4427 125.709 76.5275 125.516 76.5477C125.323 76.5679 125.129 76.5225 124.965 76.4188C123.23 75.3418 121.33 74.5577 119.341 74.0981C119.156 74.0542 118.991 73.9486 118.873 73.7986C118.756 73.6486 118.692 73.4631 118.694 73.2725V71.9559C118.694 71.7126 118.598 71.4791 118.427 71.3063C118.255 71.1336 118.023 71.0355 117.779 71.0336H112.573C112.329 71.0355 112.095 71.1333 111.923 71.3059C111.75 71.4784 111.652 71.7119 111.65 71.9559V73.2873C111.653 73.4783 111.591 73.6645 111.473 73.8148C111.355 73.9651 111.189 74.0704 111.003 74.113C109.016 74.572 107.119 75.3561 105.387 76.4337C105.223 76.5374 105.029 76.5828 104.836 76.5626C104.643 76.5423 104.463 76.4576 104.324 76.3221L103.386 75.3849C103.301 75.2988 103.2 75.2304 103.088 75.1837C102.977 75.137 102.857 75.113 102.736 75.113C102.615 75.113 102.495 75.137 102.383 75.1837C102.271 75.2304 102.17 75.2988 102.085 75.3849L98.4177 79.0668C98.2456 79.2397 98.149 79.4737 98.149 79.7176C98.149 79.9616 98.2456 80.1956 98.4177 80.3685L99.3252 81.2983C99.4619 81.4365 99.5474 81.6171 99.5677 81.8105C99.588 82.0038 99.5418 82.1983 99.4368 82.3619C98.3585 84.092 97.5766 85.9901 97.1235 87.9777C97.0784 88.1626 96.9725 88.3269 96.8228 88.4443C96.673 88.5617 96.4881 88.6253 96.2979 88.6248H94.9664C94.845 88.6239 94.7247 88.647 94.6123 88.693C94.5 88.739 94.3979 88.8069 94.312 88.8928C94.2262 88.9786 94.1583 89.0807 94.1123 89.1931C94.0663 89.3054 94.0431 89.4258 94.0441 89.5472V94.7539C94.0431 94.8753 94.0663 94.9957 94.1123 95.108C94.1583 95.2204 94.2262 95.3225 94.312 95.4083C94.3979 95.4941 94.5 95.562 94.6123 95.608C94.7247 95.6541 94.845 95.6772 94.9664 95.6762H96.3499C96.5402 95.6758 96.7251 95.7394 96.8748 95.8568C97.0246 95.9742 97.1305 96.1385 97.1756 96.3234C97.632 98.31 98.4136 100.207 99.4888 101.939C99.5966 102.102 99.6444 102.297 99.6241 102.491C99.6037 102.685 99.5165 102.866 99.3773 103.003L98.4401 103.947C98.2679 104.12 98.1713 104.354 98.1713 104.598C98.1713 104.842 98.2679 105.076 98.4401 105.249L102.115 108.924C102.287 109.096 102.521 109.192 102.765 109.192C103.009 109.192 103.243 109.096 103.416 108.924L104.353 107.979C104.492 107.842 104.672 107.757 104.866 107.736C105.059 107.716 105.253 107.762 105.417 107.867C107.148 108.944 109.046 109.726 111.033 110.181C111.218 110.225 111.383 110.33 111.501 110.48C111.619 110.63 111.682 110.816 111.68 111.006V112.345C111.682 112.589 111.78 112.823 111.952 112.995C112.125 113.168 112.358 113.266 112.602 113.268H117.809C118.052 113.266 118.285 113.168 118.456 112.995C118.628 112.822 118.724 112.589 118.724 112.345V111.006C118.723 110.815 118.787 110.628 118.906 110.478C119.025 110.328 119.192 110.223 119.379 110.181C121.364 109.728 123.259 108.946 124.987 107.867C125.15 107.762 125.345 107.716 125.538 107.736C125.732 107.757 125.912 107.842 126.051 107.979L126.995 108.924C127.168 109.096 127.402 109.192 127.646 109.192C127.89 109.192 128.124 109.096 128.297 108.924L131.971 105.249C132.144 105.076 132.24 104.842 132.24 104.598C132.24 104.354 132.144 104.12 131.971 103.947L131.027 103.003C130.891 102.864 130.806 102.683 130.786 102.49C130.766 102.297 130.811 102.103 130.915 101.939C131.993 100.208 132.777 98.3103 133.236 96.3234C133.28 96.1379 133.385 95.9728 133.535 95.8552C133.685 95.7376 133.871 95.6745 134.061 95.6762H135.393C135.513 95.6733 135.631 95.6468 135.741 95.5981C135.851 95.5495 135.95 95.4796 136.033 95.3926C136.116 95.3055 136.181 95.203 136.224 95.0909C136.268 94.9787 136.288 94.8592 136.285 94.739ZM115.176 105.963C112.443 105.963 109.771 105.153 107.498 103.634C105.225 102.116 103.454 99.9571 102.408 97.4318C101.362 94.9065 101.088 92.1278 101.621 89.4469C102.155 86.7661 103.471 84.3036 105.404 82.3708C107.336 80.438 109.799 79.1218 112.48 78.5885C115.161 78.0553 117.939 78.329 120.465 79.375C122.99 80.421 125.148 82.1923 126.667 84.4651C128.186 86.7378 128.996 89.4097 128.996 92.1431C128.997 93.9583 128.64 95.7558 127.946 97.433C127.252 99.1102 126.234 100.634 124.95 101.918C123.667 103.201 122.143 104.219 120.466 104.913C118.789 105.607 116.991 105.964 115.176 105.963Z" fill="#DEE3FC"/>
<path d="M38.4512 232.308C39.8438 232.308 40.9728 231.179 40.9728 229.786C40.9728 228.394 39.8438 227.265 38.4512 227.265C37.0586 227.265 35.9297 228.394 35.9297 229.786C35.9297 231.179 37.0586 232.308 38.4512 232.308Z" fill="#A4AFFF"/>
<path d="M375.869 163.49C377.262 163.49 378.391 162.361 378.391 160.968C378.391 159.576 377.262 158.447 375.869 158.447C374.477 158.447 373.348 159.576 373.348 160.968C373.348 162.361 374.477 163.49 375.869 163.49Z" fill="#A4AFFF"/>
<path d="M370.834 73.555C372.226 73.555 373.355 72.4261 373.355 71.0335C373.355 69.6409 372.226 68.512 370.834 68.512C369.441 68.512 368.312 69.6409 368.312 71.0335C368.312 72.4261 369.441 73.555 370.834 73.555Z" fill="#A4AFFF"/>
<path d="M280.274 42.0469C281.145 42.0469 281.851 41.3409 281.851 40.47C281.851 39.5991 281.145 38.8931 280.274 38.8931C279.403 38.8931 278.697 39.5991 278.697 40.47C278.697 41.3409 279.403 42.0469 280.274 42.0469Z" fill="#A4AFFF"/>
<path d="M48.3067 19.4274C48.3067 19.7411 48.2136 20.0477 48.0392 20.3084C47.8648 20.5691 47.6169 20.7722 47.327 20.8919C47.037 21.0115 46.7181 21.0425 46.4106 20.9807C46.103 20.919 45.8207 20.7674 45.5995 20.5451C45.3782 20.3227 45.2279 20.0397 45.1676 19.7319C45.1073 19.4241 45.1398 19.1053 45.2608 18.816C45.3819 18.5266 45.5861 18.2797 45.8476 18.1065C46.1091 17.9333 46.4162 17.8416 46.7298 17.8431C46.9375 17.8431 47.1432 17.8841 47.335 17.9638C47.5268 18.0435 47.701 18.1604 47.8475 18.3076C47.994 18.4548 48.11 18.6295 48.1888 18.8217C48.2676 19.0139 48.3077 19.2197 48.3067 19.4274Z" fill="#A4AFFF"/>
<path d="M83.2737 116.711C83.2737 117.023 83.1812 117.328 83.0079 117.587C82.8346 117.847 82.5884 118.049 82.3002 118.168C82.0121 118.287 81.695 118.319 81.3891 118.258C81.0832 118.197 80.8023 118.047 80.5817 117.826C80.3612 117.606 80.211 117.325 80.1502 117.019C80.0893 116.713 80.1206 116.396 80.2399 116.108C80.3593 115.82 80.5614 115.573 80.8207 115.4C81.08 115.227 81.3849 115.134 81.6968 115.134C82.1144 115.136 82.5143 115.303 82.8096 115.598C83.1049 115.894 83.2717 116.294 83.2737 116.711Z" fill="#A4AFFF"/>
<path d="M25.3154 232.293C25.3168 232.607 25.225 232.915 25.0515 233.176C24.8779 233.438 24.6306 233.642 24.3408 233.763C24.051 233.884 23.7318 233.916 23.4238 233.855C23.1158 233.794 22.8328 233.643 22.6108 233.421C22.3887 233.199 22.2377 232.916 22.1768 232.608C22.1159 232.3 22.1479 231.981 22.2688 231.691C22.3896 231.401 22.5938 231.154 22.8555 230.98C23.1172 230.807 23.4245 230.715 23.7385 230.716C24.1567 230.716 24.5578 230.882 24.8535 231.178C25.1492 231.474 25.3154 231.875 25.3154 232.293Z" fill="#A4AFFF"/>
<path d="M338.923 233.803C340.316 233.803 341.445 232.674 341.445 231.281C341.445 229.889 340.316 228.76 338.923 228.76C337.531 228.76 336.402 229.889 336.402 231.281C336.402 232.674 337.531 233.803 338.923 233.803Z" fill="#A4AFFF"/>
<path d="M392.478 233.803C393.871 233.803 395 232.674 395 231.281C395 229.889 393.871 228.76 392.478 228.76C391.086 228.76 389.957 229.889 389.957 231.281C389.957 232.674 391.086 233.803 392.478 233.803Z" fill="#A4AFFF"/>
<path d="M91.7309 15.0762C93.1235 15.0762 94.2524 13.9472 94.2524 12.5546C94.2524 11.162 93.1235 10.0331 91.7309 10.0331C90.3383 10.0331 89.2094 11.162 89.2094 12.5546C89.2094 13.9472 90.3383 15.0762 91.7309 15.0762Z" fill="#A4AFFF"/>
<path d="M265.509 127.147C265.509 127.814 265.311 128.465 264.941 129.019C264.571 129.573 264.045 130.005 263.429 130.26C262.813 130.515 262.136 130.582 261.482 130.452C260.828 130.322 260.228 130.001 259.757 129.53C259.286 129.059 258.965 128.458 258.835 127.805C258.705 127.151 258.771 126.473 259.026 125.858C259.281 125.242 259.713 124.716 260.267 124.346C260.822 123.975 261.473 123.778 262.139 123.778C263.033 123.778 263.89 124.133 264.522 124.765C265.154 125.397 265.509 126.254 265.509 127.147Z" fill="#A4AFFF"/>
<path d="M16.9475 85.4785C16.9475 86.1449 16.7499 86.7964 16.3796 87.3505C16.0094 87.9046 15.4831 88.3365 14.8674 88.5915C14.2517 88.8465 13.5743 88.9133 12.9206 88.7833C12.267 88.6532 11.6666 88.3323 11.1954 87.8611C10.7242 87.3899 10.4033 86.7895 10.2732 86.1359C10.1432 85.4822 10.21 84.8047 10.465 84.1891C10.72 83.5734 11.1519 83.0471 11.706 82.6769C12.2601 82.3066 12.9116 82.109 13.578 82.109C14.4716 82.109 15.3287 82.464 15.9606 83.0959C16.5925 83.7278 16.9475 84.5849 16.9475 85.4785Z" fill="#A4AFFF"/>
<path d="M7.47115 29.945H3.22395C2.95283 29.945 2.73303 30.1648 2.73303 30.4359V34.6831C2.73303 34.9543 2.95283 35.174 3.22395 35.174H7.47115C7.74228 35.174 7.96207 34.9543 7.96207 34.6831V30.4359C7.96207 30.1648 7.74228 29.945 7.47115 29.945Z" fill="white"/>
<path d="M14.4631 29.945H10.2159C9.94476 29.945 9.72498 30.1648 9.72498 30.4359V34.6831C9.72498 34.9543 9.94476 35.174 10.2159 35.174H14.4631C14.7342 35.174 14.954 34.9543 14.954 34.6831V30.4359C14.954 30.1648 14.7342 29.945 14.4631 29.945Z" fill="white"/>
<path d="M21.4549 29.945H17.2077C16.9366 29.945 16.7168 30.1648 16.7168 30.4359V34.6831C16.7168 34.9543 16.9366 35.174 17.2077 35.174H21.4549C21.726 35.174 21.9458 34.9543 21.9458 34.6831V30.4359C21.9458 30.1648 21.726 29.945 21.4549 29.945Z" fill="white"/>
<path d="M363.447 213.467H359.2C358.929 213.467 358.709 213.687 358.709 213.958V218.205C358.709 218.476 358.929 218.696 359.2 218.696H363.447C363.718 218.696 363.938 218.476 363.938 218.205V213.958C363.938 213.687 363.718 213.467 363.447 213.467Z" fill="#DEE3FC"/>
<path d="M370.439 213.467H366.192C365.921 213.467 365.701 213.687 365.701 213.958V218.205C365.701 218.476 365.921 218.696 366.192 218.696H370.439C370.71 218.696 370.93 218.476 370.93 218.205V213.958C370.93 213.687 370.71 213.467 370.439 213.467Z" fill="#DEE3FC"/>
<path d="M377.431 213.467H373.184C372.913 213.467 372.693 213.687 372.693 213.958V218.205C372.693 218.476 372.913 218.696 373.184 218.696H377.431C377.702 218.696 377.922 218.476 377.922 218.205V213.958C377.922 213.687 377.702 213.467 377.431 213.467Z" fill="#DEE3FC"/>
<path d="M40.2808 210.603H36.0336C35.7625 210.603 35.5427 210.823 35.5427 211.094V215.342C35.5427 215.613 35.7625 215.832 36.0336 215.832H40.2808C40.552 215.832 40.7718 215.613 40.7718 215.342V211.094C40.7718 210.823 40.552 210.603 40.2808 210.603Z" fill="#DEE3FC"/>
<path d="M47.2728 210.603H43.0256C42.7545 210.603 42.5347 210.823 42.5347 211.094V215.342C42.5347 215.613 42.7545 215.832 43.0256 215.832H47.2728C47.5439 215.832 47.7637 215.613 47.7637 215.342V211.094C47.7637 210.823 47.5439 210.603 47.2728 210.603Z" fill="#DEE3FC"/>
<path d="M54.2647 210.603H50.0175C49.7464 210.603 49.5266 210.823 49.5266 211.094V215.342C49.5266 215.613 49.7464 215.832 50.0175 215.832H54.2647C54.5359 215.832 54.7556 215.613 54.7556 215.342V211.094C54.7556 210.823 54.5359 210.603 54.2647 210.603Z" fill="#DEE3FC"/>
<path d="M229.731 4.97528H129.093C120.322 4.97528 113.212 12.0852 113.212 20.8558V244.864C113.212 253.634 120.322 260.744 129.093 260.744H229.731C238.502 260.744 245.612 253.634 245.612 244.864V20.8558C245.612 12.0852 238.502 4.97528 229.731 4.97528Z" fill="#3945BA"/>
<path d="M229.218 7.2215H129.599C121.917 7.2215 115.689 13.4489 115.689 21.1309V243.205C115.689 250.887 121.917 257.114 129.599 257.114H229.218C236.9 257.114 243.127 250.887 243.127 243.205V21.1309C243.127 13.4489 236.9 7.2215 229.218 7.2215Z" fill="white"/>
<path d="M237.549 20.6921V242.506C237.55 243.743 237.307 244.968 236.834 246.112C236.361 247.255 235.668 248.294 234.793 249.169C233.919 250.044 232.88 250.739 231.737 251.212C230.594 251.686 229.369 251.93 228.132 251.93H130.692C129.455 251.93 128.23 251.686 127.087 251.212C125.944 250.739 124.905 250.044 124.031 249.169C123.156 248.294 122.463 247.255 121.99 246.112C121.517 244.968 121.274 243.743 121.275 242.506V20.6921C121.274 19.4554 121.517 18.2307 121.989 17.0879C122.461 15.945 123.154 14.9064 124.028 14.0312C124.902 13.1561 125.939 12.4617 127.081 11.9875C128.224 11.5134 129.448 11.2689 130.684 11.2679H146.929C147.371 11.2691 147.804 11.3928 148.179 11.6252C148.555 11.8577 148.859 12.1897 149.057 12.5844L150.782 16.0283C151.168 16.8068 151.764 17.4619 152.503 17.9193C153.242 18.3767 154.094 18.6183 154.963 18.6168H203.846C204.714 18.617 205.564 18.3747 206.302 17.9173C207.039 17.46 207.634 16.8057 208.019 16.0283L209.745 12.5844C209.943 12.1897 210.247 11.8577 210.622 11.6252C210.998 11.3928 211.43 11.2691 211.872 11.2679H228.125C229.362 11.2669 230.588 11.51 231.732 11.9833C232.876 12.4565 233.915 13.1507 234.791 14.026C235.666 14.9013 236.36 15.9406 236.833 17.0844C237.307 18.2283 237.55 19.4542 237.549 20.6921Z" fill="#DEE3FC"/>
<path d="M199.927 14.5853H160.549C160.331 14.5853 160.116 14.5424 159.915 14.4589C159.714 14.3755 159.532 14.2532 159.379 14.099C159.225 13.9449 159.104 13.762 159.021 13.5608C158.939 13.3596 158.897 13.1441 158.898 12.9266C158.897 12.7091 158.939 12.4936 159.021 12.2924C159.104 12.0912 159.225 11.9083 159.379 11.7542C159.532 11.6 159.714 11.4777 159.915 11.3943C160.116 11.3108 160.331 11.2679 160.549 11.2679H199.927C200.366 11.2679 200.788 11.4426 201.099 11.7537C201.411 12.0648 201.585 12.4867 201.585 12.9266C201.585 13.3665 201.411 13.7884 201.099 14.0995C200.788 14.4106 200.366 14.5853 199.927 14.5853Z" fill="#DEE3FC"/>
<path d="M222.085 200.83H134.471C131.028 200.83 128.237 203.62 128.237 207.063V237.998C128.237 241.441 131.028 244.231 134.471 244.231H222.085C225.527 244.231 228.318 241.441 228.318 237.998V207.063C228.318 203.62 225.527 200.83 222.085 200.83Z" stroke="#698BD1" stroke-linecap="round" stroke-linejoin="round" stroke-dasharray="2.84 2.84"/>
<path d="M217.644 107.25H174.176C171.694 107.25 169.683 109.262 169.683 111.743V133.232C169.683 135.713 171.694 137.724 174.176 137.724H217.644C220.126 137.724 222.137 135.713 222.137 133.232V111.743C222.137 109.262 220.126 107.25 217.644 107.25Z" stroke="#698BD1" stroke-linecap="round" stroke-linejoin="round" stroke-dasharray="2.84 2.84"/>
<path d="M226.994 145.036H137.23C134.272 145.036 131.875 147.434 131.875 150.391V188.252C131.875 191.21 134.272 193.607 137.23 193.607H226.994C229.952 193.607 232.349 191.21 232.349 188.252V150.391C232.349 147.434 229.952 145.036 226.994 145.036Z" fill="#4B5A9B"/>
<path d="M228.318 146.457V184.339C228.318 185.041 228.18 185.736 227.911 186.385C227.642 187.033 227.248 187.622 226.751 188.118C226.254 188.614 225.665 189.007 225.016 189.275C224.367 189.543 223.672 189.681 222.97 189.68H133.585C132.884 189.681 132.188 189.543 131.539 189.275C130.891 189.007 130.301 188.614 129.804 188.118C129.308 187.622 128.914 187.033 128.645 186.385C128.376 185.736 128.237 185.041 128.237 184.339V146.457C128.237 145.038 128.801 143.678 129.804 142.675C130.807 141.672 132.167 141.109 133.585 141.109H222.97C224.388 141.109 225.749 141.672 226.752 142.675C227.755 143.678 228.318 145.038 228.318 146.457Z" fill="#7F95F4"/>
<path d="M162.803 152.162H136.471C134.475 152.162 132.856 153.78 132.856 155.777V182.108C132.856 184.104 134.475 185.723 136.471 185.723H162.803C164.799 185.723 166.417 184.104 166.417 182.108V155.777C166.417 153.78 164.799 152.162 162.803 152.162Z" fill="white"/>
<path d="M194.021 156.424H170.828C170.678 156.425 170.53 156.396 170.391 156.339C170.252 156.282 170.125 156.199 170.019 156.093C169.912 155.987 169.828 155.861 169.77 155.723C169.713 155.584 169.683 155.436 169.683 155.286C169.683 154.982 169.804 154.69 170.018 154.476C170.233 154.261 170.525 154.14 170.828 154.14H194.021C194.323 154.142 194.613 154.264 194.826 154.478C195.039 154.693 195.159 154.983 195.159 155.286C195.159 155.587 195.039 155.877 194.825 156.09C194.612 156.304 194.323 156.424 194.021 156.424Z" fill="#B2C1F9"/>
<path d="M183.451 160.968H170.806C170.656 160.969 170.507 160.941 170.368 160.884C170.229 160.827 170.103 160.744 169.996 160.638C169.89 160.532 169.806 160.406 169.748 160.268C169.69 160.129 169.661 159.98 169.661 159.83C169.661 159.527 169.781 159.235 169.996 159.02C170.211 158.806 170.502 158.685 170.806 158.685H183.451C183.753 158.687 184.043 158.808 184.256 159.023C184.469 159.238 184.589 159.528 184.589 159.83C184.589 160.132 184.469 160.422 184.256 160.635C184.042 160.849 183.753 160.968 183.451 160.968Z" fill="#B2C1F9"/>
<path d="M222.249 160.968H188.092C187.943 160.969 187.794 160.941 187.656 160.884C187.517 160.827 187.391 160.743 187.285 160.637C187.18 160.531 187.096 160.406 187.039 160.267C186.982 160.129 186.953 159.98 186.954 159.83C186.953 159.68 186.982 159.532 187.039 159.393C187.096 159.254 187.179 159.127 187.285 159.021C187.391 158.914 187.517 158.83 187.655 158.772C187.794 158.715 187.942 158.685 188.092 158.685H222.249C222.552 158.685 222.844 158.806 223.058 159.02C223.273 159.235 223.394 159.527 223.394 159.83C223.394 159.98 223.364 160.129 223.307 160.268C223.249 160.406 223.165 160.532 223.058 160.638C222.952 160.744 222.825 160.827 222.686 160.884C222.547 160.941 222.399 160.969 222.249 160.968Z" fill="#B2C1F9"/>
<path d="M190.354 165.528H170.828C170.526 165.528 170.236 165.408 170.021 165.195C169.807 164.982 169.685 164.693 169.683 164.39C169.683 164.086 169.804 163.795 170.018 163.58C170.233 163.365 170.525 163.245 170.828 163.245H190.354C190.657 163.245 190.949 163.365 191.164 163.58C191.378 163.795 191.499 164.086 191.499 164.39C191.497 164.693 191.376 164.982 191.161 165.195C190.946 165.408 190.656 165.528 190.354 165.528Z" fill="#B2C1F9"/>
<path d="M206.933 165.528H194.653C194.352 165.526 194.063 165.406 193.85 165.193C193.637 164.98 193.517 164.691 193.515 164.39C193.515 164.088 193.635 163.797 193.848 163.583C194.061 163.368 194.35 163.247 194.653 163.245H206.933C207.237 163.245 207.529 163.365 207.743 163.58C207.958 163.795 208.079 164.086 208.079 164.39C208.077 164.693 207.955 164.982 207.741 165.195C207.526 165.408 207.236 165.528 206.933 165.528Z" fill="#B2C1F9"/>
<path d="M222.248 165.528H210.942C210.641 165.526 210.353 165.406 210.14 165.193C209.927 164.98 209.806 164.691 209.804 164.39C209.804 164.088 209.924 163.797 210.137 163.583C210.35 163.368 210.64 163.247 210.942 163.245H222.248C222.552 163.245 222.843 163.365 223.058 163.58C223.273 163.795 223.394 164.086 223.394 164.39C223.392 164.693 223.27 164.982 223.056 165.195C222.841 165.408 222.551 165.528 222.248 165.528Z" fill="#B2C1F9"/>
<path d="M222.249 170.088H170.828C170.526 170.088 170.236 169.968 170.021 169.755C169.807 169.542 169.685 169.252 169.683 168.95C169.683 168.646 169.804 168.355 170.018 168.14C170.233 167.925 170.525 167.804 170.828 167.804H222.249C222.552 167.804 222.844 167.925 223.059 168.14C223.273 168.355 223.394 168.646 223.394 168.95C223.392 169.252 223.271 169.542 223.056 169.755C222.841 169.968 222.551 170.088 222.249 170.088Z" fill="#B2C1F9"/>
<path d="M199.131 174.647H170.828C170.526 174.647 170.236 174.528 170.021 174.315C169.807 174.101 169.685 173.812 169.683 173.509C169.683 173.206 169.804 172.914 170.018 172.699C170.233 172.485 170.525 172.364 170.828 172.364H199.131C199.281 172.364 199.429 172.394 199.568 172.451C199.707 172.509 199.832 172.593 199.938 172.7C200.044 172.806 200.128 172.933 200.184 173.072C200.241 173.211 200.27 173.359 200.269 173.509C200.269 173.811 200.149 174.101 199.935 174.314C199.722 174.528 199.433 174.647 199.131 174.647Z" fill="#B2C1F9"/>
<path d="M222.248 174.647H203.69C203.388 174.647 203.099 174.528 202.885 174.314C202.672 174.101 202.552 173.811 202.552 173.509C202.551 173.359 202.58 173.211 202.637 173.072C202.693 172.933 202.777 172.806 202.883 172.7C202.989 172.593 203.114 172.509 203.253 172.451C203.392 172.394 203.54 172.364 203.69 172.364H222.248C222.401 172.364 222.552 172.394 222.692 172.453C222.832 172.512 222.96 172.599 223.066 172.707C223.173 172.816 223.257 172.945 223.313 173.086C223.369 173.228 223.397 173.379 223.394 173.532C223.386 173.83 223.262 174.114 223.048 174.322C222.834 174.531 222.547 174.648 222.248 174.647Z" fill="#B2C1F9"/>
<path d="M187.453 179.207H170.828C170.525 179.207 170.233 179.086 170.018 178.871C169.804 178.657 169.683 178.365 169.683 178.061C169.685 177.759 169.807 177.469 170.021 177.256C170.236 177.043 170.526 176.923 170.828 176.923H187.453C187.755 176.923 188.046 177.043 188.26 177.256C188.475 177.469 188.596 177.759 188.598 178.061C188.598 178.365 188.478 178.657 188.263 178.871C188.048 179.086 187.757 179.207 187.453 179.207Z" fill="#B2C1F9"/>
<path d="M208.585 179.207H191.953C191.65 179.205 191.361 179.083 191.148 178.869C190.934 178.654 190.815 178.364 190.815 178.061C190.817 177.76 190.937 177.472 191.15 177.259C191.363 177.046 191.652 176.925 191.953 176.923H208.585C208.887 176.923 209.177 177.043 209.392 177.256C209.606 177.469 209.728 177.759 209.73 178.061C209.73 178.365 209.609 178.657 209.394 178.871C209.18 179.086 208.888 179.207 208.585 179.207Z" fill="#B2C1F9"/>
<path d="M222.248 179.207H212.579C212.429 179.207 212.28 179.177 212.142 179.12C212.003 179.062 211.877 178.977 211.771 178.871C211.666 178.764 211.582 178.638 211.525 178.499C211.469 178.36 211.44 178.211 211.441 178.061C211.441 177.76 211.561 177.47 211.774 177.257C211.988 177.043 212.277 176.923 212.579 176.923H222.248C222.551 176.923 222.841 177.043 223.056 177.256C223.27 177.469 223.392 177.759 223.394 178.061C223.394 178.365 223.273 178.657 223.058 178.871C222.844 179.086 222.552 179.207 222.248 179.207Z" fill="#B2C1F9"/>
<path d="M194.021 183.766H170.828C170.525 183.766 170.233 183.646 170.018 183.431C169.804 183.216 169.683 182.925 169.683 182.621C169.685 182.318 169.807 182.029 170.021 181.816C170.236 181.603 170.526 181.483 170.828 181.483H194.021C194.322 181.485 194.61 181.605 194.823 181.818C195.036 182.031 195.157 182.32 195.159 182.621C195.159 182.923 195.039 183.214 194.826 183.428C194.613 183.643 194.323 183.764 194.021 183.766Z" fill="#B2C1F9"/>
<path d="M222.248 156.424H199.064C198.914 156.425 198.765 156.396 198.626 156.339C198.487 156.282 198.361 156.199 198.254 156.093C198.148 155.987 198.063 155.861 198.005 155.723C197.948 155.584 197.918 155.436 197.918 155.286C197.918 155.135 197.948 154.986 198.005 154.847C198.063 154.708 198.147 154.582 198.254 154.476C198.36 154.369 198.486 154.285 198.625 154.227C198.764 154.17 198.913 154.14 199.064 154.14H222.248C222.552 154.14 222.844 154.261 223.058 154.476C223.273 154.69 223.394 154.982 223.394 155.286C223.394 155.436 223.364 155.584 223.307 155.723C223.249 155.861 223.164 155.987 223.058 156.093C222.951 156.199 222.825 156.282 222.686 156.339C222.547 156.396 222.398 156.425 222.248 156.424Z" fill="#B2C1F9"/>
<path d="M228.318 146.457V148.048H128.237V146.457C128.237 145.038 128.801 143.678 129.804 142.675C130.807 141.672 132.167 141.109 133.585 141.109H222.97C224.388 141.109 225.749 141.672 226.752 142.675C227.755 143.678 228.318 145.038 228.318 146.457Z" fill="#3052CE"/>
<path d="M209.455 144.701C209.455 144.947 209.382 145.187 209.245 145.392C209.109 145.596 208.915 145.755 208.688 145.849C208.461 145.943 208.211 145.968 207.97 145.92C207.729 145.872 207.508 145.753 207.334 145.58C207.16 145.406 207.042 145.185 206.994 144.944C206.946 144.703 206.971 144.453 207.065 144.226C207.159 143.999 207.318 143.805 207.522 143.669C207.727 143.532 207.967 143.459 208.213 143.459C208.542 143.459 208.858 143.59 209.091 143.823C209.324 144.056 209.455 144.372 209.455 144.701Z" fill="#DEE3FC"/>
<path d="M215.792 144.701C215.792 144.947 215.719 145.188 215.582 145.392C215.445 145.597 215.251 145.756 215.023 145.85C214.796 145.944 214.546 145.968 214.305 145.919C214.064 145.871 213.842 145.752 213.669 145.577C213.495 145.403 213.378 145.181 213.331 144.939C213.284 144.698 213.309 144.448 213.404 144.221C213.499 143.994 213.66 143.801 213.865 143.665C214.07 143.529 214.311 143.458 214.557 143.459C214.72 143.459 214.881 143.491 215.031 143.554C215.182 143.616 215.318 143.708 215.433 143.824C215.548 143.939 215.639 144.076 215.7 144.227C215.762 144.377 215.793 144.539 215.792 144.701Z" fill="#DEE3FC"/>
<path d="M222.137 144.701C222.137 144.947 222.064 145.188 221.927 145.392C221.79 145.597 221.596 145.756 221.368 145.85C221.141 145.944 220.891 145.968 220.65 145.919C220.408 145.871 220.187 145.752 220.014 145.577C219.84 145.403 219.723 145.181 219.675 144.939C219.628 144.698 219.654 144.448 219.749 144.221C219.844 143.994 220.005 143.801 220.21 143.665C220.415 143.529 220.656 143.458 220.902 143.459C221.065 143.459 221.226 143.491 221.376 143.554C221.527 143.616 221.663 143.708 221.778 143.824C221.893 143.939 221.983 144.076 222.045 144.227C222.107 144.377 222.138 144.539 222.137 144.701Z" fill="#DEE3FC"/>
<path d="M159.217 107.28H139.409C136.472 107.28 134.091 109.661 134.091 112.598V132.406C134.091 135.343 136.472 137.724 139.409 137.724H159.217C162.155 137.724 164.536 135.343 164.536 132.406V112.598C164.536 109.661 162.155 107.28 159.217 107.28Z" stroke="#495AD6" stroke-width="0.9" stroke-miterlimit="10"/>
<path d="M144.564 118.102L140.183 122.483L144.601 126.909" stroke="#495AD6" stroke-width="1.67" stroke-linecap="round" stroke-linejoin="round"/>
<path d="M154.063 118.102L158.451 122.483L154.033 126.909" stroke="#495AD6" stroke-width="1.67" stroke-linecap="round" stroke-linejoin="round"/>
<path d="M151.37 118.102L147.264 126.909" stroke="#495AD6" stroke-width="1.67" stroke-linecap="round" stroke-linejoin="round"/>
<path d="M222.234 26.8881H134.322C130.962 26.8881 128.237 29.6122 128.237 32.9725V94.9102C128.237 98.2706 130.962 100.995 134.322 100.995H222.234C225.594 100.995 228.318 98.2706 228.318 94.9102V32.9725C228.318 29.6122 225.594 26.8881 222.234 26.8881Z" fill="#B2C1F9"/>
<path d="M208.049 60.9621C216.06 60.9621 222.554 54.4683 222.554 46.4577C222.554 38.4471 216.06 31.9532 208.049 31.9532C200.039 31.9532 193.545 38.4471 193.545 46.4577C193.545 54.4683 200.039 60.9621 208.049 60.9621Z" fill="#F0F4FF"/>
<path d="M187.096 100.995H134.322C132.708 100.995 131.161 100.354 130.02 99.2126C128.878 98.0716 128.237 96.524 128.237 94.9103V85.1588L151.296 45.1787C151.57 44.7012 151.966 44.3046 152.442 44.0288C152.919 43.753 153.46 43.6077 154.011 43.6077C154.561 43.6077 155.102 43.753 155.579 44.0288C156.056 44.3046 156.451 44.7012 156.726 45.1787L174.176 75.3479L187.096 97.7814C187.392 98.2651 187.548 98.8211 187.548 99.3881C187.548 99.9551 187.392 100.511 187.096 100.995Z" fill="white"/>
<path d="M209.812 100.995H159.374L174.175 75.3477L182.149 61.535C182.396 61.1055 182.752 60.7487 183.181 60.5007C183.61 60.2526 184.097 60.1219 184.593 60.1219C185.088 60.1219 185.575 60.2526 186.004 60.5007C186.433 60.7487 186.789 61.1055 187.036 61.535L209.812 100.995Z" fill="#F0F4FF"/>
<path d="M309.855 216.085H270.968V274.52H309.855V216.085Z" fill="#3B47BC"/>
<path d="M309.848 274.512H324.739V216.078H309.848V274.512Z" fill="#495AD6"/>
<path d="M322.917 218.324H311.983V220.191H322.917V218.324Z" fill="#B2C1F9"/>
<path d="M322.917 222.333H311.983V224.2H322.917V222.333Z" fill="#B2C1F9"/>
<path d="M322.917 226.342H311.983V228.209H322.917V226.342Z" fill="#B2C1F9"/>
<path d="M322.917 230.344H311.983V232.211H322.917V230.344Z" fill="#B2C1F9"/>
<path d="M322.917 234.353H311.983V236.22H322.917V234.353Z" fill="#B2C1F9"/>
<path d="M322.917 238.355H311.983V240.222H322.917V238.355Z" fill="#B2C1F9"/>
<path d="M322.917 242.364H311.983V244.231H322.917V242.364Z" fill="#B2C1F9"/>
<path d="M322.917 246.373H311.983V248.24H322.917V246.373Z" fill="#B2C1F9"/>
<path d="M322.917 250.375H311.983V252.242H322.917V250.375Z" fill="#B2C1F9"/>
<path d="M322.917 254.384H311.983V256.251H322.917V254.384Z" fill="#B2C1F9"/>
<path d="M322.917 258.394H311.983V260.261H322.917V258.394Z" fill="#B2C1F9"/>
<path d="M322.917 262.395H311.983V264.262H322.917V262.395Z" fill="#B2C1F9"/>
<path d="M322.917 266.405H311.983V268.272H322.917V266.405Z" fill="#B2C1F9"/>
<path d="M322.917 270.406H311.983V272.273H322.917V270.406Z" fill="#B2C1F9"/>
<path d="M264.654 274.52H284.417C284.417 274.52 285.518 271.001 283.123 266.643C283.123 266.643 281.531 267.915 276.77 267.052C275.729 267.942 274.603 268.73 273.408 269.402C272.025 270.072 264.118 271.619 264.654 274.52Z" fill="#281616"/>
<path d="M266.029 218.793C267.309 226.41 273.192 252.175 275.699 267.401C278.378 267.731 281.094 267.592 283.725 266.992C283.494 261.681 283.041 248.984 283.093 243.421C283.182 234.011 283.621 221.597 279.478 214.791L265.553 215.885C265.635 216.628 265.71 217.223 265.777 217.647C265.844 218.071 265.94 218.436 266.029 218.793Z" fill="#002C54"/>
<path d="M228.906 274.52H248.669C248.669 274.52 249.77 271.001 247.382 266.643C247.382 266.643 245.79 267.915 241.022 267.052C239.981 267.942 238.855 268.73 237.66 269.402C236.284 270.072 228.377 271.619 228.906 274.52Z" fill="#281616"/>
<path d="M240.45 266.955C242.993 267.638 245.636 267.875 248.26 267.654C249.309 261.533 250.967 248.07 252.462 241.762C254.783 231.951 257.052 218.466 255.475 213.653L241.774 210.209C241.729 210.648 240.651 251.93 240.45 266.955Z" fill="#052635"/>
<path d="M294.986 196.166C294.719 193.459 294.399 191.48 294.399 191.48L279.091 195.199L266.089 198.174C261.269 199.246 255.445 200.54 250.305 201.7C244.548 203.009 240.725 207.39 241.982 213.155L243.425 220.154C251.488 220.043 289.371 216.435 292.614 214.776C296.266 212.954 297.367 206.409 294.986 196.166Z" fill="#052635"/>
<path d="M317.836 196.166C317.566 194.229 317.028 192.339 316.237 190.55L301.934 195.229L288.932 198.204C284.112 199.275 278.288 200.569 273.155 201.73C267.391 203.039 263.567 207.42 264.832 213.185L266.275 220.184C274.331 220.072 308.011 218.897 315.456 214.806C319.049 212.813 320.239 206.408 317.836 196.166Z" fill="#002C54"/>
<path d="M274.985 174.231C274.985 174.231 281.784 171.159 283.658 174.231C284.684 175.912 283.978 179.051 281.657 180.36C279.336 181.669 266.23 187.218 253.868 190.312C253.479 189.107 253.017 187.927 252.485 186.779C256.366 185.087 260.073 183.019 263.553 180.605C267.156 178.126 270.983 175.989 274.985 174.223V174.231Z" fill="#E5918F"/>
<path d="M276.688 152.995L270.857 176.269C270.857 176.269 271.459 182.153 277.403 179.244C283.346 176.336 287.288 157.837 287.288 157.837L276.688 152.995Z" fill="#E5918F"/>
<path d="M286.544 166.012C285.8 165.841 285.138 165.647 284.476 165.447C283.814 165.246 283.145 165.045 282.535 164.829C279.503 163.858 276.629 162.45 274.003 160.649C275.744 153.084 277.841 148.004 279.708 144.649C279.76 144.57 279.807 144.488 279.85 144.404L279.998 144.151C281.051 142.486 282.43 141.051 284.052 139.934L284.543 139.599L285.227 151.745L285.347 152.995L286.544 166.012Z" fill="white"/>
<path d="M286.544 166.012C285.8 165.841 285.138 165.647 284.476 165.446C283.814 165.246 283.145 165.045 282.535 164.829C283.695 156.647 284.766 151.5 284.766 151.5L285.369 152.988L286.544 166.012Z" fill="#C7E5F2"/>
<path d="M320.983 144.999C320.841 148.599 320.239 154.371 319.666 160.18C319.488 162.017 319.324 163.862 319.183 165.647C319.086 166.755 317.412 172.684 317.345 173.747C317.048 178.82 314.556 182.614 316.914 190.342C317.327 191.487 317.565 192.688 317.621 193.905C317.621 194.433 316.929 194.991 316.654 195.139C315.672 195.712 313.73 196.106 311.373 196.396C306.504 196.885 301.612 197.111 296.719 197.073C291.654 197.073 284.075 196.27 283.093 194.991C282.215 193.823 283.026 192.12 283.442 189.784C285.309 179.199 284.64 173.68 284.528 166.034C284.528 165.848 284.528 165.654 284.528 165.454C284.335 153.672 283.554 143.578 284.104 139.941L284.595 139.606C285.398 139.056 286.187 138.565 286.946 138.118C287.025 138.079 287.102 138.034 287.176 137.984L287.875 137.605C287.962 137.555 288.051 137.51 288.143 137.471C289.986 136.626 291.873 135.882 293.796 135.24L294.28 135.076C295.633 134.997 297.101 134.979 298.683 135.024C300.059 135.061 302.164 135.247 304.455 135.545C307.038 135.852 309.598 136.331 312.116 136.98H312.154C314.467 137.891 316.531 139.336 318.179 141.198C319.257 142.352 320.198 143.627 320.983 144.999Z" fill="white"/>
<path d="M316.877 190.342C317.29 191.487 317.528 192.689 317.584 193.905C317.584 194.433 316.892 194.991 316.617 195.14C315.635 195.712 313.694 196.107 311.336 196.397C312.31 196.285 313.984 194.745 313.984 193.362C313.984 192.388 312.727 185.827 313.069 181.587C313.411 177.348 314.11 170.631 312.801 165.223C311.492 159.816 310.242 152.75 310.242 152.75L317.628 157.212C317.628 157.212 318.58 158.544 319.629 160.188C319.451 162.025 319.287 163.87 319.146 165.655C319.049 166.756 314.519 182.614 316.877 190.342Z" fill="#C7E5F2"/>
<path d="M284.387 113.848C284.387 113.848 285.027 121.568 287.585 122.089C290.144 122.61 289.519 119.33 289.519 119.33L289.162 115.663L284.387 113.848Z" fill="#002C54"/>
<path d="M296.191 141.845C291.178 141.243 293.052 136.371 293.744 135.255C293.923 135.195 294.785 134.928 294.852 134.89C294.919 134.853 294.852 134.89 294.852 134.89C295.032 134.734 295.168 134.534 295.247 134.31C295.73 133.031 295.507 130.465 295.492 130.301V129.84C295.574 129.527 295.656 129.237 295.723 128.97L298.363 126.894L303.942 122.506C303.942 122.506 302.454 129.847 303.652 134.466C303.695 134.693 303.783 134.908 303.911 135.1C304.039 135.291 304.203 135.455 304.396 135.582C304.565 135.688 304.755 135.756 304.953 135.783C306.329 136.4 304.425 142.82 296.191 141.845Z" fill="#E5918F"/>
<path d="M300.617 127.147C300.494 128.725 299.924 130.235 298.974 131.5C298.024 132.766 296.734 133.735 295.254 134.295C295.745 133.016 295.522 130.457 295.507 130.294L297.738 128.546L300.617 127.147Z" fill="#CC6362"/>
<path d="M285.607 114.949C285.607 114.949 286.767 130.97 291.096 132.339C292.948 132.378 294.782 131.959 296.433 131.119C298.085 130.28 299.504 129.046 300.565 127.526C301.71 125.994 303.153 125.652 303.622 123.807C304.366 120.832 305.467 115.246 304.091 111.906C302.127 107.131 285.793 103.345 285.607 114.949Z" fill="#E5918F"/>
<path d="M304.158 109.251C304.083 106.335 301.138 105.249 301.138 105.249C298.2 103.873 292.108 104.505 285.822 105.874C284.335 106.201 282.498 105.294 281.471 106.008C280.229 106.871 281.471 110.813 281.471 110.813C283.896 118.154 292.814 115.767 295.5 114.859C296.139 116.756 296.05 119.382 297.642 120.735C298.549 121.479 300.126 121.531 301.725 121.263C301.919 121.635 302.662 122.007 302.811 122.483C303.317 124.202 303.243 126.879 303.228 128.955L303.972 128.583C304.076 128.025 311.901 109.489 304.158 109.251Z" fill="#002C54"/>
<path d="M290.047 120.341C290.278 121.673 289.616 122.9 288.56 123.071C287.503 123.242 286.499 122.327 286.276 120.981C286.053 119.635 286.708 118.43 287.764 118.251C288.82 118.073 289.824 119.01 290.047 120.341Z" stroke="white" stroke-width="0.5" stroke-miterlimit="10"/>
<path d="M295.276 119.367C295.507 120.698 294.845 121.918 293.789 122.097C292.733 122.275 291.728 121.353 291.505 120.006C291.282 118.66 291.937 117.455 292.993 117.277C294.049 117.098 295.053 118.035 295.276 119.367Z" stroke="white" stroke-width="0.5" stroke-miterlimit="10"/>
<path d="M290.047 120.341C290.047 120.341 290.278 119.969 291.483 120.073" stroke="white" stroke-width="0.5" stroke-miterlimit="10"/>
<path d="M295.321 119.687L299.791 118.973" stroke="white" stroke-width="0.5" stroke-miterlimit="10"/>
<path d="M300.156 124.648C303.235 125.823 304.195 118.251 301.272 117.909C299.04 117.656 298.966 120.75 298.966 120.75C298.966 120.75 298.363 123.971 300.156 124.648Z" fill="#E5918F"/>
<g opacity="0.5">
<path opacity="0.5" d="M301.138 119.054C300.988 119.22 300.858 119.402 300.751 119.597C300.538 119.998 300.411 120.439 300.379 120.892C300.356 121.139 300.356 121.388 300.379 121.635C300.379 121.874 300.379 122.097 300.431 122.297C300.483 122.498 300.468 122.669 300.483 122.788C300.498 122.907 300.483 122.982 300.483 122.982L300.372 122.818C300.279 122.678 300.197 122.531 300.126 122.379C300.023 122.161 299.945 121.931 299.896 121.695C299.837 121.416 299.819 121.131 299.843 120.847C299.871 120.559 299.946 120.277 300.067 120.014C300.177 119.787 300.328 119.583 300.513 119.411C300.69 119.245 300.904 119.122 301.138 119.054Z" fill="#CC6362"/>
<path opacity="0.5" d="M301.643 120.49C301.541 120.505 301.442 120.533 301.346 120.572C301.144 120.648 300.959 120.764 300.803 120.914C300.659 121.063 300.547 121.24 300.476 121.434C300.445 121.519 300.421 121.606 300.401 121.695L299.896 121.509C299.949 121.404 300.011 121.305 300.081 121.211C300.229 121.002 300.419 120.827 300.639 120.698C300.946 120.531 301.296 120.459 301.643 120.49Z" fill="#CC6362"/>
</g>
<path d="M329.715 177.295C328.361 178.865 323.229 180.01 320.789 177.838C320.046 177.147 319.138 175.324 318.275 173.063C316.612 168.328 315.189 163.512 314.013 158.633L325.505 152.757C325.505 152.757 326.993 159.384 328.25 165.684V165.863C328.666 167.879 329.053 169.865 329.351 171.568C329.358 171.612 329.358 171.658 329.351 171.702C329.69 173.546 329.812 175.423 329.715 177.295Z" fill="#E5918F"/>
<path d="M309.647 150.592C310.755 155.204 314.244 163.981 314.244 163.981C317.094 164.313 319.982 163.963 322.671 162.962C324.685 162.185 326.514 160.997 328.042 159.474C328.042 159.474 325.728 152.98 323.653 148.316C321.794 144.121 320.678 142.559 319.867 141.726C318.533 140.365 316.995 139.22 315.307 138.334L309.647 150.592Z" fill="white"/>
<path d="M324.174 153.605L317.427 150.696L312.116 137.01C312.116 137.01 313.091 137.3 314.348 137.821L314.519 137.888C314.555 137.898 314.591 137.913 314.623 137.933C315.769 138.468 320.209 141.086 323.289 150.577C323.289 150.659 323.333 150.741 323.363 150.823C323.69 151.916 323.928 152.802 324.055 153.255C324.071 153.299 324.083 153.344 324.092 153.389C324.144 153.449 324.151 153.545 324.174 153.605Z" fill="white"/>
<path d="M329.715 177.295C329.618 178.136 329.388 178.738 328.971 178.954L327.893 179.601C325.611 181.007 323.232 182.25 320.774 183.32C312.642 186.72 304.34 189.699 295.901 192.246C295.483 191.059 294.986 189.901 294.414 188.78C298.218 186.927 301.833 184.707 305.206 182.152C310.569 178.061 318.275 173.093 318.275 173.093L320.224 170.802C320.224 170.802 327.142 164.435 328.25 165.714V165.893C328.413 166.555 328.994 168.994 329.351 171.598C329.358 171.642 329.358 171.687 329.351 171.732C329.687 173.566 329.81 175.433 329.715 177.295Z" fill="#E5918F"/>
<path d="M295.18 188.363C294.354 188.839 293.393 189.025 292.45 188.891C291.706 188.735 291.379 188.423 290.814 188.319C289.855 188.212 288.911 187.995 288.002 187.672C287.258 187.307 286.968 187.262 286.998 188.014C287.027 188.765 288.485 189.405 288.887 189.613C289.26 189.87 289.582 190.192 289.839 190.565C289.891 190.647 287.392 191.956 286.723 191.688C286.617 191.989 286.587 192.31 286.633 192.625C286.752 192.96 287.266 193.079 287.303 193.25C287.34 193.421 287.184 193.763 287.303 194.031C287.422 194.299 287.875 194.299 288.047 194.738C288.218 195.177 288.047 195.177 288.158 195.63C288.27 196.084 288.902 196.166 288.984 196.374C289.066 196.582 289.036 196.88 289.281 197.044C289.527 197.207 291.773 196.478 292.591 196.129C293.409 195.779 295.604 192.618 298.029 191.547L295.18 188.363Z" fill="#E5918F"/>
<path d="M306.664 202.451H289.185V200.74H306.664C306.891 200.742 307.107 200.833 307.267 200.993C307.427 201.153 307.518 201.37 307.52 201.596C307.52 201.823 307.43 202.04 307.269 202.201C307.109 202.361 306.891 202.451 306.664 202.451Z" fill="#375F84"/>
<path d="M297.181 202.451H253.444C253.189 202.451 252.941 202.367 252.739 202.212C252.536 202.058 252.389 201.841 252.321 201.596L243.395 169.359C243.349 169.192 243.343 169.018 243.375 168.848C243.408 168.679 243.479 168.52 243.584 168.382C243.688 168.245 243.822 168.133 243.977 168.056C244.131 167.979 244.301 167.939 244.474 167.938H286.767C287.246 167.943 287.711 168.102 288.093 168.391C288.474 168.68 288.753 169.085 288.887 169.545L297.813 201.67C297.837 201.765 297.839 201.864 297.819 201.959C297.798 202.055 297.755 202.144 297.694 202.22C297.632 202.296 297.554 202.357 297.465 202.397C297.375 202.437 297.278 202.456 297.181 202.451Z" fill="#375F84"/>
<path d="M295.626 202.451H251.86C251.605 202.451 251.357 202.367 251.154 202.212C250.952 202.058 250.805 201.841 250.737 201.596L241.811 169.359C241.765 169.192 241.758 169.018 241.791 168.848C241.824 168.679 241.895 168.52 241.999 168.382C242.104 168.245 242.238 168.133 242.393 168.056C242.547 167.979 242.717 167.939 242.889 167.938H285.205C285.684 167.943 286.149 168.102 286.531 168.391C286.912 168.68 287.191 169.085 287.325 169.545L296.251 201.67C296.277 201.764 296.28 201.863 296.261 201.959C296.241 202.054 296.199 202.144 296.138 202.22C296.077 202.296 295.999 202.357 295.91 202.397C295.821 202.437 295.724 202.456 295.626 202.451Z" fill="#467CDB"/>
<path d="M122.183 181.617L127.256 176.41C127.306 175.46 127.455 174.518 127.702 173.599C127.977 173.115 128.691 171.3 129.048 171.107C129.395 171 129.765 171 130.112 171.107C130.442 170.991 130.784 170.912 131.131 170.869C131.447 170.916 131.753 171.014 132.038 171.159C132.038 171.159 132.782 171.107 133.117 171.107C133.262 171.091 133.408 171.122 133.533 171.196C134.101 170.534 134.707 169.905 135.348 169.314C135.936 168.838 136.836 167.968 137.111 167.975C137.386 167.983 137.476 168.422 137.29 168.898C137.025 169.355 136.694 169.771 136.308 170.132L133.995 173.628C134.203 173.546 134.407 173.452 134.604 173.346C134.813 173.212 136.219 171.858 136.308 171.858C136.397 171.858 137.052 171.382 137.394 171.806C137.736 172.23 134.969 175.525 134.523 176.008C133.573 176.66 132.579 177.244 131.547 177.756C131.547 177.756 128.84 182.621 128.572 182.963C128.304 183.305 122.183 181.617 122.183 181.617Z" fill="#E49191"/>
<path d="M126.951 157.629C126.951 157.629 124.124 173.993 121.461 174.417C121.461 174.417 110.817 174.841 108.444 161.936C106.391 150.778 114.64 148.353 118.493 149.209C122.346 150.064 127.784 150.622 126.951 157.629Z" fill="#E49191"/>
<path d="M117.549 171.791C117.549 171.791 116.061 173.799 115.54 178.664C112.618 178.972 109.668 178.457 107.024 177.176C108.421 172.521 109.251 167.713 109.493 162.858" fill="#E49191"/>
<path d="M114.551 146.464C108.734 147.751 109.203 151.373 109.203 151.373C106.481 152.043 105.893 153.166 105.915 158.194C105.938 163.222 107.753 169.254 108.757 169.745C109.761 170.236 115.451 170.259 115.92 170.088C116.388 169.916 118.382 165.305 117.921 164.494C117.459 163.683 117.921 160.492 119.267 160.373C120.613 160.254 120.331 162.3 120.331 162.3L121.424 162.062L122.257 160.001C129.941 160.463 131.927 151.708 131.927 151.708C130.082 150.473 120.368 145.177 114.551 146.464Z" fill="#002C54"/>
<path d="M50.0027 257.501L55.8863 258.327L53.9524 265.222L47.5853 263.615C47.23 263.14 46.9808 262.595 46.8545 262.015C46.7282 261.436 46.7279 260.836 46.8534 260.256C46.9789 259.677 47.2274 259.131 47.5821 258.655C47.9368 258.18 48.3894 257.786 48.9093 257.501C49.2682 257.41 49.6439 257.41 50.0027 257.501Z" fill="#E5918F"/>
<path d="M93.888 239.873L85.1927 213.631C85.1927 213.631 82.5671 212.701 81.2208 213.631C81.2208 213.631 72.1908 218.488 73.1578 232.33C73.9016 242.744 76.0884 254.08 76.981 258.617L53.8557 257.761C53.0199 258.86 52.4872 260.159 52.311 261.529C52.1347 262.898 52.3212 264.289 52.8516 265.564C52.8516 265.564 81.9051 273.382 85.9961 274.103C89.3209 274.691 92.9582 275.144 94.7136 273.634C97.8376 270.972 93.888 239.873 93.888 239.873Z" fill="black"/>
<path d="M77.3827 257.501L83.2589 258.356L81.3101 265.222L74.943 263.615C74.5877 263.14 74.3385 262.595 74.2122 262.015C74.0859 261.436 74.0855 260.836 74.211 260.256C74.3366 259.677 74.5851 259.131 74.9398 258.655C75.2945 258.18 75.7471 257.786 76.267 257.501C76.6329 257.407 77.0168 257.407 77.3827 257.501Z" fill="#E5918F"/>
<path d="M75.2479 261.101C75.114 262.455 76.2967 263.675 76.081 264.01C75.8653 264.344 71.9082 270.979 71.9082 270.979C71.9082 270.979 74.8834 272.273 74.4148 274.155H66.8576C65.6749 273.016 64.9836 271.46 64.9312 269.819C65.3025 267.9 65.9279 266.039 66.7907 264.285L71.209 255.82C72.0333 255.585 72.9092 255.603 73.7231 255.872C75.0092 256.252 76.2397 256.8 77.3827 257.501C77.3827 257.501 75.5677 257.761 75.2479 261.101Z" fill="#467CDB"/>
<path d="M135.772 268.123C133.905 261.161 116.351 231.445 110.416 223.419C98.2169 218.161 85.1927 213.631 85.1927 213.631C79.8149 214.918 77.1669 225.748 80.2165 232.97C82.3067 237.924 95.5764 250.398 103.706 257.732H81.1538C81.1538 257.732 78.4983 261.704 80.9083 265.475C80.9083 265.475 118.412 273.999 121.699 274.482C124.987 274.966 132.373 274.482 132.373 274.482C132.373 274.482 137.342 273.984 135.772 268.123Z" fill="#002C54"/>
<path d="M47.8755 261.101C47.7416 262.455 48.9242 263.675 48.7085 264.01C48.4928 264.344 44.5357 270.979 44.5357 270.979C44.5357 270.979 47.511 272.273 47.0424 274.155H39.4852C38.3024 273.016 37.6112 271.46 37.5587 269.819C37.9301 267.9 38.5554 266.039 39.4183 264.285L43.8291 255.82C44.656 255.586 45.5341 255.604 46.3506 255.872C47.6347 256.251 48.8628 256.799 50.0028 257.501C50.0028 257.501 48.1953 257.762 47.8755 261.101Z" fill="#467CDB"/>
<path d="M164.037 176.566L151.913 197.847L143.248 189.211L136.077 199.885L138.16 200.882L137.416 201.507C137.416 201.507 154.137 209.644 156.138 207.851C158.139 206.059 167.474 178.991 167.474 178.991L164.037 176.566Z" fill="#E49191"/>
<path d="M144.795 190.565C144.795 190.565 142.511 200.235 137.944 204.764L126.259 200.302C126.259 200.302 120.836 209.421 115.533 216.413C113.495 219.113 112.818 222.914 110.423 223.412C110.274 223.36 110.133 223.315 109.984 223.278C103.491 221.329 93.9102 223.397 86.0035 220.459C77.271 217.209 78.967 215.379 78.967 215.379C82.3486 209.105 85.128 202.525 87.2679 195.727C88.4293 191.829 89.3926 187.874 90.154 183.878C90.6804 181.077 92.0712 178.51 94.1311 176.54C96.191 174.569 98.8164 173.294 101.639 172.892H101.832C108.452 172.051 125.783 174.097 129.152 175.54C132.522 176.983 144.795 190.565 144.795 190.565Z" fill="#467CDB"/>
<path d="M126.259 200.309C126.259 200.309 120.836 209.428 115.533 216.42C113.495 219.12 112.818 222.921 110.423 223.419C111.472 223.047 113.212 217.528 113.83 216.286C114.447 215.044 115.444 213.809 117.586 209.473C119.728 205.136 122.614 198.762 122.614 198.762L126.259 200.309Z" fill="#5996EF"/>
<path d="M103.736 257.732C103.736 257.732 103.915 257.695 104.242 257.65C104.569 257.605 105.03 257.553 105.588 257.531C106.957 257.47 108.329 257.533 109.687 257.717C110.43 257.828 111.174 257.955 111.836 258.126C112.459 258.272 113.072 258.453 113.673 258.669C114.209 258.855 114.633 259.056 114.931 259.19C115.228 259.324 115.392 259.413 115.392 259.413C115.392 259.413 115.206 259.413 114.886 259.331C114.566 259.249 114.142 259.205 113.562 259.108C112.469 258.929 111.025 258.699 109.575 258.505C108.831 258.394 108.125 258.312 107.44 258.215L105.573 257.985L103.736 257.732Z" fill="black"/>
<path d="M173.045 168.741C172.314 169.159 171.633 169.658 171.014 170.229L171.699 168.905C172.145 168.482 172.56 168.027 172.941 167.544C173.268 167.06 173.097 166.577 172.837 166.547C172.152 166.929 171.513 167.389 170.933 167.916L171.074 167.648C171.518 167.22 171.933 166.762 172.316 166.279C172.643 165.796 172.465 165.312 172.212 165.29C171.959 165.268 169.854 167.023 169.854 167.023L168.828 168.392L169.571 166.904C169.827 166.58 170.053 166.234 170.248 165.87C170.516 165.327 170.323 165.164 170.174 164.978C170.025 164.792 168.612 165.855 168.247 166.272C167.668 167.026 167.136 167.816 166.656 168.637L165.525 171.055C165.451 170.348 165.332 169.136 165.25 168.362C165.131 167.254 164.127 166.986 164.089 167.529C164.052 168.072 163.494 170.727 163.621 172.17C163.747 173.613 163.985 174.558 164.075 175.369C164.164 176.18 163.331 177.801 163.331 177.801C163.331 177.801 166.7 179.891 167.258 179.289C168.099 178.353 168.872 177.359 169.571 176.313C170.113 175.37 170.554 174.373 170.888 173.338L171.937 171.107C172.383 170.68 172.798 170.223 173.179 169.738C173.476 169.247 173.305 168.764 173.045 168.741Z" fill="#E49191"/>
<path d="M366.251 100.995H326.785C325.569 100.995 324.404 101.477 323.545 102.337C322.685 103.196 322.203 104.361 322.203 105.577V114.897C322.201 116.012 322.607 117.089 323.344 117.926C324.081 118.763 325.098 119.302 326.204 119.441C326.364 119.463 326.51 119.541 326.616 119.661C326.723 119.781 326.782 119.935 326.785 120.096V125.184C326.784 125.247 326.804 125.31 326.841 125.361C326.879 125.413 326.932 125.451 326.993 125.47C327.053 125.489 327.119 125.489 327.179 125.468C327.239 125.447 327.292 125.407 327.328 125.355L331.352 119.739C331.413 119.651 331.494 119.58 331.588 119.531C331.683 119.482 331.788 119.456 331.895 119.456H366.251C367.467 119.456 368.632 118.973 369.491 118.114C370.351 117.255 370.833 116.089 370.833 114.874V105.577C370.833 104.361 370.351 103.196 369.491 102.337C368.632 101.477 367.467 100.995 366.251 100.995Z" stroke="white" stroke-width="0.9" stroke-miterlimit="10"/>
<path d="M332.839 110.225C332.839 110.52 332.752 110.807 332.588 111.052C332.425 111.296 332.193 111.487 331.921 111.6C331.649 111.712 331.35 111.742 331.061 111.684C330.773 111.627 330.508 111.485 330.299 111.277C330.091 111.069 329.95 110.804 329.892 110.516C329.835 110.227 329.864 109.928 329.977 109.656C330.09 109.384 330.28 109.152 330.525 108.988C330.77 108.825 331.057 108.738 331.351 108.738C331.746 108.738 332.124 108.894 332.403 109.173C332.682 109.452 332.839 109.831 332.839 110.225Z" stroke="white" stroke-width="0.9" stroke-miterlimit="10"/>
<path d="M340.433 110.225C340.433 110.52 340.346 110.807 340.183 111.052C340.019 111.296 339.787 111.487 339.515 111.6C339.243 111.712 338.944 111.742 338.655 111.684C338.367 111.627 338.102 111.485 337.894 111.277C337.686 111.069 337.544 110.804 337.487 110.516C337.429 110.227 337.459 109.928 337.571 109.656C337.684 109.384 337.875 109.152 338.119 108.988C338.364 108.825 338.651 108.738 338.946 108.738C339.34 108.738 339.719 108.894 339.998 109.173C340.277 109.452 340.433 109.831 340.433 110.225Z" stroke="white" stroke-width="0.9" stroke-miterlimit="10"/>
<path d="M348.02 110.225C348.02 110.52 347.933 110.807 347.77 111.052C347.606 111.296 347.374 111.487 347.102 111.6C346.83 111.712 346.531 111.742 346.243 111.684C345.954 111.627 345.689 111.485 345.481 111.277C345.273 111.069 345.131 110.804 345.074 110.516C345.016 110.227 345.046 109.928 345.158 109.656C345.271 109.384 345.462 109.152 345.706 108.988C345.951 108.825 346.239 108.738 346.533 108.738C346.927 108.738 347.306 108.894 347.585 109.173C347.864 109.452 348.02 109.831 348.02 110.225Z" stroke="white" stroke-width="0.9" stroke-miterlimit="10"/>
<path d="M355.615 110.225C355.615 110.52 355.528 110.807 355.364 111.052C355.201 111.296 354.968 111.487 354.697 111.6C354.425 111.712 354.126 111.742 353.837 111.684C353.548 111.627 353.283 111.485 353.075 111.277C352.867 111.069 352.726 110.804 352.668 110.516C352.611 110.227 352.64 109.928 352.753 109.656C352.865 109.384 353.056 109.152 353.301 108.988C353.545 108.825 353.833 108.738 354.127 108.738C354.522 108.738 354.9 108.894 355.179 109.173C355.458 109.452 355.615 109.831 355.615 110.225Z" stroke="white" stroke-width="0.9" stroke-miterlimit="10"/>
<path d="M363.209 110.225C363.209 110.52 363.122 110.807 362.958 111.052C362.795 111.296 362.563 111.487 362.291 111.6C362.019 111.712 361.72 111.742 361.431 111.684C361.143 111.627 360.878 111.485 360.67 111.277C360.462 111.069 360.32 110.804 360.262 110.516C360.205 110.227 360.235 109.928 360.347 109.656C360.46 109.384 360.65 109.152 360.895 108.988C361.14 108.825 361.427 108.738 361.722 108.738C362.116 108.738 362.494 108.894 362.773 109.173C363.052 109.452 363.209 109.831 363.209 110.225Z" stroke="white" stroke-width="0.9" stroke-miterlimit="10"/>
<path d="M54.3689 141.875H93.8358C94.4372 141.874 95.0329 141.991 95.5887 142.221C96.1446 142.45 96.6497 142.787 97.0753 143.212C97.5009 143.637 97.8385 144.141 98.0688 144.697C98.2992 145.252 98.4178 145.848 98.4178 146.449V155.777C98.4177 156.891 98.0113 157.968 97.2747 158.804C96.538 159.641 95.5217 160.18 94.416 160.321C94.2556 160.34 94.1076 160.417 94.0006 160.537C93.8935 160.658 93.8348 160.814 93.8358 160.976V166.093C93.8353 166.157 93.8147 166.22 93.7769 166.271C93.739 166.323 93.6859 166.361 93.625 166.381C93.5641 166.401 93.4985 166.401 93.4376 166.381C93.3766 166.362 93.3234 166.323 93.2854 166.272L89.2688 160.649C89.2061 160.563 89.1243 160.494 89.03 160.446C88.9357 160.399 88.8315 160.374 88.7258 160.373H54.3689C53.1537 160.373 51.9883 159.891 51.129 159.031C50.2697 158.172 49.787 157.007 49.787 155.791V146.449C49.787 145.848 49.9056 145.252 50.1359 144.697C50.3663 144.141 50.7039 143.637 51.1295 143.212C51.555 142.787 52.0602 142.45 52.616 142.221C53.1719 141.991 53.7676 141.874 54.3689 141.875V141.875Z" stroke="white" stroke-width="0.9" stroke-miterlimit="10"/>
<path d="M87.7812 151.098C87.7812 151.392 87.8685 151.68 88.032 151.925C88.1954 152.169 88.4278 152.36 88.6996 152.473C88.9714 152.585 89.2705 152.615 89.5591 152.557C89.8477 152.5 90.1128 152.358 90.3208 152.15C90.5289 151.942 90.6705 151.677 90.7279 151.388C90.7853 151.1 90.7559 150.801 90.6433 150.529C90.5307 150.257 90.34 150.025 90.0954 149.861C89.8507 149.698 89.5631 149.61 89.2689 149.61C88.8743 149.61 88.496 149.767 88.217 150.046C87.938 150.325 87.7812 150.704 87.7812 151.098Z" stroke="white" stroke-width="0.9" stroke-miterlimit="10"/>
<path d="M80.1868 151.098C80.1868 151.392 80.274 151.68 80.4375 151.925C80.6009 152.169 80.8333 152.36 81.1051 152.473C81.3769 152.585 81.6761 152.615 81.9646 152.557C82.2532 152.5 82.5183 152.358 82.7263 152.15C82.9344 151.942 83.076 151.677 83.1334 151.388C83.1908 151.1 83.1614 150.801 83.0488 150.529C82.9362 150.257 82.7455 150.025 82.5009 149.861C82.2562 149.698 81.9686 149.61 81.6744 149.61C81.2799 149.61 80.9015 149.767 80.6225 150.046C80.3435 150.325 80.1868 150.704 80.1868 151.098Z" stroke="white" stroke-width="0.9" stroke-miterlimit="10"/>
<path d="M72.5924 151.098C72.5924 151.392 72.6797 151.68 72.8431 151.925C73.0066 152.169 73.2389 152.36 73.5107 152.473C73.7826 152.585 74.0817 152.615 74.3703 152.557C74.6588 152.5 74.9239 152.358 75.132 152.15C75.34 151.942 75.4817 151.677 75.5391 151.388C75.5965 151.1 75.567 150.801 75.4544 150.529C75.3418 150.257 75.1512 150.025 74.9065 149.861C74.6619 149.698 74.3743 149.61 74.08 149.61C73.6855 149.61 73.3071 149.767 73.0281 150.046C72.7491 150.325 72.5924 150.704 72.5924 151.098Z" stroke="white" stroke-width="0.9" stroke-miterlimit="10"/>
<path d="M64.998 151.098C64.998 151.392 65.0853 151.68 65.2488 151.925C65.4122 152.169 65.6446 152.36 65.9164 152.473C66.1882 152.585 66.4873 152.615 66.7759 152.557C67.0645 152.5 67.3295 152.358 67.5376 152.15C67.7456 151.942 67.8873 151.677 67.9447 151.388C68.0021 151.1 67.9727 150.801 67.8601 150.529C67.7475 150.257 67.5568 150.025 67.3122 149.861C67.0675 149.698 66.7799 149.61 66.4857 149.61C66.0911 149.61 65.7127 149.767 65.4338 150.046C65.1548 150.325 64.998 150.704 64.998 151.098Z" stroke="white" stroke-width="0.9" stroke-miterlimit="10"/>
<path d="M57.4036 151.098C57.4036 151.392 57.4908 151.68 57.6543 151.925C57.8177 152.169 58.0501 152.36 58.3219 152.473C58.5937 152.585 58.8929 152.615 59.1814 152.557C59.47 152.5 59.7351 152.358 59.9431 152.15C60.1512 151.942 60.2929 151.677 60.3503 151.388C60.4077 151.1 60.3782 150.801 60.2656 150.529C60.153 150.257 59.9623 150.025 59.7177 149.861C59.473 149.698 59.1854 149.61 58.8912 149.61C58.4967 149.61 58.1183 149.767 57.8393 150.046C57.5603 150.325 57.4036 150.704 57.4036 151.098Z" stroke="white" stroke-width="0.9" stroke-miterlimit="10"/>
<path d="M292.718 79.4832H220.798C218.892 79.4832 217.065 78.7262 215.717 77.3787C214.37 76.0312 213.613 74.2036 213.613 72.2979C213.615 70.3929 214.372 68.5664 215.719 67.2194C217.066 65.8723 218.893 65.1146 220.798 65.1127H292.718C294.622 65.1146 296.448 65.8725 297.794 67.2198C299.139 68.5671 299.895 70.3936 299.895 72.2979C299.896 73.2412 299.712 74.1754 299.351 75.0471C298.991 75.9188 298.462 76.7109 297.796 77.3783C297.129 78.0456 296.338 78.5749 295.466 78.9361C294.595 79.2973 293.661 79.4832 292.718 79.4832Z" fill="white" stroke="#495AD6" stroke-width="0.9" stroke-miterlimit="10"/>
<path d="M291.684 71.8071C291.684 72.5633 291.46 73.3025 291.039 73.9312C290.619 74.5599 290.022 75.0499 289.324 75.3393C288.625 75.6287 287.856 75.7044 287.115 75.5569C286.373 75.4093 285.692 75.0452 285.157 74.5105C284.622 73.9758 284.258 73.2946 284.111 72.553C283.963 71.8114 284.039 71.0426 284.328 70.344C284.618 69.6454 285.108 69.0483 285.737 68.6282C286.365 68.2081 287.104 67.9839 287.861 67.9839C288.875 67.9839 289.847 68.3867 290.564 69.1037C291.281 69.8207 291.684 70.7931 291.684 71.8071V71.8071Z" stroke="#495AD6" stroke-width="1.67" stroke-miterlimit="10"/>
<path d="M290.561 74.5072L292.673 76.6122" stroke="#495AD6" stroke-width="1.67" stroke-miterlimit="10" stroke-linecap="round"/>
<path d="M183.763 245.302H165.666C162.499 245.302 159.931 247.87 159.931 251.037V269.134C159.931 272.302 162.499 274.869 165.666 274.869H183.763C186.931 274.869 189.498 272.302 189.498 269.134V251.037C189.498 247.87 186.931 245.302 183.763 245.302Z" fill="#193091"/>
<path d="M178.378 245.302H160.281C157.114 245.302 154.546 247.87 154.546 251.037V269.134C154.546 272.302 157.114 274.869 160.281 274.869H178.378C181.545 274.869 184.113 272.302 184.113 269.134V251.037C184.113 247.87 181.545 245.302 178.378 245.302Z" fill="#495AD6"/>
<path d="M165.83 254.503L174.317 259.405C174.438 259.473 174.538 259.572 174.608 259.692C174.678 259.811 174.715 259.947 174.715 260.086C174.715 260.224 174.678 260.36 174.608 260.48C174.538 260.6 174.438 260.698 174.317 260.766L165.83 265.661C165.711 265.73 165.576 265.767 165.438 265.767C165.301 265.768 165.165 265.732 165.046 265.663C164.927 265.595 164.828 265.495 164.759 265.376C164.69 265.257 164.654 265.121 164.655 264.984V255.18C164.654 255.043 164.69 254.907 164.759 254.788C164.828 254.669 164.927 254.57 165.046 254.501C165.165 254.432 165.301 254.396 165.438 254.397C165.576 254.397 165.711 254.434 165.83 254.503Z" fill="white"/>
<path d="M370.967 236.22H347.314C343.173 236.22 339.816 239.577 339.816 243.718V267.372C339.816 271.512 343.173 274.869 347.314 274.869H370.967C375.108 274.869 378.465 271.512 378.465 267.372V243.718C378.465 239.577 375.108 236.22 370.967 236.22Z" fill="#193091"/>
<path d="M363.924 236.22H340.27C336.129 236.22 332.772 239.577 332.772 243.718V267.372C332.772 271.512 336.129 274.869 340.27 274.869H363.924C368.064 274.869 371.421 271.512 371.421 267.372V243.718C371.421 239.577 368.064 236.22 363.924 236.22Z" fill="#495AD6"/>
<path d="M356.738 245.682C356.738 246.6 356.466 247.497 355.956 248.26C355.446 249.024 354.721 249.619 353.873 249.97C353.025 250.321 352.091 250.413 351.191 250.234C350.291 250.055 349.464 249.613 348.815 248.964C348.165 248.315 347.723 247.488 347.544 246.587C347.365 245.687 347.457 244.754 347.808 243.906C348.16 243.057 348.755 242.332 349.518 241.822C350.281 241.312 351.179 241.04 352.097 241.04C353.327 241.04 354.508 241.529 355.378 242.4C356.249 243.27 356.738 244.451 356.738 245.682Z" fill="white"/>
<path d="M361.774 261.421V268.279C361.774 268.575 361.656 268.859 361.447 269.068C361.238 269.277 360.954 269.395 360.658 269.395H343.55C343.254 269.395 342.971 269.277 342.761 269.068C342.552 268.859 342.435 268.575 342.435 268.279V261.421C342.435 258.856 343.453 256.397 345.267 254.584C347.08 252.77 349.54 251.751 352.104 251.751C354.669 251.751 357.128 252.77 358.942 254.584C360.755 256.397 361.774 258.856 361.774 261.421Z" fill="white"/>
<path d="M265.665 87.7619H250.469C250.166 87.76 249.877 87.6384 249.664 87.4238C249.45 87.2092 249.331 86.919 249.331 86.6165C249.331 86.3146 249.451 86.0252 249.664 85.8117C249.878 85.5983 250.167 85.4784 250.469 85.4784H265.665C265.815 85.4774 265.964 85.5061 266.103 85.5629C266.242 85.6197 266.368 85.7033 266.475 85.8091C266.581 85.9149 266.666 86.0407 266.723 86.1792C266.781 86.3178 266.811 86.4664 266.811 86.6165C266.811 86.9203 266.69 87.2116 266.475 87.4264C266.26 87.6413 265.969 87.7619 265.665 87.7619Z" fill="#F0F4FF"/>
<path d="M280.869 87.7619H269.875C269.571 87.7619 269.28 87.6413 269.065 87.4264C268.85 87.2116 268.729 86.9203 268.729 86.6165C268.729 86.4664 268.759 86.3178 268.817 86.1792C268.874 86.0407 268.959 85.9149 269.065 85.8091C269.172 85.7033 269.298 85.6197 269.437 85.5629C269.576 85.5061 269.725 85.4774 269.875 85.4784H280.869C281.018 85.4774 281.167 85.5062 281.305 85.563C281.444 85.6199 281.57 85.7037 281.676 85.8095C281.781 85.9154 281.865 86.0413 281.922 86.1798C281.979 86.3183 282.008 86.4667 282.007 86.6165C282.008 86.7665 281.979 86.9153 281.922 87.0543C281.865 87.1932 281.782 87.3195 281.676 87.426C281.57 87.5325 281.444 87.6169 281.306 87.6746C281.167 87.7323 281.019 87.7619 280.869 87.7619Z" fill="#F0F4FF"/>
<path d="M256.925 92.7828H250.469C250.166 92.7808 249.877 92.6593 249.664 92.4447C249.45 92.2301 249.331 91.9398 249.331 91.6373C249.331 91.3355 249.451 91.046 249.664 90.8326C249.878 90.6192 250.167 90.4993 250.469 90.4993H256.925C257.075 90.4983 257.224 90.527 257.363 90.5838C257.502 90.6405 257.628 90.7242 257.735 90.83C257.841 90.9357 257.926 91.0615 257.983 91.2001C258.041 91.3387 258.071 91.4873 258.071 91.6373C258.071 91.9411 257.95 92.2325 257.735 92.4473C257.52 92.6621 257.229 92.7828 256.925 92.7828Z" fill="#F0F4FF"/>
<path d="M280.869 92.7828H260.734C260.43 92.7828 260.138 92.6621 259.924 92.4473C259.709 92.2325 259.588 91.9411 259.588 91.6373C259.588 91.4873 259.618 91.3387 259.675 91.2001C259.733 91.0615 259.818 90.9357 259.924 90.83C260.031 90.7242 260.157 90.6405 260.296 90.5838C260.435 90.527 260.584 90.4983 260.734 90.4993H280.817C280.966 90.4983 281.115 90.5271 281.253 90.5839C281.392 90.6407 281.518 90.7245 281.624 90.8304C281.729 90.9363 281.813 91.0621 281.87 91.2007C281.927 91.3392 281.956 91.4876 281.955 91.6373C281.957 91.9316 281.845 92.2154 281.643 92.4289C281.44 92.6425 281.163 92.7694 280.869 92.7828Z" fill="#F0F4FF"/>
<path d="M270.5 97.8033H250.469C250.166 97.8014 249.877 97.6798 249.664 97.4652C249.45 97.2506 249.331 96.9604 249.331 96.6578C249.331 96.356 249.451 96.0665 249.664 95.8531C249.878 95.6397 250.167 95.5198 250.469 95.5198H270.5C270.65 95.5188 270.799 95.5475 270.938 95.6043C271.077 95.661 271.203 95.7447 271.309 95.8505C271.416 95.9563 271.5 96.082 271.558 96.2206C271.616 96.3592 271.645 96.5078 271.645 96.6578C271.645 96.9616 271.525 97.253 271.31 97.4678C271.095 97.6826 270.804 97.8033 270.5 97.8033Z" fill="#F0F4FF"/>
<path d="M280.869 97.8033H274.412C274.109 97.8033 273.817 97.6826 273.602 97.4678C273.388 97.253 273.267 96.9616 273.267 96.6578C273.267 96.5078 273.297 96.3592 273.354 96.2206C273.412 96.082 273.496 95.9563 273.603 95.8505C273.709 95.7447 273.836 95.661 273.975 95.6043C274.113 95.5475 274.262 95.5188 274.412 95.5198H280.869C281.018 95.5188 281.167 95.5476 281.305 95.6044C281.444 95.6613 281.57 95.745 281.676 95.8509C281.781 95.9568 281.865 96.0826 281.922 96.2212C281.979 96.3597 282.008 96.5081 282.007 96.6578C282.008 96.8079 281.979 96.9567 281.922 97.0956C281.865 97.2346 281.782 97.3609 281.676 97.4674C281.57 97.5738 281.444 97.6583 281.306 97.716C281.167 97.7736 281.019 97.8033 280.869 97.8033Z" fill="#F0F4FF"/>
<path d="M73.2544 171.917H20.2054C18.6361 171.917 17.364 173.19 17.364 174.759V201.544C17.364 203.113 18.6361 204.385 20.2054 204.385H73.2544C74.8237 204.385 76.0958 203.113 76.0958 201.544V174.759C76.0958 173.19 74.8237 171.917 73.2544 171.917Z" fill="#193091"/>
<path d="M19.8557 176.306H73.5965" stroke="white" stroke-width="0.9" stroke-miterlimit="10" stroke-linecap="round"/>
<path d="M72.1833 174.722C72.5406 174.722 72.8304 174.432 72.8304 174.075C72.8304 173.717 72.5406 173.427 72.1833 173.427C71.8259 173.427 71.5361 173.717 71.5361 174.075C71.5361 174.432 71.8259 174.722 72.1833 174.722Z" fill="white"/>
<path d="M68.7841 174.722C69.1415 174.722 69.4312 174.432 69.4312 174.075C69.4312 173.717 69.1415 173.427 68.7841 173.427C68.4267 173.427 68.137 173.717 68.137 174.075C68.137 174.432 68.4267 174.722 68.7841 174.722Z" fill="white"/>
<path d="M65.3922 174.722C65.7496 174.722 66.0394 174.432 66.0394 174.075C66.0394 173.717 65.7496 173.427 65.3922 173.427C65.0349 173.427 64.7451 173.717 64.7451 174.075C64.7451 174.432 65.0349 174.722 65.3922 174.722Z" fill="white"/>
<path d="M29.8749 180.672H20.7557C20.5183 180.672 20.2905 180.578 20.1219 180.411C19.9534 180.244 19.8577 180.017 19.8557 179.779C19.8557 179.541 19.9505 179.312 20.1193 179.143C20.2881 178.974 20.517 178.879 20.7557 178.879H29.8749C30.1136 178.879 30.3425 178.974 30.5113 179.143C30.6801 179.312 30.7749 179.541 30.7749 179.779C30.773 180.017 30.6773 180.244 30.5087 180.411C30.3401 180.578 30.1123 180.672 29.8749 180.672Z" fill="#6589D1"/>
<path d="M29.8749 184.83H20.7557C20.517 184.83 20.2881 184.735 20.1193 184.566C19.9505 184.398 19.8557 184.169 19.8557 183.93C19.8557 183.691 19.9505 183.462 20.1193 183.294C20.2881 183.125 20.517 183.03 20.7557 183.03H29.8749C30.1136 183.03 30.3425 183.125 30.5113 183.294C30.6801 183.462 30.7749 183.691 30.7749 183.93C30.7749 184.169 30.6801 184.398 30.5113 184.566C30.3425 184.735 30.1136 184.83 29.8749 184.83Z" fill="#6589D1"/>
<path d="M29.8749 188.981H20.7557C20.517 188.981 20.2881 188.886 20.1193 188.717C19.9505 188.548 19.8557 188.319 19.8557 188.081C19.8557 187.842 19.9505 187.613 20.1193 187.444C20.2881 187.275 20.517 187.181 20.7557 187.181H29.8749C30.1136 187.181 30.3425 187.275 30.5113 187.444C30.6801 187.613 30.7749 187.842 30.7749 188.081C30.7749 188.319 30.6801 188.548 30.5113 188.717C30.3425 188.886 30.1136 188.981 29.8749 188.981Z" fill="#6589D1"/>
<path d="M29.8749 193.131H20.7557C20.5183 193.131 20.2905 193.037 20.1219 192.87C19.9534 192.703 19.8577 192.476 19.8557 192.238C19.8557 192 19.9505 191.771 20.1193 191.602C20.2881 191.433 20.517 191.338 20.7557 191.338H29.8749C30.1136 191.338 30.3425 191.433 30.5113 191.602C30.6801 191.771 30.7749 192 30.7749 192.238C30.773 192.476 30.6773 192.703 30.5087 192.87C30.3401 193.037 30.1123 193.131 29.8749 193.131Z" fill="#6589D1"/>
<path d="M29.8749 197.289H20.7557C20.517 197.289 20.2881 197.194 20.1193 197.025C19.9505 196.857 19.8557 196.628 19.8557 196.389C19.8557 196.15 19.9505 195.921 20.1193 195.753C20.2881 195.584 20.517 195.489 20.7557 195.489H29.8749C30.1136 195.489 30.3425 195.584 30.5113 195.753C30.6801 195.921 30.7749 196.15 30.7749 196.389C30.7749 196.628 30.6801 196.857 30.5113 197.025C30.3425 197.194 30.1136 197.289 29.8749 197.289Z" fill="#6589D1"/>
<path d="M29.8749 201.44H20.7557C20.517 201.44 20.2881 201.345 20.1193 201.176C19.9505 201.007 19.8557 200.778 19.8557 200.54C19.8557 200.301 19.9505 200.072 20.1193 199.903C20.2881 199.734 20.517 199.64 20.7557 199.64H29.8749C30.1136 199.64 30.3425 199.734 30.5113 199.903C30.6801 200.072 30.7749 200.301 30.7749 200.54C30.7749 200.778 30.6801 201.007 30.5113 201.176C30.3425 201.345 30.1136 201.44 29.8749 201.44Z" fill="#6589D1"/>
<path d="M72.7039 180.672H33.4006C33.1632 180.672 32.9354 180.578 32.7668 180.411C32.5983 180.244 32.5026 180.017 32.5006 179.779C32.5006 179.541 32.5954 179.312 32.7642 179.143C32.933 178.974 33.1619 178.879 33.4006 178.879H72.7039C72.9413 178.881 73.1684 178.977 73.3355 179.146C73.5027 179.314 73.5965 179.542 73.5965 179.779C73.5965 180.016 73.5025 180.243 73.3351 180.411C73.1677 180.578 72.9407 180.672 72.7039 180.672Z" fill="#3B5FB7"/>
<path d="M72.7039 184.83H33.4006C33.1619 184.83 32.933 184.735 32.7642 184.566C32.5954 184.398 32.5006 184.169 32.5006 183.93C32.5006 183.691 32.5954 183.462 32.7642 183.294C32.933 183.125 33.1619 183.03 33.4006 183.03H72.7039C72.9413 183.032 73.1684 183.128 73.3355 183.296C73.5027 183.465 73.5965 183.693 73.5965 183.93C73.5965 184.167 73.5027 184.395 73.3355 184.564C73.1684 184.732 72.9413 184.828 72.7039 184.83Z" fill="#3B5FB7"/>
<path d="M72.7039 188.981H33.4006C33.1619 188.981 32.933 188.886 32.7642 188.717C32.5954 188.548 32.5006 188.319 32.5006 188.081C32.5006 187.842 32.5954 187.613 32.7642 187.444C32.933 187.275 33.1619 187.181 33.4006 187.181H72.7039C72.9413 187.183 73.1684 187.278 73.3355 187.447C73.5027 187.615 73.5965 187.843 73.5965 188.081C73.5965 188.318 73.5027 188.546 73.3355 188.714C73.1684 188.883 72.9413 188.979 72.7039 188.981Z" fill="#3B5FB7"/>
<path d="M72.7039 193.131H33.4006C33.1632 193.131 32.9354 193.037 32.7668 192.87C32.5983 192.703 32.5026 192.476 32.5006 192.238C32.5006 192 32.5954 191.771 32.7642 191.602C32.933 191.433 33.1619 191.338 33.4006 191.338H72.7039C72.9413 191.34 73.1684 191.436 73.3355 191.605C73.5027 191.773 73.5965 192.001 73.5965 192.238C73.5965 192.475 73.5025 192.702 73.3351 192.87C73.1677 193.037 72.9407 193.131 72.7039 193.131Z" fill="#3B5FB7"/>
<path d="M72.7039 197.289H33.4006C33.1619 197.289 32.933 197.194 32.7642 197.025C32.5954 196.857 32.5006 196.628 32.5006 196.389C32.5006 196.15 32.5954 195.921 32.7642 195.753C32.933 195.584 33.1619 195.489 33.4006 195.489H72.7039C72.9413 195.491 73.1684 195.587 73.3355 195.755C73.5027 195.924 73.5965 196.152 73.5965 196.389C73.5965 196.626 73.5027 196.854 73.3355 197.023C73.1684 197.191 72.9413 197.287 72.7039 197.289Z" fill="#3B5FB7"/>
<path d="M72.7039 201.44H33.4006C33.1619 201.44 32.933 201.345 32.7642 201.176C32.5954 201.007 32.5006 200.778 32.5006 200.54C32.5006 200.301 32.5954 200.072 32.7642 199.903C32.933 199.734 33.1619 199.64 33.4006 199.64H72.7039C72.9413 199.642 73.1684 199.737 73.3355 199.906C73.5027 200.074 73.5965 200.302 73.5965 200.54C73.5965 200.777 73.5027 201.005 73.3355 201.173C73.1684 201.342 72.9413 201.438 72.7039 201.44Z" fill="#3B5FB7"/>
<path d="M348.596 34.7818C351.707 21.7941 343.7 8.74366 330.713 5.63278C317.725 2.5219 304.674 10.5286 301.564 23.5163C298.453 36.504 306.459 49.5545 319.447 52.6654C332.435 55.7763 345.485 47.7695 348.596 34.7818Z" stroke="#DEE3FC" stroke-width="0.79" stroke-miterlimit="10"/>
<path d="M333.598 48.3656C344.215 43.6678 349.012 31.2533 344.315 20.6371C339.617 10.0209 327.202 5.22312 316.586 9.92093C305.97 14.6187 301.172 27.0332 305.87 37.6494C310.568 48.2656 322.982 53.0634 333.598 48.3656Z" fill="#3945BA"/>
<path d="M327.008 29.1567C327.008 29.5348 326.895 29.9044 326.685 30.2188C326.475 30.5331 326.177 30.7781 325.827 30.9228C325.478 31.0675 325.094 31.1054 324.723 31.0316C324.352 30.9578 324.012 30.7758 323.744 30.5084C323.477 30.2411 323.295 29.9005 323.221 29.5297C323.147 29.1588 323.185 28.7745 323.33 28.4252C323.475 28.0759 323.72 27.7773 324.034 27.5673C324.348 27.3572 324.718 27.2451 325.096 27.2451C325.603 27.2451 326.089 27.4465 326.448 27.805C326.806 28.1635 327.008 28.6497 327.008 29.1567Z" fill="white"/>
<path d="M324.888 28.7772C324.82 28.8164 324.745 28.8416 324.667 28.8512C324.589 28.8609 324.509 28.8548 324.434 28.8333C324.358 28.8118 324.288 28.7753 324.227 28.7261C324.165 28.6768 324.114 28.6158 324.077 28.5466L317.896 17.3894C317.857 17.3213 317.832 17.246 317.822 17.168C317.812 17.09 317.819 17.0108 317.84 16.9352C317.862 16.8596 317.898 16.7891 317.947 16.7279C317.996 16.6666 318.057 16.6159 318.127 16.5786C318.195 16.5394 318.27 16.5142 318.348 16.5045C318.426 16.4949 318.505 16.501 318.581 16.5225C318.656 16.544 318.727 16.5805 318.788 16.6297C318.849 16.679 318.9 16.74 318.937 16.8092L325.126 27.9664C325.164 28.0352 325.188 28.1108 325.196 28.1889C325.205 28.267 325.198 28.346 325.176 28.4214C325.154 28.4968 325.117 28.567 325.067 28.6281C325.018 28.6891 324.957 28.7398 324.888 28.7772Z" fill="white"/>
<path d="M325.401 29.4615C325.456 29.4052 325.522 29.3606 325.595 29.3301C325.668 29.2996 325.746 29.2839 325.825 29.2839C325.904 29.2839 325.982 29.2996 326.055 29.3301C326.128 29.3606 326.194 29.4052 326.249 29.4615L331.597 34.8095C331.709 34.9223 331.771 35.0747 331.771 35.2335C331.771 35.3923 331.709 35.5446 331.597 35.6575C331.484 35.7692 331.332 35.8319 331.173 35.8319C331.014 35.8319 330.862 35.7692 330.749 35.6575L325.401 30.3094C325.289 30.1966 325.227 30.0442 325.227 29.8854C325.227 29.7266 325.289 29.5743 325.401 29.4615Z" fill="white"/>
<path d="M325.23 12.3315V9.91406" stroke="white" stroke-width="2" stroke-miterlimit="10" stroke-linecap="round"/>
<path d="M341.921 29.2831H344.339" stroke="white" stroke-width="2" stroke-miterlimit="10" stroke-linecap="round"/>
<path d="M324.97 45.9819V48.3993" stroke="white" stroke-width="2" stroke-miterlimit="10" stroke-linecap="round"/>
<path d="M308.271 29.0302H305.854" stroke="white" stroke-width="2" stroke-miterlimit="10" stroke-linecap="round"/>
<g opacity="0.5">
<path opacity="0.5" d="M316.795 14.5183L315.59 12.4282" stroke="#DEE3FC" stroke-miterlimit="10" stroke-linecap="round"/>
<path opacity="0.5" d="M339.734 20.8557L341.824 19.6507" stroke="#DEE3FC" stroke-miterlimit="10" stroke-linecap="round"/>
<path opacity="0.5" d="M333.397 43.7947L334.61 45.8849" stroke="#DEE3FC" stroke-miterlimit="10" stroke-linecap="round"/>
<path opacity="0.5" d="M310.465 37.4575L308.368 38.6699" stroke="#DEE3FC" stroke-miterlimit="10" stroke-linecap="round"/>
</g>
<g opacity="0.5">
<path opacity="0.5" d="M310.592 20.633L308.494 19.428" stroke="#DEE3FC" stroke-miterlimit="10" stroke-linecap="round"/>
<path opacity="0.5" d="M333.62 14.6525L334.833 12.5549" stroke="#DEE3FC" stroke-miterlimit="10" stroke-linecap="round"/>
<path opacity="0.5" d="M339.601 37.6812L341.698 38.8862" stroke="#DEE3FC" stroke-miterlimit="10" stroke-linecap="round"/>
<path opacity="0.5" d="M316.572 43.6614L315.367 45.7589" stroke="#DEE3FC" stroke-miterlimit="10" stroke-linecap="round"/>
</g>
<path d="M37.8264 110.047H11.2796C7.34824 110.047 4.16125 113.234 4.16125 117.165V143.712C4.16125 147.643 7.34824 150.83 11.2796 150.83H37.8264C41.7578 150.83 44.9448 147.643 44.9448 143.712V117.165C44.9448 113.234 41.7578 110.047 37.8264 110.047Z" fill="#193091"/>
<path d="M36.0784 106.514H6.70508C3.55426 106.514 1 109.068 1 112.219V141.592C1 144.743 3.55426 147.297 6.70508 147.297H36.0784C39.2293 147.297 41.7835 144.743 41.7835 141.592V112.219C41.7835 109.068 39.2293 106.514 36.0784 106.514Z" fill="#7E89FD" stroke="#DEE3FC" stroke-miterlimit="10"/>
<path d="M28.4542 122.208H28.2459V119.902C28.2459 118.058 27.5132 116.289 26.209 114.985C24.9047 113.68 23.1357 112.948 21.2912 112.948C19.4468 112.948 17.6778 113.68 16.3735 114.985C15.0693 116.289 14.3366 118.058 14.3366 119.902V122.208H14.2919C14.0354 122.207 13.7812 122.257 13.5439 122.354C13.3066 122.452 13.0909 122.595 12.9091 122.776C12.7274 122.957 12.5831 123.173 12.4847 123.41C12.3863 123.647 12.3357 123.901 12.3357 124.157V132.994C12.3357 133.25 12.3863 133.504 12.4847 133.741C12.5831 133.978 12.7274 134.193 12.9091 134.374C13.0909 134.555 13.3066 134.699 13.5439 134.796C13.7812 134.894 14.0354 134.943 14.2919 134.942H28.4245C28.681 134.943 28.9352 134.894 29.1725 134.796C29.4098 134.699 29.6255 134.555 29.8073 134.374C29.989 134.193 30.1332 133.978 30.2316 133.741C30.33 133.504 30.3807 133.25 30.3807 132.994V124.187C30.3846 123.93 30.3379 123.675 30.2431 123.437C30.1483 123.199 30.0074 122.981 29.8284 122.797C29.6494 122.614 29.4359 122.467 29.2001 122.366C28.9642 122.265 28.7108 122.211 28.4542 122.208ZM16.0994 119.873C16.0994 118.492 16.648 117.167 17.6244 116.191C18.6009 115.215 19.9252 114.666 21.3061 114.666C22.687 114.666 24.0114 115.215 24.9878 116.191C25.9643 117.167 26.5128 118.492 26.5128 119.873V122.208H16.0994V119.873Z" fill="#DEE3FC"/>
<path d="M23.664 126.76C23.6643 126.362 23.5601 125.972 23.3617 125.627C23.1634 125.282 22.8778 124.996 22.5338 124.796C22.1897 124.596 21.7992 124.491 21.4014 124.49C21.0037 124.489 20.6126 124.592 20.2675 124.79C19.9224 124.988 19.6353 125.273 19.4351 125.616C19.2349 125.96 19.1285 126.35 19.1267 126.748C19.1249 127.146 19.2278 127.537 19.4249 127.883C19.622 128.228 19.9065 128.516 20.2499 128.716C20.3289 128.759 20.392 128.827 20.4295 128.909C20.4671 128.99 20.4771 129.082 20.4581 129.17L20.0639 130.658C20.0086 130.86 20.0006 131.072 20.0406 131.277C20.0806 131.483 20.1675 131.677 20.2946 131.843C20.4216 132.01 20.5853 132.144 20.773 132.237C20.9607 132.33 21.1673 132.379 21.3768 132.379C21.5862 132.379 21.7928 132.33 21.9805 132.237C22.1682 132.144 22.3319 132.01 22.4589 131.843C22.586 131.677 22.6729 131.483 22.7129 131.277C22.7529 131.072 22.7449 130.86 22.6896 130.658L22.3028 129.222C22.2808 129.133 22.2893 129.039 22.3271 128.956C22.3649 128.872 22.4297 128.803 22.5111 128.761C22.8643 128.561 23.1574 128.27 23.3601 127.918C23.5629 127.566 23.6678 127.166 23.664 126.76Z" fill="#7E89FD"/>
<path d="M29.5701 138.029H13.2061C12.9845 138.029 12.7718 137.942 12.6144 137.786C12.457 137.63 12.3676 137.418 12.3656 137.196C12.3675 136.974 12.4567 136.761 12.6139 136.604C12.7711 136.447 12.9838 136.358 13.2061 136.356H29.5701C29.7924 136.358 30.0051 136.447 30.1623 136.604C30.3195 136.761 30.4087 136.974 30.4106 137.196C30.4086 137.418 30.3192 137.63 30.1618 137.786C30.0044 137.942 29.7917 138.029 29.5701 138.029Z" fill="#DEE3FC"/>
<path d="M29.5701 140.871H13.2061C12.9838 140.869 12.7711 140.779 12.6139 140.622C12.4567 140.465 12.3675 140.252 12.3656 140.03C12.3676 139.808 12.457 139.597 12.6144 139.441C12.7718 139.285 12.9845 139.197 13.2061 139.197H29.5701C29.7917 139.197 30.0044 139.285 30.1618 139.441C30.3192 139.597 30.4086 139.808 30.4106 140.03C30.4087 140.252 30.3195 140.465 30.1623 140.622C30.0051 140.779 29.7924 140.869 29.5701 140.871Z" fill="#DEE3FC"/>
<path d="M359.096 174.766H343.461C341.148 174.766 339.273 176.641 339.273 178.954V194.589C339.273 196.902 341.148 198.777 343.461 198.777H359.096C361.409 198.777 363.284 196.902 363.284 194.589V178.954C363.284 176.641 361.409 174.766 359.096 174.766Z" fill="#193091"/>
<path d="M358.069 172.684H340.768C338.915 172.684 337.414 174.186 337.414 176.038V193.34C337.414 195.192 338.915 196.694 340.768 196.694H358.069C359.922 196.694 361.424 195.192 361.424 193.34V176.038C361.424 174.186 359.922 172.684 358.069 172.684Z" fill="#7E89FD" stroke="#DEE3FC" stroke-miterlimit="10"/>
<path d="M344.569 191.859C344.503 191.87 344.435 191.87 344.368 191.859C344.179 191.805 344.019 191.679 343.923 191.508C343.827 191.336 343.802 191.134 343.855 190.944L347.485 178.091C347.539 177.902 347.665 177.742 347.837 177.646C348.008 177.55 348.21 177.525 348.4 177.578C348.589 177.632 348.749 177.758 348.845 177.929C348.941 178.101 348.966 178.303 348.913 178.493L345.283 191.346C345.234 191.496 345.139 191.627 345.01 191.719C344.882 191.812 344.727 191.861 344.569 191.859Z" fill="white"/>
<path d="M350.639 191.859C350.572 191.87 350.504 191.87 350.438 191.859C350.249 191.805 350.089 191.679 349.993 191.508C349.896 191.336 349.872 191.134 349.925 190.944L353.555 178.091C353.608 177.901 353.735 177.739 353.907 177.642C354.079 177.545 354.283 177.521 354.473 177.574C354.664 177.627 354.825 177.754 354.922 177.926C355.019 178.099 355.043 178.302 354.99 178.493L351.353 191.346C351.304 191.496 351.208 191.627 351.08 191.719C350.951 191.812 350.797 191.861 350.639 191.859Z" fill="white"/>
<path d="M355.845 182.517H342.992C342.795 182.517 342.606 182.438 342.466 182.299C342.327 182.159 342.249 181.97 342.249 181.773C342.249 181.576 342.327 181.387 342.466 181.247C342.606 181.108 342.795 181.029 342.992 181.029H355.845C356.043 181.029 356.232 181.108 356.371 181.247C356.511 181.387 356.589 181.576 356.589 181.773C356.589 181.97 356.511 182.159 356.371 182.299C356.232 182.438 356.043 182.517 355.845 182.517Z" fill="white"/>
<path d="M355.845 188.408H342.992C342.795 188.408 342.606 188.329 342.466 188.19C342.327 188.05 342.249 187.861 342.249 187.664C342.249 187.467 342.327 187.278 342.466 187.138C342.606 186.999 342.795 186.92 342.992 186.92H355.845C356.043 186.92 356.232 186.999 356.371 187.138C356.511 187.278 356.589 187.467 356.589 187.664C356.589 187.861 356.511 188.05 356.371 188.19C356.232 188.329 356.043 188.408 355.845 188.408Z" fill="white"/>
<path d="M69.2304 122.506H59.9029C59.6327 122.506 59.3735 122.398 59.1824 122.207C58.9913 122.016 58.8839 121.757 58.8839 121.487C58.8839 121.353 58.9103 121.22 58.9615 121.097C59.0127 120.973 59.0877 120.861 59.1824 120.766C59.277 120.671 59.3893 120.596 59.513 120.545C59.6366 120.494 59.7691 120.468 59.9029 120.468H69.2007C69.3345 120.468 69.467 120.494 69.5906 120.545C69.7143 120.596 69.8266 120.671 69.9212 120.766C70.0158 120.861 70.0909 120.973 70.1421 121.097C70.1933 121.22 70.2197 121.353 70.2197 121.487C70.2198 121.752 70.1165 122.007 69.9318 122.197C69.7471 122.387 69.4955 122.498 69.2304 122.506Z" fill="#F0F4FF"/>
<path d="M78.5951 127.028H59.9029C59.6327 127.028 59.3735 126.921 59.1824 126.73C58.9913 126.538 58.8839 126.279 58.8839 126.009C58.8839 125.739 58.9913 125.48 59.1824 125.288C59.3735 125.097 59.6327 124.99 59.9029 124.99H78.5653C78.8356 124.99 79.0948 125.097 79.2859 125.288C79.477 125.48 79.5843 125.739 79.5843 126.009C79.5845 126.274 79.4812 126.529 79.2965 126.719C79.1118 126.91 78.8601 127.02 78.5951 127.028Z" fill="#F0F4FF"/>
<path d="M62.1344 131.551H59.9029C59.6327 131.551 59.3735 131.443 59.1824 131.252C58.9913 131.061 58.8839 130.802 58.8839 130.531C58.8839 130.261 58.9913 130.002 59.1824 129.811C59.3735 129.62 59.6327 129.512 59.9029 129.512H62.1344C62.4053 129.512 62.6653 129.62 62.8576 129.81C63.0499 130.001 63.1589 130.261 63.1609 130.531C63.1609 130.666 63.1343 130.799 63.0826 130.923C63.0309 131.047 62.9552 131.16 62.8598 131.255C62.7643 131.349 62.6511 131.424 62.5266 131.475C62.4021 131.526 62.2688 131.551 62.1344 131.551Z" fill="#F0F4FF"/>
<path d="M78.5949 131.551H65.6005C65.3302 131.551 65.071 131.443 64.8799 131.252C64.6888 131.061 64.5814 130.802 64.5814 130.531C64.5814 130.261 64.6888 130.002 64.8799 129.811C65.071 129.62 65.3302 129.512 65.6005 129.512H78.5949C78.8652 129.512 79.1244 129.62 79.3155 129.811C79.5066 130.002 79.614 130.261 79.614 130.531C79.614 130.802 79.5066 131.061 79.3155 131.252C79.1244 131.443 78.8652 131.551 78.5949 131.551Z" fill="#F0F4FF"/>
<path d="M78.595 122.506H72.9569C72.6872 122.504 72.4292 122.396 72.2385 122.205C72.0478 122.014 71.9398 121.756 71.9379 121.487C71.9379 121.353 71.9642 121.22 72.0154 121.097C72.0667 120.973 72.1417 120.861 72.2363 120.766C72.331 120.671 72.4433 120.596 72.5669 120.545C72.6906 120.494 72.8231 120.468 72.9569 120.468H78.595C78.8615 120.468 79.1174 120.572 79.3078 120.758C79.4983 120.944 79.6082 121.198 79.6141 121.464C79.617 121.6 79.5929 121.735 79.543 121.861C79.4931 121.987 79.4185 122.102 79.3236 122.199C79.2287 122.296 79.1153 122.373 78.9902 122.426C78.8651 122.479 78.7308 122.506 78.595 122.506Z" fill="#F0F4FF"/>
</svg>
